<svg xmlns="http://www.w3.org/2000/svg" width="1150" height="416" viewBox="0 0 1150 416"><g><g opacity="-1"><path fill="#0a162f" d="M388.71 305H175.57v-2h213.26c3.803-54.766 48.936-98 104.054-98 39.153 0 73.268 21.816 91.109 54.085-8.582 15.327-13.481 33.04-13.481 51.912 0 18.667 4.794 36.202 13.204 51.414C565.801 394.407 531.836 416 492.884 416c-57.611 0-104.314-47.233-104.314-105.5 0-1.844.047-3.678.14-5.5z"/></g><g opacity="-1"><path fill="#45739e" d="M309 90h2v23h-2z"/></g><g opacity="-1"><g><g><text dominant-baseline="text-before-edge" style="line-height:28px;font-kerning:normal" fill="#0a162f" font-family="Averta-Regular" font-size="14" letter-spacing="-.06" transform="translate(126 368)"><tspan style="line-height:28px;font-kerning:normal">Object Storage</tspan></text></g></g><g><path fill="none" stroke="#0a162f" stroke-miterlimit="20" stroke-width=".75" d="M226 384v0l2.188 2.402v0L226 388.804v0"/></g></g><g opacity="-1"><g><g><text dominant-baseline="text-before-edge" style="line-height:28px;font-kerning:normal" fill="#0a162f" font-family="Averta-Regular" font-size="14" letter-spacing="-.06" transform="translate(258 368)"><tspan style="line-height:28px;font-kerning:normal">Backup Storage</tspan></text></g></g><g><path fill="none" stroke="#0a162f" stroke-miterlimit="20" stroke-width=".75" d="M363 384v0l2.188 2.402v0L363 388.804v0"/></g></g><g opacity="-1"><path fill="#0a162f" d="M175 326h2v-23h-2z"/></g><g opacity="-1"><path fill="#0a162f" d="M311 326h2v-23h-2z"/></g><g opacity="-1"><g><g><text dominant-baseline="text-before-edge" style="line-height:59px;font-kerning:normal" fill="#fff" font-family="Averta-Semibold" font-size="13" letter-spacing=".61" transform="translate(459 314)"><tspan style="line-height:59px;font-kerning:normal">STORAGE</tspan></text></g></g><g><g opacity="-1"><path fill="#fff" d="M491.553 285.404c-1.572 0-2.92-1.343-2.92-2.909 0-1.566 1.348-2.909 2.92-2.909 1.572 0 2.92 1.343 2.92 2.909a2.894 2.894 0 0 1-2.92 2.909zm-10.076 0c-1.572 0-2.92-1.343-2.92-2.909 0-1.566 1.348-2.909 2.92-2.909 1.573 0 2.92 1.343 2.92 2.909a2.894 2.894 0 0 1-2.92 2.909zm-10.075 0c-1.573 0-2.92-1.343-2.92-2.909 0-1.566 1.347-2.909 2.92-2.909 1.572 0 2.92 1.343 2.92 2.909a2.894 2.894 0 0 1-2.92 2.909zM514.529 276h-47.17c-1.348 0-2.359 1.009-2.359 2.353v8.294c0 1.344 1.01 2.353 2.359 2.353h47.282c1.348 0 2.359-1.009 2.359-2.353v-8.294c0-1.344-1.123-2.353-2.47-2.353z"/></g><g opacity="-1"><path fill="#fff" d="M491.665 296.598c1.573 0 2.92 1.345 2.92 2.914 0 1.569-1.347 2.914-2.92 2.914-1.572 0-2.92-1.345-2.92-2.914.112-1.681 1.348-2.914 2.92-2.914zm-10.075 0c1.572 0 2.92 1.345 2.92 2.914 0 1.569-1.348 2.914-2.92 2.914-1.573 0-2.92-1.345-2.92-2.914.112-1.681 1.347-2.914 2.92-2.914zm-10.076 0c1.572 0 2.92 1.345 2.92 2.914 0 1.569-1.348 2.914-2.92 2.914-1.572 0-2.92-1.345-2.92-2.914.112-1.681 1.348-2.914 2.92-2.914zM465 303.547c0 1.344 1.01 2.353 2.359 2.353h47.282c1.348 0 2.359-1.009 2.359-2.353v-8.294c0-1.344-1.01-2.353-2.359-2.353h-47.17c-1.348 0-2.359 1.009-2.359 2.353v8.294z"/></g><g opacity="-1"><path fill="#fff" d="M491.665 313.386c1.573 0 2.92 1.343 2.92 2.909 0 1.566-1.347 2.909-2.92 2.909-1.572 0-2.92-1.343-2.92-2.909.112-1.566 1.348-2.909 2.92-2.909zm-10.075 0c1.572 0 2.92 1.343 2.92 2.909 0 1.566-1.348 2.909-2.92 2.909-1.573 0-2.92-1.343-2.92-2.909.112-1.566 1.347-2.909 2.92-2.909zm-10.076 0c1.572 0 2.92 1.343 2.92 2.909 0 1.566-1.348 2.909-2.92 2.909-1.572 0-2.92-1.343-2.92-2.909.112-1.566 1.348-2.909 2.92-2.909zm-6.514 7.06c0 1.345 1.01 2.354 2.359 2.354h47.282c1.348 0 2.359-1.009 2.359-2.353v-8.294c0-1.344-1.01-2.353-2.359-2.353h-47.17c-1.348 0-2.359 1.009-2.359 2.353v8.294z"/></g><g opacity="-1"><path fill="#0a162f" d="M498.8 282.5h11.7v1.3h-11.7z"/></g><g opacity="-1"><path fill="#0a162f" d="M498.8 299.4h11.7v1.3h-11.7z"/></g><g opacity="-1"><path fill="#0a162f" d="M500.1 316.3h11.7v1.3h-11.7z"/></g></g></g><g opacity="-1"><g><g><text dominant-baseline="text-before-edge" style="line-height:28px;font-kerning:normal" fill="#45739e" font-family="Averta-Regular" font-size="14" letter-spacing="-.06" transform="translate(263 56)"><tspan style="line-height:28px;font-kerning:normal">Private Cloud</tspan></text></g></g><g><path fill="none" stroke="#45739e" stroke-miterlimit="20" stroke-width=".75" d="M353 72v0l2.188 2.402v0L353 76.804v0"/></g></g><g opacity=".9"><path fill="#45739e" d="M599 105.236C599 47.114 551.766-.003 493.5-.003S388 47.114 388 105.236c0 41.696 24.31 77.728 59.562 94.764 13.887-6.711 29.472-10.474 45.938-10.474s32.051 3.763 45.938 10.474C574.691 182.964 599 146.932 599 105.236z"/></g><g opacity="-1"><path fill="#45739e" d="M41 111h348v2H41z"/></g><g opacity="-1"><g><g><text dominant-baseline="text-before-edge" style="line-height:59px;font-kerning:normal" fill="#fff" font-family="Averta-Semibold" font-size="13" letter-spacing=".61" transform="translate(469 100)"><tspan style="line-height:59px;font-kerning:normal">CLOUD</tspan></text></g></g><g><g opacity="-1"><g><path fill="#fff" d="M502 55c11.149 0 19.309 8.952 20.125 18.75C529.565 75.96 535 82.843 535 91c0 9.941-8.059 18-18 18h-47c-10.169 0-17-6.67-17-15 0-6.966 4.906-13.81 12-15 0-12 11-17 19-13 3-6 9.452-11 18-11z"/></g></g></g></g><g opacity="-1"><g><g opacity="-1"><path fill="#45739e" d="M315.073 21.22c7.07 0 12.245 5.534 12.762 11.59 4.718 1.367 8.165 5.622 8.165 10.665 0 6.145-5.11 11.127-11.415 11.127H294.78c-6.448 0-10.78-4.124-10.78-9.273 0-4.306 3.111-8.537 7.61-9.273 0-7.418 6.975-10.509 12.049-8.036 1.902-3.71 5.994-6.8 11.414-6.8z"/></g></g></g><g opacity="-1"><g><g opacity="-1"><g><path fill="#94a3b0" d="M1115.72 336.14c4.486 0 7.77 3.465 8.099 7.258 2.993.856 5.181 3.52 5.181 6.677 0 3.849-3.243 6.968-7.244 6.968h-18.915c-4.092 0-6.841-2.582-6.841-5.806 0-2.697 1.974-5.346 4.83-5.807 0-4.645 4.426-6.58 7.646-5.032 1.207-2.323 3.804-4.258 7.244-4.258z"/></g></g></g><g><g opacity="-1"><path fill="#94a3b0" d="M1112.886 362.538c.928 0 1.724.77 1.724 1.668 0 .898-.796 1.667-1.724 1.667-.929 0-1.725-.77-1.725-1.667.067-.898.796-1.668 1.725-1.668zm-5.984 0c.928 0 1.724.77 1.724 1.668 0 .898-.796 1.667-1.724 1.667-.928 0-1.724-.77-1.724-1.667.066-.898.796-1.668 1.724-1.668zm-5.979 0c.932 0 1.73.77 1.73 1.668 0 .898-.798 1.667-1.73 1.667-.93 0-1.729-.77-1.729-1.667.067-.898.798-1.668 1.73-1.668zm-3.863 4.045c0 .77.6 1.349 1.4 1.349h28.07c.8 0 1.401-.579 1.401-1.35v-4.753c0-.77-.6-1.349-1.4-1.349h-28.004c-.8 0-1.4.578-1.4 1.349v4.754z"/></g><g opacity="-1"><path fill="#fff" d="M1118.35 363.68h6.387v1.065h-6.387z"/></g></g></g><g opacity="-1"><path fill="#45739e" d="M173 90h2v23h-2z"/></g><g opacity="-1"><g><g><text dominant-baseline="text-before-edge" style="line-height:28px;font-kerning:normal" fill="#45739e" font-family="Averta-Regular" font-size="14" letter-spacing="-.06" transform="translate(128 56)"><tspan style="line-height:28px;font-kerning:normal">Hybrid Cloud</tspan></text></g></g><g><path fill="none" stroke="#45739e" stroke-miterlimit="20" stroke-width=".75" d="M217 72v0l2.188 2.402v0L217 76.804v0"/></g></g><g opacity="-1"><path fill="#45739e" d="M42 90h2v23h-2z"/></g><g opacity="-1"><g><g><text dominant-baseline="text-before-edge" style="line-height:28px;font-kerning:normal" fill="#45739e" font-family="Averta-Regular" font-size="14" letter-spacing="-.06" transform="translate(-1 56)"><tspan style="line-height:28px;font-kerning:normal">Public Cloud</tspan></text></g></g><g><path fill="none" stroke="#45739e" stroke-miterlimit="20" stroke-width=".75" d="M83 72v0l2.188 2.402v0L83 76.804v0"/></g></g><g opacity="-1"><path fill="#94a3b0" d="M1116 328h-2v-23h2z"/></g><g opacity="-1"><path fill="#94a3b0" d="M999 326h-2v-23h2z"/></g><g opacity="-1"><path fill="#94a3b0" d="M874 326h-2v-23h2z"/></g><g opacity=".9"><path fill="#8999a8" d="M798 310.762C798 368.883 750.766 416 692.5 416S587 368.883 587 310.762c0-41.696 24.31-77.729 59.562-94.764 13.887 6.71 29.472 10.473 45.938 10.473s32.051-3.763 45.938-10.474C773.691 233.033 798 269.066 798 310.762z"/></g><g opacity="-1"><path fill="#94a3b0" d="M1114 305H794v-2h320z"/></g><g opacity="-1"><g><path fill="#fff" d="M694.497 307.61c-5.083 0-9.221-4.088-9.221-9.115s4.136-9.115 9.221-9.115c5.087 0 9.22 4.088 9.22 9.115s-4.133 9.115-9.22 9.115zm24.996-1.959l-4.77-2.723c.654-2.916.654-5.95 0-8.865l4.77-2.724a.994.994 0 0 0 .455-1.18 26.257 26.257 0 0 0-5.421-9.28 1.022 1.022 0 0 0-1.265-.204l-4.768 2.722a20.922 20.922 0 0 0-7.766-4.433v-5.439c0-.476-.338-.882-.807-.98a27.227 27.227 0 0 0-10.84 0c-.469.098-.807.504-.807.98v5.441a20.91 20.91 0 0 0-7.768 4.43l-4.77-2.719a1.02 1.02 0 0 0-1.263.204 26.27 26.27 0 0 0-5.421 9.28.99.99 0 0 0 .455 1.18l4.77 2.724a20.337 20.337 0 0 0 0 8.865l-4.77 2.723a.994.994 0 0 0-.455 1.18 26.256 26.256 0 0 0 5.421 9.28c.32.36.849.446 1.264.204l4.77-2.721a20.817 20.817 0 0 0 7.765 4.432v5.447c0 .474.338.88.808.979 1.78.366 3.605.546 5.421.546 1.816 0 3.64-.186 5.422-.546.47-.098.807-.505.807-.979v-5.447a20.833 20.833 0 0 0 7.766-4.432l4.768 2.721c.415.242.945.156 1.265-.204a26.3 26.3 0 0 0 5.421-9.28 1.002 1.002 0 0 0-.457-1.182z"/></g></g><g opacity="-1"><g><g><text dominant-baseline="text-before-edge" style="line-height:28px;font-kerning:normal" fill="#8999a8" font-family="Averta-Regular" font-size="14" letter-spacing="-.06" transform="translate(1081 369)"><tspan style="line-height:28px;font-kerning:normal">Migration</tspan></text></g></g><g><path fill="none" stroke="#8999a8" stroke-miterlimit="20" stroke-width=".75" d="M1146 385v0l2.188 2.402v0l-2.188 2.402v0"/></g></g><g opacity="-1"><g><g><text dominant-baseline="text-before-edge" style="line-height:28px;font-kerning:normal" fill="#8999a8" font-family="Averta-Regular" font-size="14" letter-spacing="-.06" transform="translate(952 368)"><tspan style="line-height:28px;font-kerning:normal">Management</tspan></text></g></g><g><path fill="none" stroke="#8999a8" stroke-miterlimit="20" stroke-width=".75" d="M1041 384v0l2.188 2.402v0l-2.188 2.402v0"/></g></g><g opacity="-1"><g><g><text dominant-baseline="text-before-edge" style="line-height:28px;font-kerning:normal" fill="#8999a8" font-family="Averta-Regular" font-size="14" letter-spacing="-.06" transform="translate(837 368)"><tspan style="line-height:28px;font-kerning:normal">Consulting</tspan></text></g></g><g><path fill="none" stroke="#8999a8" stroke-miterlimit="20" stroke-width=".75" d="M909 384v0l2.188 2.402v0L909 388.804v0"/></g></g><g opacity="-1"><path fill="#61839e" d="M1000 90h-2v23h2z"/></g><g opacity="-1"><path fill="#61839e" d="M876 90h-2v23h2z"/></g><g opacity=".8"><path fill="#396486" d="M691.5 211c-39.13 0-73.286-21.305-91.499-52.948 8.906-15.473 14-33.417 14-52.552 0-19.135-5.094-37.08-14-52.552C618.214 21.305 652.37 0 691.501 0 749.766 0 797 47.234 797 105.5S749.766 211 691.5 211z"/></g><g opacity="-1"><g><g opacity="-1"><g><path fill="#fff" d="M662.36 65a2 2 0 0 1 2-2h16.246a2 2 0 0 1 2 2v15.818a2 2 0 0 1-2 2H664.36a2 2 0 0 1-2-2z"/></g><g><path fill="#fff" d="M688.03 65a2 2 0 0 1 2-2h16.246a2 2 0 0 1 2 2v15.818a2 2 0 0 1-2 2H690.03a2 2 0 0 1-2-2z"/></g></g></g><g><g opacity="-1"><g><path fill="#fff" d="M662.36 89a2 2 0 0 1 2-2h16.246a2 2 0 0 1 2 2v15.818a2 2 0 0 1-2 2H664.36a2 2 0 0 1-2-2z"/></g><g><path fill="#fff" d="M688.03 89a2 2 0 0 1 2-2h16.246a2 2 0 0 1 2 2v15.818a2 2 0 0 1-2 2H690.03a2 2 0 0 1-2-2z"/></g></g></g><g><g opacity="-1"><g><path fill="#fff" d="M714.35 89a2 2 0 0 1 2-2H732a2 2 0 0 1 2 2v15.818a2 2 0 0 1-2 2h-15.65a2 2 0 0 1-2-2z"/></g></g></g></g><g opacity="-1"><path fill="#61839e" d="M1000 111H796v2h204z"/></g><g opacity="-1"><g><g><text dominant-baseline="text-before-edge" style="line-height:59px;font-kerning:normal" fill="#fff" font-family="Averta-Semibold" font-size="13" letter-spacing=".61" transform="translate(657 101)"><tspan style="line-height:59px;font-kerning:normal">CONTAINER</tspan></text></g></g></g><g opacity="-1"><g><path fill="#94a3b0" d="M997.7 347.871c-1.819 0-3.3-1.512-3.3-3.371s1.48-3.371 3.3-3.371c1.821 0 3.3 1.512 3.3 3.371s-1.479 3.371-3.3 3.371zm9.121-.807l-1.683-.977a7.38 7.38 0 0 0 0-3.178l1.683-.976a.359.359 0 0 0 .16-.423 9.447 9.447 0 0 0-1.913-3.327.357.357 0 0 0-.446-.073l-1.683.976a7.357 7.357 0 0 0-2.74-1.59v-1.95c0-.17-.12-.316-.286-.35a9.464 9.464 0 0 0-3.825 0 .359.359 0 0 0-.285.35v1.951a7.352 7.352 0 0 0-2.742 1.589l-1.683-.975a.356.356 0 0 0-.446.073 9.452 9.452 0 0 0-1.914 3.326.357.357 0 0 0 .161.424l1.683.976a7.403 7.403 0 0 0 0 3.178l-1.683.976a.359.359 0 0 0-.16.424 9.447 9.447 0 0 0 1.913 3.326c.113.13.3.16.446.073l1.683-.975a7.32 7.32 0 0 0 2.74 1.589v1.952c0 .17.12.316.286.351A9.374 9.374 0 0 0 998 354c.641 0 1.285-.067 1.914-.196a.359.359 0 0 0 .285-.35V351.5a7.325 7.325 0 0 0 2.74-1.59l1.683.976a.353.353 0 0 0 .447-.073 9.463 9.463 0 0 0 1.913-3.326.362.362 0 0 0-.161-.424z"/></g><g><g opacity="-1"><path fill="#94a3b0" d="M1010.72 361.467v-3.91h-11.89v-3.202h1.715v-2.629l.242-.077c.374-.125.694-.25.972-.394l.23-.113 1.891 1.866 2.888-2.85-1.885-1.86.115-.22c.157-.31.29-.632.398-.96l.079-.238h2.67v-4.03h-2.67l-.079-.239a6.646 6.646 0 0 0-.398-.954l-.115-.226 1.891-1.866-2.888-2.85-1.891 1.866-.23-.113a6.647 6.647 0 0 0-.972-.394l-.248-.089v-2.635h-4.084v2.635l-.242.077c-.374.126-.695.25-.973.394l-.23.113-1.89-1.866-2.888 2.85 1.885 1.86-.109.22a7.59 7.59 0 0 0-.399.966l-.078.239h-2.67v4.03h2.67l.078.238c.127.37.254.68.4.954l.114.227-1.891 1.865 2.888 2.85 1.89-1.866.23.113c.296.15.61.28.967.394l.242.077v2.635h1.667v3.202h-11.884v3.916c-1.009.167-1.788 1.032-1.788 2.075 0 1.163.96 2.11 2.139 2.11 1.178 0 2.138-.947 2.138-2.11 0-1.043-.773-1.908-1.788-2.075v-3.225h11.183v3.225c-.997.18-1.764 1.038-1.764 2.075 0 1.163.96 2.11 2.139 2.11 1.178 0 2.139-.947 2.139-2.11 0-1.055-.786-1.92-1.813-2.075v-3.225h11.19v3.231c-.992.185-1.74 1.044-1.74 2.07 0 1.162.96 2.11 2.138 2.11s2.139-.948 2.139-2.11c.006-1.062-.798-1.932-1.83-2.082z"/><path fill="none" stroke="#94a3b0" stroke-miterlimit="20" stroke-width=".5" d="M1010.72 361.467v-3.91 0h-11.89v0-3.202 0h1.715v0-2.629 0l.242-.077c.374-.125.694-.25.972-.394l.23-.113v0l1.891 1.866v0l2.888-2.85v0l-1.885-1.86v0l.115-.22c.157-.31.29-.632.398-.96l.079-.238v0h2.67v0-4.03 0h-2.67v0l-.079-.239a6.646 6.646 0 0 0-.398-.954l-.115-.226v0l1.891-1.866v0l-2.888-2.85v0l-1.891 1.866v0l-.23-.113a6.647 6.647 0 0 0-.972-.394l-.248-.089v0-2.635 0h-4.084v2.635l-.242.077c-.374.126-.695.25-.973.394l-.23.113v0l-1.89-1.866v0l-2.888 2.85v0l1.885 1.86v0l-.109.22a7.59 7.59 0 0 0-.399.966l-.078.239v0h-2.67v4.03h2.67v0l.078.238c.127.37.254.68.4.954l.114.227v0l-1.891 1.865v0l2.888 2.85v0l1.89-1.866v0l.23.113c.296.15.61.28.967.394l.242.077v2.635h1.667v3.202h-11.884v3.916c-1.009.167-1.788 1.032-1.788 2.075 0 1.163.96 2.11 2.139 2.11 1.178 0 2.138-.947 2.138-2.11 0-1.043-.773-1.908-1.788-2.075v-3.225 0h11.183v3.225c-.997.18-1.764 1.038-1.764 2.075 0 1.163.96 2.11 2.139 2.11 1.178 0 2.139-.947 2.139-2.11 0-1.055-.786-1.92-1.813-2.075v-3.225 0h11.19v3.231c-.992.185-1.74 1.044-1.74 2.07 0 1.162.96 2.11 2.138 2.11s2.139-.948 2.139-2.11c.006-1.062-.798-1.932-1.83-2.082z"/></g></g><g><path fill="#fff" d="M986 333h27v22h-27z"/></g><g><path fill="#94a3b0" d="M997.7 346.871c-1.819 0-3.3-1.512-3.3-3.371s1.48-3.371 3.3-3.371c1.821 0 3.3 1.512 3.3 3.371s-1.479 3.371-3.3 3.371zm9.121-.807l-1.683-.977a7.38 7.38 0 0 0 0-3.178l1.683-.976a.359.359 0 0 0 .16-.423 9.447 9.447 0 0 0-1.913-3.327.357.357 0 0 0-.446-.073l-1.683.976a7.357 7.357 0 0 0-2.74-1.59v-1.95c0-.17-.12-.316-.286-.35a9.464 9.464 0 0 0-3.825 0 .359.359 0 0 0-.285.35v1.951a7.352 7.352 0 0 0-2.742 1.589l-1.683-.975a.356.356 0 0 0-.446.073 9.452 9.452 0 0 0-1.914 3.326.357.357 0 0 0 .161.424l1.683.976a7.403 7.403 0 0 0 0 3.178l-1.683.976a.359.359 0 0 0-.16.424 9.447 9.447 0 0 0 1.913 3.326c.113.13.3.16.446.073l1.683-.975a7.32 7.32 0 0 0 2.74 1.589v1.952c0 .17.12.316.286.351A9.374 9.374 0 0 0 998 353c.641 0 1.285-.067 1.914-.196a.359.359 0 0 0 .285-.35V350.5a7.325 7.325 0 0 0 2.74-1.59l1.683.976a.353.353 0 0 0 .447-.073 9.463 9.463 0 0 0 1.913-3.326.362.362 0 0 0-.161-.424z"/></g></g><g opacity="-1"><g><path fill="none" stroke="#61839e" stroke-miterlimit="20" stroke-width=".75" d="M1035 72v0l2.188 2.402v0L1035 76.804v0"/></g></g><g opacity="-1"><g><text dominant-baseline="text-before-edge" style="line-height:28px;font-kerning:normal" fill="#61839e" font-family="Averta-Regular" font-size="14" letter-spacing="-.06" transform="translate(849 56)"><tspan style="line-height:28px;font-kerning:normal">Docker</tspan></text></g></g><g opacity="-1"><path fill="none" stroke="#61839e" stroke-miterlimit="20" stroke-width=".75" d="M898 72v0l2 2.5v0l-2 2.5v0"/></g><g opacity="-1"><g><g opacity="-1"><path fill="#0a162f" d="M592.5 198.12c-1.062 0-1.923.884-1.923 1.975v8.886h-8.654c-1.062 0-1.923.884-1.923 1.974 0 1.091.861 1.975 1.923 1.975h8.654v8.886c0 1.09.86 1.975 1.923 1.975 1.062 0 1.923-.884 1.923-1.975v-8.886h8.654c1.062 0 1.923-.884 1.923-1.975 0-1.09-.861-1.974-1.923-1.974h-8.654v-8.886c0-1.09-.86-1.975-1.923-1.975z"/></g></g></g><g opacity="-1"><g><text dominant-baseline="text-before-edge" style="line-height:59px;font-kerning:normal" fill="#fff" font-family="Averta-Semibold" font-size="13" letter-spacing=".61" transform="translate(661 314)"><tspan style="line-height:59px;font-kerning:normal">SERVICES</tspan></text></g></g><g opacity="-1"><g><path fill="#61839e" d="M997.968 43.95a.844.844 0 0 1 .398.084c.169.08.3.209.382.362h.018l2.456 4.426c-.319.106-.646.197-.982.273-1.878.426-3.75.297-5.445-.28l2.45-4.417h.003a.852.852 0 0 1 .72-.449zm-4.209-2.039a.85.85 0 0 1 .77 1.183l.014.018-1.93 4.653a9.972 9.972 0 0 1-4.01-5.006l4.981-.844.008.01a.864.864 0 0 1 .167-.014zm8.44-.02a.848.848 0 0 1 .196.014l.009-.01 5.025.847a9.93 9.93 0 0 1-4.023 5.041l-1.951-4.7.006-.008a.849.849 0 0 1 .738-1.184zm-4.975-4.118h1.558l.967 1.207-.347 1.506-1.398.67-1.402-.672-.348-1.506zm10.522-.61c.251 1.088.314 2.175.21 3.226l-4.882-1.403-.004-.02a.849.849 0 0 1-.334-1.458l-.003-.01 3.77-3.365c.563.91.99 1.927 1.243 3.03zm-18.278-3.032l3.79 3.38-.004.021a.846.846 0 0 1-.334 1.459l-.004.016-4.858 1.399a9.893 9.893 0 0 1 1.41-6.275zm9.741-4.665c2.196.27 4.227 1.26 5.782 2.78l-4.124 2.917-.014-.006a.853.853 0 0 1-1.353-.648l-.004-.002zm-2.418 0l-.287 5.05-.02.01a.85.85 0 0 1-1.351.65l-.009.003-4.15-2.934a9.949 9.949 0 0 1 4.788-2.602c.343-.078.687-.136 1.029-.177zM997.999 22c-.533 0-.965.479-.965 1.07l.002.026c0 .08-.005.177-.002.247.013.34.087.601.132.915.081.672.15 1.229.107 1.746-.04.196-.185.374-.313.498l-.023.407a12.59 12.59 0 0 0-1.744.268 12.422 12.422 0 0 0-6.306 3.593 16.22 16.22 0 0 1-.349-.247c-.172.023-.346.076-.573-.055-.432-.29-.825-.69-1.301-1.173-.218-.23-.376-.45-.635-.672-.06-.05-.149-.12-.215-.171a1.15 1.15 0 0 0-.672-.253.93.93 0 0 0-.77.34c-.331.415-.225 1.05.238 1.418l.014.01c.064.052.142.118.2.161.275.203.527.306.8.467.578.356 1.056.65 1.436 1.006.148.157.174.435.194.555l.309.276a12.43 12.43 0 0 0-1.97 8.683l-.404.117c-.106.138-.257.354-.414.418-.497.156-1.055.213-1.73.284-.317.026-.59.01-.926.074-.074.014-.177.04-.258.06-.003 0-.005 0-.008.002-.004 0-.01.003-.014.004-.57.137-.935.658-.817 1.172.118.514.673.826 1.246.703.004 0 .01 0 .014-.002l.018-.006c.08-.017.18-.037.25-.055.33-.089.57-.218.866-.332.639-.228 1.167-.419 1.683-.493.215-.017.442.132.554.195l.421-.072a12.533 12.533 0 0 0 5.566 6.931l-.176.42c.063.163.133.383.086.544-.187.485-.508.996-.873 1.566-.177.264-.358.468-.518.77-.038.072-.087.182-.124.259-.248.529-.066 1.139.41 1.367.48.23 1.075-.012 1.333-.543l.002-.002v-.002c.036-.075.088-.174.12-.245.136-.312.182-.58.278-.882.255-.64.395-1.31.747-1.73.096-.114.253-.158.416-.201l.218-.395a12.5 12.5 0 0 0 8.906.023c.062.108.176.317.207.37.165.053.345.081.492.298.263.448.443.978.662 1.619.097.302.144.57.28.882.032.071.084.171.12.247.257.532.854.776 1.335.545.476-.23.658-.839.41-1.368-.037-.076-.088-.187-.126-.259-.16-.301-.34-.504-.517-.767-.366-.57-.669-1.044-.856-1.528-.079-.25.013-.406.074-.568-.037-.042-.115-.278-.16-.389a12.532 12.532 0 0 0 5.563-6.98c.125.02.342.058.412.072.145-.096.279-.22.54-.2.516.075 1.044.265 1.683.494.297.113.536.245.866.333.07.019.17.036.25.054l.018.006c.004 0 .01 0 .015.002.572.123 1.127-.19 1.245-.704.118-.513-.248-1.035-.817-1.172-.082-.019-.2-.05-.28-.066-.336-.063-.61-.048-.926-.074-.675-.07-1.233-.128-1.73-.284-.202-.078-.346-.318-.416-.417l-.39-.113a12.4 12.4 0 0 0-.202-4.494 12.444 12.444 0 0 0-1.809-4.17l.343-.306c.015-.172.002-.353.181-.545.38-.355.858-.65 1.435-1.005.274-.161.527-.265.802-.467.063-.046.147-.119.213-.171.463-.368.57-1.004.237-1.42-.332-.415-.976-.454-1.44-.086-.065.052-.155.12-.214.171-.259.222-.419.442-.637.673-.476.482-.87.884-1.301 1.174-.187.109-.461.071-.586.064l-.367.261a12.66 12.66 0 0 0-8.011-3.86c-.009-.129-.02-.36-.023-.43-.125-.12-.277-.223-.315-.482-.042-.517.028-1.074.11-1.746.044-.314.118-.574.131-.915.003-.077-.002-.19-.002-.273 0-.591-.432-1.07-.965-1.07z"/><path fill="none" stroke="#fff" stroke-miterlimit="20" stroke-width=".25" d="M997.968 43.95a.844.844 0 0 1 .398.084c.169.08.3.209.382.362h.018l2.456 4.426c-.319.106-.646.197-.982.273-1.878.426-3.75.297-5.445-.28l2.45-4.417h.003a.852.852 0 0 1 .72-.449zm-4.209-2.039a.85.85 0 0 1 .77 1.183l.014.018-1.93 4.653a9.972 9.972 0 0 1-4.01-5.006l4.981-.844.008.01a.864.864 0 0 1 .167-.014zm8.44-.02a.848.848 0 0 1 .196.014l.009-.01 5.025.847a9.93 9.93 0 0 1-4.023 5.041l-1.951-4.7.006-.008a.849.849 0 0 1 .738-1.184zm-4.975-4.118h1.558l.967 1.207-.347 1.506-1.398.67-1.402-.672-.348-1.506zm10.522-.61c.251 1.088.314 2.175.21 3.226l-4.882-1.403-.004-.02a.849.849 0 0 1-.334-1.458l-.003-.01 3.77-3.365c.563.91.99 1.927 1.243 3.03zm-18.278-3.032l3.79 3.38-.004.021a.846.846 0 0 1-.334 1.459l-.004.016-4.858 1.399a9.893 9.893 0 0 1 1.41-6.275zm9.741-4.665c2.196.27 4.227 1.26 5.782 2.78l-4.124 2.917-.014-.006a.853.853 0 0 1-1.353-.648l-.004-.002zm-2.418 0l-.287 5.05-.02.01a.85.85 0 0 1-1.351.65l-.009.003-4.15-2.934a9.949 9.949 0 0 1 4.788-2.602c.343-.078.687-.136 1.029-.177zM997.999 22c-.533 0-.965.479-.965 1.07l.002.026c0 .08-.005.177-.002.247.013.34.087.601.132.915.081.672.15 1.229.107 1.746-.04.196-.185.374-.313.498l-.023.407a12.59 12.59 0 0 0-1.744.268 12.422 12.422 0 0 0-6.306 3.593 16.22 16.22 0 0 1-.349-.247c-.172.023-.346.076-.573-.055-.432-.29-.825-.69-1.301-1.173-.218-.23-.376-.45-.635-.672-.06-.05-.149-.12-.215-.171a1.15 1.15 0 0 0-.672-.253.93.93 0 0 0-.77.34c-.331.415-.225 1.05.238 1.418l.014.01c.064.052.142.118.2.161.275.203.527.306.8.467.578.356 1.056.65 1.436 1.006.148.157.174.435.194.555l.309.276a12.43 12.43 0 0 0-1.97 8.683l-.404.117c-.106.138-.257.354-.414.418-.497.156-1.055.213-1.73.284-.317.026-.59.01-.926.074-.074.014-.177.04-.258.06-.003 0-.005 0-.008.002-.004 0-.01.003-.014.004-.57.137-.935.658-.817 1.172.118.514.673.826 1.246.703.004 0 .01 0 .014-.002l.018-.006c.08-.017.18-.037.25-.055.33-.089.57-.218.866-.332.639-.228 1.167-.419 1.683-.493.215-.017.442.132.554.195l.421-.072a12.533 12.533 0 0 0 5.566 6.931l-.176.42c.063.163.133.383.086.544-.187.485-.508.996-.873 1.566-.177.264-.358.468-.518.77-.038.072-.087.182-.124.259-.248.529-.066 1.139.41 1.367.48.23 1.075-.012 1.333-.543l.002-.002v-.002c.036-.075.088-.174.12-.245.136-.312.182-.58.278-.882.255-.64.395-1.31.747-1.73.096-.114.253-.158.416-.201l.218-.395a12.5 12.5 0 0 0 8.906.023c.062.108.176.317.207.37.165.053.345.081.492.298.263.448.443.978.662 1.619.097.302.144.57.28.882.032.071.084.171.12.247.257.532.854.776 1.335.545.476-.23.658-.839.41-1.368-.037-.076-.088-.187-.126-.259-.16-.301-.34-.504-.517-.767-.366-.57-.669-1.044-.856-1.528-.079-.25.013-.406.074-.568-.037-.042-.115-.278-.16-.389a12.532 12.532 0 0 0 5.563-6.98c.125.02.342.058.412.072.145-.096.279-.22.54-.2.516.075 1.044.265 1.683.494.297.113.536.245.866.333.07.019.17.036.25.054l.018.006c.004 0 .01 0 .015.002.572.123 1.127-.19 1.245-.704.118-.513-.248-1.035-.817-1.172-.082-.019-.2-.05-.28-.066-.336-.063-.61-.048-.926-.074-.675-.07-1.233-.128-1.73-.284-.202-.078-.346-.318-.416-.417l-.39-.113a12.4 12.4 0 0 0-.202-4.494 12.444 12.444 0 0 0-1.809-4.17l.343-.306c.015-.172.002-.353.181-.545.38-.355.858-.65 1.435-1.005.274-.161.527-.265.802-.467.063-.046.147-.119.213-.171.463-.368.57-1.004.237-1.42-.332-.415-.976-.454-1.44-.086-.065.052-.155.12-.214.171-.259.222-.419.442-.637.673-.476.482-.87.884-1.301 1.174-.187.109-.461.071-.586.064l-.367.261a12.66 12.66 0 0 0-8.011-3.86c-.009-.129-.02-.36-.023-.43-.125-.12-.277-.223-.315-.482-.042-.517.028-1.074.11-1.746.044-.314.118-.574.131-.915.003-.077-.002-.19-.002-.273 0-.591-.432-1.07-.965-1.07z"/></g></g><g opacity="-1"><g><g opacity="-1"><path fill="#61839e" d="M870.713 26.61H866.9v3.403c1.191.034 2.485.103 3.813.138z"/></g><g opacity="-1"><path fill="#61839e" d="M875.513 30.322V26.61H871.7v3.575c1.191.069 2.417.103 3.677.172h.136z"/></g><g opacity="-1"><path fill="#61839e" d="M876.46 26.61h3.813v3.747h-3.813z"/></g><g opacity="-1"><path fill="#61839e" d="M866.9 22h3.813v3.747H866.9z"/></g><g opacity="-1"><path fill="#61839e" d="M871.73 22h3.813v3.747h-3.813z"/></g><g opacity="-1"><path fill="#61839e" d="M875.75 51.7c-.477.516-1.226.86-2.11.86h-.205l-.136.171c-.647.79-2.179 1.478-3.677 1.272-1.09-.137-1.94-.653-2.349-1.375l-.204-.344-.374.138c-.205.069-.852.137-1.192-.034-.34-.138-1.362-.722-1.294-1.925.069-.86.681-1.479 1.498-1.547l.443-.035v-.447c0-.137 0-.275.034-.412.17-1.306 1.43-2.2 2.791-1.994a2.53 2.53 0 0 1 1.873 1.272l.204.378.374-.172c.17-.068.375-.103.58-.103.68 0 1.259.481 1.395 1.135l.102.446.443-.103c.578-.103 1.123 0 1.566.344.408.31.646.756.68 1.238.034.446-.136.893-.442 1.237zm-8.613-8.808c-1.396-.618-3.234-1.578-4.8-3.361.477.068.987.137 1.498.137 1.43 1.475 3.54 2.88 5.89 3.327-1.873-.72-3.405-1.51-4.869-3.327.34 0 .647-.034.987-.069 1.737 1.68 4.256 3.156 6.026 3.533-1.634-.755-3.745-2.092-5.106-3.636.408-.068.783-.137 1.191-.24 1.226 1.647 4.29 4.047 7.728 4.219-4.051.583-7.353-.069-8.545-.583zm2.719-5.148c.44 0 .778.346.778.795 0 .45-.339.796-.778.796a.774.774 0 0 1-.778-.796c-.034-.415.338-.795.778-.795zm19.307 4.537c-.851-.618-1.805-.893-2.622-.687a4.741 4.741 0 0 0-1.498-1.616c2.281-1.89 3.813-4.262 4.188-6.772.442-2.819-.817-5.672-1.226-6.497 1.158-.722 1.77-1.34 1.975-2.165.238-.997-.375-2.166-.885-2.544-.035.584-.273.962-.817 1.375-.443.344-1.532.653-1.635 1.719-.748-.207-1.463.378-1.94.584-.51.206-1.294.31-1.702.275.272.825.579 1.444 1.464 1.753.749.275 1.702-.172 2.757-.584.204.31.477 1.925.204 2.819-.442 1.375-3.744 1.512-9.906 1.306-9.225-.275-17.974-1.238-18.213.894-.136 1.065-.204 3.265 1.226 5.946 1.838 3.438 6.025 6.016 11.336 6.12a21.287 21.287 0 0 0 4.732-.413c1.123.584 2.145 1.065 3.234 1.34 1.804.482 3.404.344 4.085.035.68-.31 0-.55-.647-.653-.612-.104-2.144-1.238-3.744-1.513 1.838-.653 3.506-1.547 4.902-2.612.783.48 1.361 1.134 1.566 1.718l.136.378.374-.137c.647-.24 1.498-.069 2.247.481.851.619 1.328 1.547 1.26 2.44-.068.929-.443 1.72-1.09 2.235-.817.619-2.008.86-3.37.585l-.442-.07-.034.448c0 .275-.239.55-.58.756-.51.31-1.123.378-1.531.172l-.272-.138-.205.31c-.68.928-1.872 1.443-3.268 1.41-.783-.035-1.532-.242-2.144-.585a2.612 2.612 0 0 0-1.056-1.89 2.67 2.67 0 0 0-1.906-.55c-.375-.86-1.192-1.445-2.145-1.445-.204 0-.374 0-.545.07a3.515 3.515 0 0 0-2.348-1.41c-1.226-.172-2.35.275-3.098 1.134-.477-.24-.92-.619-1.192-1.1-.204-.378-.476-1.134 0-1.994l-.68-.412c-.511.86-.511 1.856 0 2.75.34.584.816 1.065 1.43 1.375-.171.31-.273.653-.341 1.031 0 .069 0 .103-.034.172-1.09.275-1.839 1.203-1.94 2.337-.103 1.444.884 2.441 1.838 2.854.476.206 1.089.24 1.565.137.613.825 1.635 1.375 2.86 1.513.204.034.409.034.647.034.647 0 1.328-.138 1.94-.344.715-.275 1.362-.653 1.805-1.134 1.055-.069 1.974-.481 2.587-1.169a2.74 2.74 0 0 0 .613-1.1c.646.31 1.395.481 2.178.516h.205c1.43 0 2.689-.55 3.54-1.478.613.171 1.362.068 1.974-.31.409-.24.715-.584.851-.962 1.43.172 2.69-.103 3.609-.79.817-.654 1.294-1.617 1.396-2.785 0-1.203-.613-2.407-1.668-3.163z"/></g></g></g><g opacity="-1"><g><path fill="#fff" d="M312.348 37.606v2.116h-3.685v-2.116c0-1.024.825-1.854 1.842-1.854 1.017 0 1.843.83 1.843 1.854zM315 45.48v-5.24a.516.516 0 0 0-.514-.519h-.514v-2.22c0-1.934-1.555-3.502-3.472-3.502s-3.471 1.568-3.471 3.502v2.22h-.515a.516.516 0 0 0-.514.519v5.24c0 .287.23.519.514.519h7.972a.516.516 0 0 0 .514-.52z"/></g></g><g opacity="-1"><g><g opacity="-1"><path fill="#45739e" d="M48.073 21.22c7.07 0 12.245 5.534 12.762 11.59C65.553 34.178 69 38.433 69 43.476c0 6.145-5.11 11.127-11.415 11.127H27.78c-6.448 0-10.78-4.124-10.78-9.273 0-4.306 3.111-8.537 7.61-9.273 0-7.418 6.975-10.509 12.049-8.036 1.902-3.71 5.994-6.8 11.414-6.8z"/></g></g></g><g opacity="-1"><g><g opacity="-1"><path fill="#45739e" d="M179.073 21.22c7.07 0 12.245 5.534 12.762 11.59 4.718 1.367 8.165 5.622 8.165 10.665 0 6.145-5.11 11.127-11.415 11.127H158.78c-6.448 0-10.78-4.124-10.78-9.273 0-4.306 3.111-8.537 7.61-9.273 0-7.418 6.975-10.509 12.049-8.036 1.902-3.71 5.994-6.8 11.414-6.8z"/></g></g></g><g opacity="-1"><g><path fill="#fff" d="M44.348 37.606v2.116h-3.685v-2.116c0-1.024.825-1.854 1.842-1.854 1.017 0 1.843.83 1.843 1.854zM47 45.48v-5.24a.516.516 0 0 0-.514-.519h-.514v-2.22c0-1.934-1.555-3.502-3.472-3.502s-3.471 1.568-3.471 3.502v2.22h-.515a.516.516 0 0 0-.514.519v5.24c0 .287.23.519.514.519h7.972a.516.516 0 0 0 .514-.52z"/></g></g><g opacity="-1"><path fill="#45739e" d="M44 37h3v3h-3z"/></g><g opacity="-1"><g><path fill="#fff" d="M182.76 44.651a1 1 0 0 1-1.41.11l-5.35-4.59v15.83a1 1 0 0 1-2 0v-15.83l-5.35 4.59a1 1 0 0 1-1.3-1.52l7-6a1.29 1.29 0 0 1 .16-.09l.12-.08a1 1 0 0 1 .74 0l.12.08c.055.026.109.056.16.09l7 6a1 1 0 0 1 .11 1.41z"/><path fill="none" stroke="#fff" stroke-miterlimit="20" d="M182.76 44.651a1 1 0 0 1-1.41.11l-5.35-4.59v15.83a1 1 0 0 1-2 0v-15.83 0l-5.35 4.59a1 1 0 0 1-1.3-1.52l7-6a1.29 1.29 0 0 1 .16-.09l.12-.08a1 1 0 0 1 .74 0l.12.08c.055.026.109.056.16.09l7 6a1 1 0 0 1 .11 1.41z"/></g></g><g opacity="-1"><g><g opacity="-1"><path fill="#0a162f" d="M176.815 361.525c.753 0 1.399.64 1.399 1.386 0 .746-.646 1.385-1.4 1.385-.752 0-1.398-.639-1.398-1.385.054-.746.646-1.386 1.399-1.386zm-4.84 0c.757 0 1.405.64 1.405 1.386 0 .746-.648 1.385-1.404 1.385-.756 0-1.404-.639-1.404-1.385.054-.746.648-1.386 1.404-1.386zm-4.843 0c.756 0 1.404.64 1.404 1.386 0 .746-.648 1.385-1.404 1.385-.756 0-1.404-.639-1.404-1.385.054-.746.648-1.386 1.404-1.386zM164 364.883c0 .64.486 1.119 1.134 1.119h22.732c.648 0 1.134-.48 1.134-1.12v-3.943c0-.64-.486-1.119-1.134-1.119h-22.678c-.648 0-1.134.48-1.134 1.12v3.943z"/></g><g opacity="-1"><path fill="#fff" d="M180.88 362.91h5.625v.618h-5.625z"/></g></g><g><path fill="#0a162f" d="M164 333.25c0-.69.56-1.25 1.25-1.25h22.5c.69 0 1.25.56 1.25 1.25v25.538h-25z"/></g></g><g opacity="-1"><g><path fill="#fff" d="M184.227 339.556h-8.956l-1.313-1.33a.77.77 0 0 0-.549-.226h-4.636a.775.775 0 0 0-.773.778v12.444c0 .43.346.778.773.778h15.454a.775.775 0 0 0 .773-.778v-10.889a.775.775 0 0 0-.773-.777z"/></g></g><g opacity="-1"><g><path fill="#94a3b0" d="M882.423 345.375h-19.691c-.617 0-1.117-.514-1.117-1.15 0-.634.5-1.148 1.117-1.148h19.691c.617 0 1.115.514 1.115 1.148 0 .636-.498 1.15-1.115 1.15zm0 5.769h-19.691c-.617 0-1.117-.515-1.117-1.15 0-.634.5-1.148 1.117-1.148h19.691c.617 0 1.115.514 1.115 1.149 0 .634-.498 1.149-1.115 1.149zM883.06 335h-22.12c-2.176 0-3.94 1.732-3.94 3.869V365l6.22-6.108h19.84c2.178 0 3.94-1.732 3.94-3.87V338.87c0-2.137-1.762-3.869-3.94-3.869z"/></g></g><g opacity="-1"><g><g opacity="-1"><path fill="#0a162f" d="M312.815 361.525c.753 0 1.399.64 1.399 1.386 0 .746-.646 1.385-1.4 1.385-.752 0-1.398-.639-1.398-1.385.054-.746.646-1.386 1.399-1.386zm-4.84 0c.757 0 1.405.64 1.405 1.386 0 .746-.648 1.385-1.404 1.385-.756 0-1.404-.639-1.404-1.385.054-.746.648-1.386 1.404-1.386zm-4.843 0c.756 0 1.404.64 1.404 1.386 0 .746-.648 1.385-1.404 1.385-.756 0-1.404-.639-1.404-1.385.054-.746.648-1.386 1.404-1.386zM300 364.883c0 .64.486 1.119 1.134 1.119h22.732c.648 0 1.134-.48 1.134-1.12v-3.943c0-.64-.486-1.119-1.134-1.119h-22.678c-.648 0-1.134.48-1.134 1.12v3.943z"/></g><g opacity="-1"><path fill="#fff" d="M316.88 362.91h5.625v.618h-5.625z"/></g></g></g><g opacity="-1"><path fill="#0a162f" d="M325 333.132v25.658h-25v-25.658c0-.604.51-1.132 1.093-1.132h22.887c.583 0 1.02.528 1.02 1.132zm-4.81 12.225c0-4.452-3.499-7.999-7.726-7.999-4.3 0-7.726 3.622-7.726 8 0 .377.364.754.728.754.438 0 .73-.377.73-.755 0-3.622 2.842-6.49 6.268-6.49 3.498 0 6.268 2.943 6.268 6.49 0 3.623-2.843 6.49-6.268 6.49a6.125 6.125 0 0 1-4.738-2.264h2.26c.364 0 .728-.377.728-.754 0-.378-.364-.755-.729-.755h-3.863s-.072.075-.145.075-.146 0-.146.076c0 .075-.073.15-.073.15 0 .076-.073.152-.073.227v4c0 .377.365.755.729.755s.729-.378.729-.755v-1.51c1.458 1.434 3.353 2.265 5.393 2.265 4.228 0 7.654-3.547 7.654-8z"/></g></g></svg>