<svg width="60" height="60" viewBox="0 0 60 60" fill="none" xmlns="http://www.w3.org/2000/svg">
<path d="M57.1134 41.6062L49.8489 37.6489C47.2495 36.233 43.9901 37.0976 42.4451 39.6128L40.0343 43.5373C39.7557 43.991 39.2265 44.2137 38.6997 44.1228C34.5456 43.4058 28.7851 40.377 23.7461 35.3657C19.4102 31.0535 16.3496 23.6384 15.3029 20.8571C15.0699 20.2379 15.3579 19.5512 15.9604 19.2714L19.6696 17.548C22.5739 16.1986 23.7285 12.6902 22.1886 9.89413L18.32 2.86961C16.8651 0.228046 13.5498 -0.766351 10.8689 0.63474L3.30521 4.58793C1.80423 5.37242 0.751619 6.79585 0.42447 8.45042C-1.90573 20.2401 5.70987 35.3924 14.6624 44.2957C23.937 53.5196 42 63.6438 51.6797 58.7032C52.9027 58.0791 54.13 57.4581 54.8527 56.2952C55.9313 54.5598 57.6573 51.7827 59.1702 49.3484C60.8422 46.6579 59.9027 43.1255 57.1134 41.6062Z" fill="white"/>
</svg>
