<svg width="60" height="60" viewBox="0 0 60 60" fill="none" xmlns="http://www.w3.org/2000/svg">
<path fill-rule="evenodd" clip-rule="evenodd" d="M23.9026 2.25531C25.2996 1.13182 27.2504 0 30.0073 0C32.7642 0 34.7004 1.13182 36.0974 2.25531C36.3672 2.47226 36.6223 2.68537 36.8713 2.89342C37.912 3.76276 38.8468 4.54376 40.3052 5.14767C41.7423 5.74281 42.9345 5.84574 44.2589 5.96008C44.6 5.98953 44.9499 6.01974 45.3149 6.05931C47.0974 6.25251 49.2615 6.83797 51.2109 8.78692C53.1604 10.7359 53.746 12.9141 53.9392 14.6961C53.9768 15.0429 54.0065 15.376 54.0355 15.7009C54.1554 17.0454 54.2628 18.2494 54.8657 19.7047C55.4698 21.1627 56.251 22.0973 57.1206 23.1377C57.3287 23.3867 57.5418 23.6417 57.7588 23.9114C58.8826 25.3081 60 27.2438 60 30C60 32.7562 58.8825 34.7065 57.7588 36.1032C57.5343 36.3823 57.3139 36.6451 57.0989 36.9013C56.238 37.9276 55.4648 38.8494 54.8657 40.2953C54.2635 41.7489 54.1557 42.9613 54.0359 44.3076C54.0068 44.6349 53.977 44.97 53.9392 45.3185C53.7459 47.1006 53.1603 49.2641 51.2109 51.2131C49.2615 53.162 47.0974 53.7475 45.3149 53.9407C44.968 53.9783 44.6348 54.008 44.3099 54.037C42.9651 54.1568 41.7607 54.2642 40.3052 54.867C38.8468 55.4709 37.912 56.2519 36.8713 57.1212C36.6223 57.3293 36.3672 57.5424 36.0974 57.7593C34.7004 58.8828 32.7642 60 30.0073 60C27.2504 60 25.2996 58.8828 23.9026 57.7593C23.6328 57.5424 23.3778 57.3293 23.1288 57.1213C22.0881 56.2519 21.1532 55.4709 19.6948 54.867C18.2392 54.2642 17.0349 54.1568 15.6901 54.037C15.3651 54.008 15.032 53.9783 14.6851 53.9407C12.9025 53.7475 10.7385 53.162 8.78906 51.2131C6.83964 49.2641 6.2577 47.1006 6.06444 45.3185C6.02717 44.9747 5.99751 44.6439 5.96856 44.3208C5.84742 42.9692 5.73847 41.7537 5.13427 40.2953C4.53522 38.8495 3.76198 37.9276 2.90111 36.9013C2.68616 36.6451 2.46574 36.3823 2.24121 36.1032C1.11744 34.7065 0 32.7562 0 30C0 27.2438 1.11744 25.3081 2.24121 23.9114C2.45821 23.6417 2.67137 23.3867 2.87946 23.1377C3.74901 22.0973 4.53021 21.1626 5.13427 19.7047C5.73919 18.2447 5.84767 17.0376 5.96896 15.6879C5.99779 15.3671 6.02734 15.0383 6.06444 14.6961C6.2577 12.9141 6.8397 10.7359 8.78906 8.78692C10.7385 6.83797 12.9026 6.25251 14.6851 6.05931C15.0501 6.01974 15.4 5.98953 15.7411 5.96008C17.0655 5.84574 18.2577 5.74281 19.6948 5.14767C21.1532 4.54373 22.0881 3.76269 23.1288 2.89331C23.3778 2.68529 23.6329 2.47222 23.9026 2.25531ZM42.8501 22.1393C42.5488 21.4285 41.8465 20.9767 41.0807 21.0009C40.5986 21.0164 40.1412 21.2202 39.8051 21.5692L26.0283 35.4687L20.2065 29.5914C19.7411 29.0998 19.0487 28.9005 18.3963 29.0702C17.7439 29.2399 17.2334 29.7521 17.0616 30.4094C16.8898 31.0667 17.0835 31.7663 17.5681 32.2385L24.7091 39.4467C25.0584 39.8009 25.5331 40 26.0283 40C26.5235 40 26.9982 39.8009 27.3475 39.4467L42.4435 24.2164C42.9899 23.6745 43.1513 22.8501 42.8501 22.1393Z" fill="white"/>
</svg>
