<svg width="57" height="57" viewBox="0 0 57 57" fill="none" xmlns="http://www.w3.org/2000/svg">
<path fill-rule="evenodd" clip-rule="evenodd" d="M0 28.5C0 12.825 12.825 0 28.5 0C44.175 0 57 12.825 57 28.5C57 44.175 44.175 57 28.5 57C12.825 57 0 44.175 0 28.5ZM45.6 38C46.36 38 47.025 37.62 47.31 36.86C47.785 35.91 47.31 34.77 46.36 34.39L30.4 27.265V11.4C30.4 10.355 29.545 9.5 28.5 9.5C27.455 9.5 26.6 10.355 26.6 11.4V28.5C26.6 28.88 26.695 29.26 26.885 29.545L27.17 29.83C27.36 30.02 27.55 30.115 27.74 30.21L44.84 37.81C45.125 38 45.315 38 45.6 38Z" fill="white"/>
</svg>
