<?xml version="1.0" encoding="UTF-8"?>
<svg width="1149px" height="416px" viewBox="0 0 1149 416" version="1.1" xmlns="http://www.w3.org/2000/svg" xmlns:xlink="http://www.w3.org/1999/xlink">
    <!-- Generator: Sketch 64 (93537) - https://sketch.com -->
    <title>Group 31</title>
    <desc>Created with Sketch.</desc>
    <g id="Final-Designs" stroke="none" stroke-width="1" fill="none" fill-rule="evenodd">
        <g id="Startseite_v1_final" transform="translate(-130.000000, -2580.000000)">
            <g id="Group-31" transform="translate(129.000000, 2580.000000)">
                <path d="M493.88445,205.000568 C533.03866,205.000568 567.154441,226.817941 584.994977,259.088096 C576.411543,274.413583 571.512895,292.126833 571.512895,310.997234 C571.512895,329.662862 576.305804,347.196317 584.714818,362.407413 C566.803847,394.406174 532.83755,416 493.88445,416 C436.273662,416 389.57089,368.766168 389.57089,310.500284 C389.57089,308.65531 389.617717,306.821398 389.710234,304.999696 L389.710234,304.999696 L176.57089,305.000299 L176.57089,303.000299 L389.830444,302.999819 C393.633998,248.234236 438.767108,205.000568 493.88445,205.000568 Z" id="Combined-Shape" fill="#0A162F"></path>
                <rect id="Rectangle" fill="#45739E" x="310" y="90" width="2" height="23"></rect>
                <g id="Group-26" transform="translate(127.000000, 368.000000)">
                    <text id="Object-Storage" font-family="Helvetica" font-size="14" font-weight="normal" line-spacing="28" letter-spacing="-0.0608695652" fill="#0A162F">
                        <tspan x="0" y="14">Object Storage</tspan>
                    </text>
                    <polyline id="Path-2" stroke="#0A162F" stroke-width="0.75" transform="translate(101.093750, 18.401961) scale(-1, 1) translate(-101.093750, -18.401961) " points="102.1875 16 100 18.4019608 102.1875 20.8039216"></polyline>
                </g>
                <g id="Group-26" transform="translate(259.000000, 368.000000)">
                    <text id="Backup-Storage" font-family="Helvetica" font-size="14" font-weight="normal" line-spacing="28" letter-spacing="-0.0608695652" fill="#0A162F">
                        <tspan x="0" y="14">Backup Storage</tspan>
                    </text>
                    <polyline id="Path-2" stroke="#0A162F" stroke-width="0.75" transform="translate(106.093750, 18.401961) scale(-1, 1) translate(-106.093750, -18.401961) " points="107.1875 16 105 18.4019608 107.1875 20.8039216"></polyline>
                </g>
                <rect id="Rectangle" fill="#0A162F" transform="translate(177.000000, 314.500000) scale(1, -1) translate(-177.000000, -314.500000) " x="176" y="303" width="2" height="23"></rect>
                <rect id="Rectangle" fill="#0A162F" transform="translate(313.000000, 314.500000) scale(1, -1) translate(-313.000000, -314.500000) " x="312" y="303" width="2" height="23"></rect>
                <g id="Group-20" transform="translate(460.000000, 276.000000)">
                    <text id="STORAGE" font-family="Helvetica" font-size="13" font-weight="normal" line-spacing="59" letter-spacing="0.611732" fill="#FFFFFF">
                        <tspan x="0" y="51">STORAG</tspan>
                        <tspan x="0" y="110">E</tspan>
                    </text>
                    <g id="Group-12" transform="translate(6.000000, 0.000000)">
                        <path d="M49.5291577,0 L2.35853132,0 C1.01079914,0 0,1.00862069 0,2.35344828 L0,10.6465517 C0,11.9913793 1.01079914,13 2.35853132,13 L49.6414687,13 C50.9892009,13 52,11.9913793 52,10.6465517 L52,2.35344828 C52,1.00862069 50.8768898,0 49.5291577,0 Z M6.40172786,9.4137931 C4.82937365,9.4137931 3.48164147,8.06896552 3.48164147,6.5 C3.48164147,4.93103448 4.82937365,3.5862069 6.40172786,3.5862069 C7.97408207,3.5862069 9.32181425,4.93103448 9.32181425,6.5 C9.32181425,8.06896552 8.08639309,9.4137931 6.40172786,9.4137931 Z M16.4773333,9.4137931 C14.9049791,9.4137931 13.557247,8.06896552 13.557247,6.5 C13.557247,4.93103448 14.9049791,3.5862069 16.4773333,3.5862069 C18.0496876,3.5862069 19.3974197,4.93103448 19.3974197,6.5 C19.3974197,8.06896552 18.1619986,9.4137931 16.4773333,9.4137931 Z M26.5529388,9.4137931 C24.9805846,9.4137931 23.6328524,8.06896552 23.6328524,6.5 C23.6328524,4.93103448 24.9805846,3.5862069 26.5529388,3.5862069 C28.125293,3.5862069 29.4730252,4.93103448 29.4730252,6.5 C29.4730252,8.06896552 28.2376041,9.4137931 26.5529388,9.4137931 Z" id="Shape" fill="#FFFFFF" fill-rule="nonzero"></path>
                        <path d="M0,27.5465517 C0,28.8913793 1.01079914,29.9 2.35853132,29.9 L49.6414687,29.9 C50.9892009,29.9 52,28.8913793 52,27.5465517 L52,19.2534483 C52,17.9086207 50.9892009,16.9 49.6414687,16.9 L2.47084233,16.9 C1.12311015,16.9 0.112311015,17.9086207 0.112311015,19.2534483 L0.112311015,27.5465517 L0,27.5465517 Z M6.51403888,20.5982759 C8.08639309,20.5982759 9.43412527,21.9431034 9.43412527,23.512069 C9.43412527,25.0810345 8.08639309,26.4258621 6.51403888,26.4258621 C4.94168467,26.4258621 3.59395248,25.0810345 3.59395248,23.512069 C3.7062635,21.8310345 4.94168467,20.5982759 6.51403888,20.5982759 Z M16.5896444,20.5982759 C18.1619986,20.5982759 19.5097308,21.9431034 19.5097308,23.512069 C19.5097308,25.0810345 18.1619986,26.4258621 16.5896444,26.4258621 C15.0172902,26.4258621 13.669558,25.0810345 13.669558,23.512069 C13.781869,21.8310345 15.0172902,20.5982759 16.5896444,20.5982759 Z M26.6652498,20.5982759 C28.2376041,20.5982759 29.5853362,21.9431034 29.5853362,23.512069 C29.5853362,25.0810345 28.2376041,26.4258621 26.6652498,26.4258621 C25.0928956,26.4258621 23.7451635,25.0810345 23.7451635,23.512069 C23.8574745,21.8310345 25.0928956,20.5982759 26.6652498,20.5982759 Z" id="Shape" fill="#FFFFFF" fill-rule="nonzero"></path>
                        <path d="M0,44.4465517 C0,45.7913793 1.01079914,46.8 2.35853132,46.8 L49.6414687,46.8 C50.9892009,46.8 52,45.7913793 52,44.4465517 L52,36.1534483 C52,34.8086207 50.9892009,33.8 49.6414687,33.8 L2.47084233,33.8 C1.12311015,33.8 0.112311015,34.8086207 0.112311015,36.1534483 L0.112311015,44.4465517 L0,44.4465517 Z M6.51403888,37.3862069 C8.08639309,37.3862069 9.43412527,38.7310345 9.43412527,40.3 C9.43412527,41.8689655 8.08639309,43.2137931 6.51403888,43.2137931 C4.94168467,43.2137931 3.59395248,41.8689655 3.59395248,40.3 C3.7062635,38.7310345 4.94168467,37.3862069 6.51403888,37.3862069 Z M16.5896444,37.3862069 C18.1619986,37.3862069 19.5097308,38.7310345 19.5097308,40.3 C19.5097308,41.8689655 18.1619986,43.2137931 16.5896444,43.2137931 C15.0172902,43.2137931 13.669558,41.8689655 13.669558,40.3 C13.781869,38.7310345 15.0172902,37.3862069 16.5896444,37.3862069 Z M26.6652498,37.3862069 C28.2376041,37.3862069 29.5853362,38.7310345 29.5853362,40.3 C29.5853362,41.8689655 28.2376041,43.2137931 26.6652498,43.2137931 C25.0928956,43.2137931 23.7451635,41.8689655 23.7451635,40.3 C23.8574745,38.7310345 25.0928956,37.3862069 26.6652498,37.3862069 Z" id="Shape" fill="#FFFFFF" fill-rule="nonzero"></path>
                        <rect id="Rectangle" fill="#0A162F" x="33.8" y="6.5" width="11.7" height="1.3" rx="0.5"></rect>
                        <rect id="Rectangle" fill="#0A162F" x="33.8" y="23.4" width="11.7" height="1.3" rx="0.5"></rect>
                        <rect id="Rectangle" fill="#0A162F" x="35.1" y="40.3" width="11.7" height="1.3" rx="0.5"></rect>
                    </g>
                </g>
                <g id="Group-26" transform="translate(264.000000, 56.000000)">
                    <text id="Private-Cloud" font-family="Helvetica" font-size="14" font-weight="normal" line-spacing="28" letter-spacing="-0.0608695652" fill="#45739E">
                        <tspan x="0" y="14">Private Cloud</tspan>
                    </text>
                    <polyline id="Path-2" stroke="#45739E" stroke-width="0.75" transform="translate(91.093750, 18.401961) scale(-1, 1) translate(-91.093750, -18.401961) " points="92.1875 16 90 18.4019608 92.1875 20.8039216"></polyline>
                </g>
                <path d="M540.434277,-0.00452371504 C575.688846,17.0304449 600,53.0640672 600,94.7617747 C600,152.883242 552.766041,200 494.5,200 C436.233959,200 389,152.883242 389,94.7617747 C389,53.0640672 413.311154,17.0304449 448.565723,-0.00452371504 C462.45168,6.7091946 478.035387,10.4714426 494.5,10.4714426 C510.814492,10.4714426 526.264068,6.77748875 540.054025,0.18231276 Z" id="Combined-Shape" fill="#45739E" opacity="0.9" transform="translate(494.500000, 100.000000) scale(1, -1) translate(-494.500000, -100.000000) "></path>
                <rect id="Rectangle" fill="#45739E" x="42" y="111" width="348" height="2"></rect>
                <g id="Group-28" transform="translate(454.000000, 54.000000)" fill="#FFFFFF">
                    <text id="CLOUD" font-family="Helvetica" font-size="13" font-weight="normal" line-spacing="59" letter-spacing="0.611732">
                        <tspan x="16" y="59">CLOUD</tspan>
                    </text>
                    <g id="noun_Cloud_677946" fill-rule="nonzero">
                        <g id="Group" transform="translate(0.000000, 0.637820)">
                            <path d="M49,0.36215 C60.1489,0.36215 68.3089,9.3138 69.125,19.11215 C76.5642,21.32251 82,28.2053 82,36.3621 C82,46.3032 73.9411,54.3622 64,54.3622 L17,54.3622 C6.8312,54.3622 0,47.6918 0,39.3621 C0,32.3965 4.9058,25.5524 12,24.36211 C12,12.36215 23,7.36213 31,11.36215 C34,5.36213 40.4524,0.36215 49,0.36215 Z" id="Path"></path>
                        </g>
                    </g>
                </g>
                <g id="noun_Cloud_677946" transform="translate(285.000000, 21.000000)" fill="#45739E" fill-rule="nonzero">
                    <g id="Group">
                        <path d="M31.0731707,0.223874545 C38.1432049,0.223874545 43.317839,5.75762182 43.8353659,11.8147836 C48.5529073,13.181188 52,17.4360036 52,22.4783891 C52,28.6237964 46.889478,33.6057236 40.5853659,33.6057236 L10.7804878,33.6057236 C4.33198049,33.6057236 0,29.4822036 0,24.3329345 C0,20.0269273 3.11099512,15.7960291 7.6097561,15.0602135 C7.6097561,7.64205636 14.5853659,4.55113491 19.6585366,7.02387455 C21.5609756,3.31477127 25.6527415,0.223874545 31.0731707,0.223874545 Z" id="Path"></path>
                    </g>
                </g>
                <g id="Group-27" transform="translate(1097.000000, 336.000000)">
                    <g id="noun_Cloud_677946" fill="#94A3B0" fill-rule="nonzero">
                        <g id="Group">
                            <path d="M19.7195122,0.140187097 C24.2062646,0.140187097 27.4901671,3.60534194 27.8185976,7.39825161 C30.812422,8.25387484 33,10.9181806 33,14.0756516 C33,17.9238194 29.7567841,21.0434323 25.7560976,21.0434323 L6.84146341,21.0434323 C2.74914146,21.0434323 0,18.4613419 0,15.2369419 C0,12.5405806 1.97428537,9.89125161 4.82926829,9.43049419 C4.82926829,4.78534839 9.25609756,2.84985677 12.4756098,4.39825161 C13.6829268,2.07566323 16.2796244,0.140187097 19.7195122,0.140187097 Z" id="Path"></path>
                        </g>
                    </g>
                    <g id="Group-23" transform="translate(1.064516, 24.483871)">
                        <path d="M0,6.10261402 C0,6.87347052 0.600083606,7.4516129 1.40019508,7.4516129 L29.4707727,7.4516129 C30.2708841,7.4516129 30.8709677,6.87347052 30.8709677,6.10261402 L30.8709677,1.34899889 C30.8709677,0.57814238 30.2708841,0 29.4707727,0 L1.46687104,0 C0.666759562,0 0.0666759562,0.57814238 0.0666759562,1.34899889 L0.0666759562,6.10261402 L0,6.10261402 Z M3.86720546,2.05561735 C4.80066885,2.05561735 5.60078032,2.82647386 5.60078032,3.72580645 C5.60078032,4.62513904 4.80066885,5.39599555 3.86720546,5.39599555 C2.93374207,5.39599555 2.1336306,4.62513904 2.1336306,3.72580645 C2.20030656,2.82647386 2.93374207,2.05561735 3.86720546,2.05561735 Z M9.84881492,2.05561735 C10.7822783,2.05561735 11.5823898,2.82647386 11.5823898,3.72580645 C11.5823898,4.62513904 10.7822783,5.39599555 9.84881492,5.39599555 C8.91535154,5.39599555 8.11524006,4.62513904 8.11524006,3.72580645 C8.18191602,2.82647386 8.91535154,2.05561735 9.84881492,2.05561735 Z M15.8304244,2.05561735 C16.7638878,2.05561735 17.5639992,2.82647386 17.5639992,3.72580645 C17.5639992,4.62513904 16.7638878,5.39599555 15.8304244,5.39599555 C14.896961,5.39599555 14.0968495,4.62513904 14.0968495,3.72580645 C14.1635255,2.82647386 14.896961,2.05561735 15.8304244,2.05561735 Z" id="Shape" fill="#94A3B0" fill-rule="nonzero"></path>
                        <rect id="Rectangle" fill="#FFFFFF" x="21.2903226" y="3.19354839" width="6.38709677" height="1.06451613" rx="0.5"></rect>
                    </g>
                </g>
                <rect id="Rectangle" fill="#45739E" x="174" y="90" width="2" height="23"></rect>
                <g id="Group-26" transform="translate(129.000000, 56.000000)">
                    <text id="Hybrid-Cloud" font-family="Helvetica" font-size="14" font-weight="normal" line-spacing="28" letter-spacing="-0.0608695652" fill="#45739E">
                        <tspan x="0" y="14">Hybrid Cloud </tspan>
                    </text>
                    <polyline id="Path-2" stroke="#45739E" stroke-width="0.75" transform="translate(90.093750, 18.401961) scale(-1, 1) translate(-90.093750, -18.401961) " points="91.1875 16 89 18.4019608 91.1875 20.8039216"></polyline>
                </g>
                <rect id="Rectangle" fill="#45739E" x="43" y="90" width="2" height="23"></rect>
                <g id="Group-26" transform="translate(0.000000, 56.000000)">
                    <text id="Public-Cloud" font-family="Helvetica" font-size="14" font-weight="normal" line-spacing="28" letter-spacing="-0.0608695652" fill="#45739E">
                        <tspan x="0" y="14">Public Cloud </tspan>
                    </text>
                    <polyline id="Path-2" stroke="#45739E" stroke-width="0.75" transform="translate(85.093750, 18.401961) scale(-1, 1) translate(-85.093750, -18.401961) " points="86.1875 16 84 18.4019608 86.1875 20.8039216"></polyline>
                </g>
                <rect id="Rectangle" fill="#94A3B0" transform="translate(1116.000000, 316.500000) scale(-1, -1) translate(-1116.000000, -316.500000) " x="1115" y="305" width="2" height="23"></rect>
                <rect id="Rectangle" fill="#94A3B0" transform="translate(999.000000, 314.500000) scale(-1, -1) translate(-999.000000, -314.500000) " x="998" y="303" width="2" height="23"></rect>
                <rect id="Rectangle" fill="#94A3B0" transform="translate(874.000000, 314.500000) scale(-1, -1) translate(-874.000000, -314.500000) " x="873" y="303" width="2" height="23"></rect>
                <path d="M739.434277,215.995476 C774.688846,233.030445 799,269.064067 799,310.761775 C799,368.883242 751.766041,416 693.5,416 C635.233959,416 588,368.883242 588,310.761775 C588,269.064067 612.311154,233.030445 647.565723,215.995476 C661.45168,222.709195 677.035387,226.471443 693.5,226.471443 C709.814492,226.471443 725.264068,222.777489 739.054025,216.182313 Z" id="Combined-Shape" fill="#8999A8" opacity="0.9"></path>
                <rect id="Rectangle" fill="#94A3B0" transform="translate(955.000000, 304.000000) scale(-1, -1) translate(-955.000000, -304.000000) " x="795" y="303" width="320" height="2"></rect>
                <g id="noun_service_2613658" transform="translate(670.000000, 272.000000)" fill="#FFFFFF" fill-rule="nonzero">
                    <path d="M50.4927729,33.6512304 L45.7231968,30.9277145 C46.3770903,28.0120916 46.3770903,24.9784031 45.7231968,22.0627802 L50.4927729,19.3392643 C50.9077827,19.105134 51.0980799,18.61286 50.9482715,18.1586071 C49.7943418,14.7146903 47.9703231,11.5929527 45.5268263,8.87944233 C45.2069651,8.52324407 44.6806112,8.43719618 44.2615525,8.67532872 L39.4940008,11.3968435 C37.2671189,9.38372302 34.6090316,7.86687873 31.7282562,6.9643764 L31.7282562,1.52534902 C31.7282562,1.04908392 31.3901751,0.642857817 30.9205054,0.54480324 C27.3595188,-0.18160108 23.6365772,-0.18160108 20.0816639,0.54480324 C19.6119942,0.642857817 19.2739131,1.04908392 19.2739131,1.52534902 L19.2739131,6.96637751 C16.3911132,7.86887985 13.733026,9.38372302 11.5061441,11.3968435 L6.73656795,8.67732983 C6.32155814,8.43919729 5.7931798,8.52524518 5.47331858,8.88144344 C3.0298218,11.5929527 1.20782751,14.7166914 0.0518733589,18.1606083 C-0.0999594982,18.6148611 0.0903376827,19.1071351 0.50737193,19.3412654 L5.27694808,22.0647813 C4.62507901,24.9804042 4.62507901,28.0140927 5.27694808,30.9297156 L0.50737193,33.6532315 C0.0903376827,33.8873618 -0.0979350601,34.3836381 0.0518733589,34.8338887 C1.20580307,38.2778056 3.0298218,41.3995431 5.47331858,44.1130535 C5.7931798,44.473254 6.32155814,44.5593019 6.73656795,44.3171671 L11.5061441,41.5956523 C13.7350504,43.612775 16.3931377,45.1316204 19.2718886,46.0281194 L19.2718886,51.4751513 C19.2718886,51.9494152 19.6099698,52.3556413 20.0796394,52.4536959 C21.8591205,52.8198998 23.6851637,53 25.5010846,53 C27.3170056,53 29.1410243,52.8138964 30.9225299,52.4536959 C31.3921995,52.3556413 31.7302807,51.9494152 31.7302807,51.4751513 L31.7302807,46.0281194 C34.6090316,45.1316204 37.2650944,43.612775 39.4960252,41.5956523 L44.2635769,44.3171671 C44.6785867,44.5593019 45.2089895,44.473254 45.5288507,44.1130535 C47.9723475,41.4015443 49.7923173,38.2778056 50.9502959,34.8338887 C51.0980799,34.3836381 50.9077827,33.8853607 50.4927729,33.6512304 Z M25.4970358,35.6103208 C20.4136717,35.6103208 16.2757202,31.5220453 16.2757202,26.4952474 C16.2757202,21.4684494 20.4116473,17.3801739 25.4970358,17.3801739 C30.5844487,17.3801739 34.7163269,21.4684494 34.7163269,26.4952474 C34.7163269,31.5220453 30.5844487,35.6103208 25.4970358,35.6103208 Z" id="Shape"></path>
                </g>
                <g id="Group-26" transform="translate(1082.000000, 369.000000)">
                    <text id="Migration" font-family="Helvetica" font-size="14" font-weight="normal" line-spacing="28" letter-spacing="-0.0608695652" fill="#8999A8">
                        <tspan x="0" y="14">Migration</tspan>
                    </text>
                    <polyline id="Path-2" stroke="#8999A8" stroke-width="0.75" transform="translate(66.093750, 18.401961) scale(-1, 1) translate(-66.093750, -18.401961) " points="67.1875 16 65 18.4019608 67.1875 20.8039216"></polyline>
                </g>
                <g id="Group-26" transform="translate(953.000000, 368.000000)">
                    <text id="Management" font-family="Helvetica" font-size="14" font-weight="normal" line-spacing="28" letter-spacing="-0.0608695652" fill="#8999A8">
                        <tspan x="0" y="14">Management </tspan>
                    </text>
                    <polyline id="Path-2" stroke="#8999A8" stroke-width="0.75" transform="translate(90.093750, 18.401961) scale(-1, 1) translate(-90.093750, -18.401961) " points="91.1875 16 89 18.4019608 91.1875 20.8039216"></polyline>
                </g>
                <g id="Group-26" transform="translate(838.000000, 368.000000)">
                    <text id="Consulting" font-family="Helvetica" font-size="14" font-weight="normal" line-spacing="28" letter-spacing="-0.0608695652" fill="#8999A8">
                        <tspan x="0" y="14">Consulting </tspan>
                    </text>
                    <polyline id="Path-2" stroke="#8999A8" stroke-width="0.75" transform="translate(73.093750, 18.401961) scale(-1, 1) translate(-73.093750, -18.401961) " points="74.1875 16 72 18.4019608 74.1875 20.8039216"></polyline>
                </g>
                <rect id="Rectangle" fill="#61839E" transform="translate(1000.000000, 101.500000) scale(-1, 1) translate(-1000.000000, -101.500000) " x="999" y="90" width="2" height="23"></rect>
                <rect id="Rectangle" fill="#61839E" transform="translate(876.000000, 101.500000) scale(-1, 1) translate(-876.000000, -101.500000) " x="875" y="90" width="2" height="23"></rect>
                <path d="M692.500702,0 C750.766356,0 798,47.2339589 798,105.5 C798,163.766041 750.766356,211 692.500702,211 C653.368618,211 619.212706,189.694337 601,158.050119 C609.907696,142.57773 615.001218,124.633697 615.001218,105.5 C615.001218,86.3663032 609.907696,68.4222702 601.002623,52.9498809 C619.212706,21.3056632 653.368618,0 692.500702,0 Z" id="Combined-Shape" fill="#396486" opacity="0.8"></path>
                <g id="Group-30" transform="translate(663.000000, 63.000000)" fill="#FFFFFF" fill-rule="nonzero">
                    <g id="noun_Cloud-Docker_676618">
                        <g id="Group">
                            <rect id="Rectangle" x="0.361538462" y="0" width="20.2461538" height="19.8181818" rx="2"></rect>
                            <rect id="Rectangle" x="26.0307692" y="0" width="20.2461538" height="19.8181818" rx="2"></rect>
                        </g>
                    </g>
                    <g id="noun_Cloud-Docker_676618" transform="translate(0.000000, 24.000000)">
                        <g id="Group">
                            <rect id="Rectangle" x="0.361538462" y="0" width="20.2461538" height="19.8181818" rx="2"></rect>
                            <rect id="Rectangle" x="26.0307692" y="0" width="20.2461538" height="19.8181818" rx="2"></rect>
                        </g>
                    </g>
                    <g id="noun_Cloud-Docker_676618" transform="translate(52.000000, 24.000000)">
                        <g id="Group">
                            <rect id="Rectangle" x="0.350877193" y="0" width="19.6491228" height="19.8181818" rx="2"></rect>
                        </g>
                    </g>
                </g>
                <rect id="Rectangle" fill="#61839E" transform="translate(899.000000, 112.000000) scale(-1, 1) translate(-899.000000, -112.000000) " x="797" y="111" width="204" height="2"></rect>
                <g id="Group-29" transform="translate(658.000000, 101.000000)" fill="#FFFFFF" font-family="Helvetica" font-size="13" font-weight="normal" letter-spacing="0.611732" line-spacing="59">
                    <text id="CONTAINER">
                        <tspan x="0" y="13">CONTAINER</tspan>
                    </text>
                </g>
                <g id="Group-24" transform="translate(985.000000, 333.000000)">
                    <path d="M22.8209787,14.0636486 L21.1375989,13.0872939 C21.3683848,12.0420706 21.3683848,10.9545219 21.1375989,9.90929857 L22.8209787,8.93294381 C22.9674527,8.8490103 23.0346164,8.67253471 22.9817429,8.50968936 C22.5744736,7.27507764 21.9307023,6.15596417 21.0682916,5.18319631 C20.9553994,5.05550259 20.7696275,5.02465523 20.6217244,5.1100235 L18.9390591,6.08566089 C18.1531008,5.36397618 17.2149523,4.82020181 16.1982081,4.49666324 L16.1982081,2.54682323 C16.1982081,2.37608669 16.0788853,2.23045846 15.9131196,2.19530682 C14.6563008,1.93489773 13.3423214,1.93489773 12.0876461,2.19530682 C11.9218803,2.23045846 11.8025576,2.37608669 11.8025576,2.54682323 L11.8025576,4.49738062 C10.7850988,4.82091919 9.84695035,5.36397618 9.06099203,6.08566089 L7.37761222,5.11074088 C7.23113817,5.02537261 7.04465169,5.05621997 6.9317595,5.18391369 C6.06934887,6.15596417 5.42629206,7.27579502 5.01830824,8.51040674 C4.96472018,8.67325209 5.03188389,8.84972768 5.17907245,8.93366119 L6.86245226,9.91001595 C6.63238083,10.9552392 6.63238083,12.042788 6.86245226,13.0880113 L5.17907245,14.064366 C5.03188389,14.1482995 4.96543468,14.3262099 5.01830824,14.4876205 C5.42557756,15.7222322 6.06934887,16.8413457 6.9317595,17.8141135 C7.04465169,17.943242 7.23113817,17.9740894 7.37761222,17.8872863 L9.06099203,16.9116489 C9.84766486,17.6347684 10.7858133,18.1792602 11.801843,18.5006466 L11.801843,20.4533561 C11.801843,20.6233753 11.9211658,20.7690035 12.0869316,20.8041551 C12.7149837,20.9354358 13.3594695,21 14.0003828,21 C14.6412961,21 15.2850674,20.9332836 15.9138341,20.8041551 C16.0795998,20.7690035 16.1989226,20.6233753 16.1989226,20.4533561 L16.1989226,18.5006466 C17.2149523,18.1792602 18.1523863,17.6347684 18.9397736,16.9116489 L20.6224389,17.8872863 C20.768913,17.9740894 20.9561139,17.943242 21.0690061,17.8141135 C21.9314168,16.842063 22.5737591,15.7222322 22.9824574,14.4876205 C23.0346164,14.3262099 22.9674527,14.1475821 22.8209787,14.0636486 Z M13.7003623,14.8709677 C11.8809968,14.8709677 10.4,13.3590277 10.4,11.5 C10.4,9.64097235 11.8802723,8.12903226 13.7003623,8.12903226 C15.5211769,8.12903226 17,9.64097235 17,11.5 C17,13.3590277 15.5211769,14.8709677 13.7003623,14.8709677 Z" id="Shape" fill="#94A3B0" fill-rule="nonzero"></path>
                    <g id="noun_management_2364486" transform="translate(0.000000, 2.000000)" fill="#94A3B0" fill-rule="nonzero" stroke="#94A3B0" stroke-width="0.5">
                        <path d="M26.71625,26.4632692 L26.71625,22.5525 L14.82625,22.5525 L14.82625,19.3511538 L16.5420833,19.3511538 L16.5420833,16.7221154 L16.78375,16.6446154 C17.1583333,16.5194231 17.4785417,16.3942308 17.7564583,16.2511538 L17.9860417,16.1378846 L19.8770833,18.0038462 L22.765,15.1542308 L20.88,13.2942308 L20.9947917,13.0736538 C21.151875,12.7636538 21.2847917,12.4417308 21.3935417,12.1138462 L21.4720833,11.8753846 L24.1425,11.8753846 L24.1425,7.84538462 L21.4720833,7.84538462 L21.3935417,7.60692308 C21.2666667,7.23730769 21.1397917,6.92730769 20.9947917,6.65307692 L20.88,6.42653846 L22.7710417,4.56057692 L19.883125,1.71096154 L17.9920833,3.57692308 L17.7625,3.46365385 C17.4845833,3.32057692 17.1704167,3.19538462 16.7897917,3.07019231 L16.5420833,2.98076923 L16.5420833,0.345769231 L12.4579167,0.345769231 L12.4579167,2.98076923 L12.21625,3.05826923 C11.8416667,3.18346154 11.5214583,3.30865385 11.2435417,3.45173077 L11.0139583,3.565 L9.12291667,1.69903846 L6.235,4.54865385 L8.12,6.40865385 L8.01125,6.62923077 C7.85416667,6.95115385 7.71520833,7.27903846 7.6125,7.595 L7.53395833,7.83346154 L4.86354167,7.83346154 L4.86354167,11.8634615 L7.53395833,11.8634615 L7.6125,12.1019231 C7.739375,12.4715385 7.86625,12.7815385 8.01125,13.0557692 L8.12604167,13.2823077 L6.235,15.1482692 L9.12291667,17.9978846 L11.0139583,16.1319231 L11.2435417,16.2451923 C11.5395833,16.3942308 11.85375,16.5253846 12.2102083,16.6386538 L12.451875,16.7161538 L12.451875,19.3511538 L14.119375,19.3511538 L14.119375,22.5525 L2.23541667,22.5525 L2.23541667,26.4692308 C1.22645833,26.6361538 0.447083333,27.5005769 0.447083333,28.5438462 C0.447083333,29.7063462 1.40770833,30.6542308 2.58583333,30.6542308 C3.76395833,30.6542308 4.72458333,29.7063462 4.72458333,28.5438462 C4.72458333,27.5005769 3.95125,26.6361538 2.93625,26.4692308 L2.93625,23.2440385 L14.119375,23.2440385 L14.119375,26.4692308 C13.1225,26.6480769 12.3552083,27.5065385 12.3552083,28.5438462 C12.3552083,29.7063462 13.3158333,30.6542308 14.4939583,30.6542308 C15.6720833,30.6542308 16.6327083,29.7063462 16.6327083,28.5438462 C16.6327083,27.4886538 15.8472917,26.6242308 14.8202083,26.4692308 L14.8202083,23.2440385 L26.009375,23.2440385 L26.009375,26.4751923 C25.0185417,26.66 24.269375,27.5184615 24.269375,28.5438462 C24.269375,29.7063462 25.23,30.6542308 26.408125,30.6542308 C27.58625,30.6542308 28.5469088,29.7063462 28.5469088,28.5438462 C28.5529167,27.4826923 27.749375,26.6123077 26.71625,26.4632692 Z" id="Path"></path>
                    </g>
                    <rect id="Rectangle" fill="#FFFFFF" x="2" y="0" width="27" height="22"></rect>
                    <path d="M22.8209787,13.0636486 L21.1375989,12.0872939 C21.3683848,11.0420706 21.3683848,9.95452186 21.1375989,8.90929857 L22.8209787,7.93294381 C22.9674527,7.8490103 23.0346164,7.67253471 22.9817429,7.50968936 C22.5744736,6.27507764 21.9307023,5.15596417 21.0682916,4.18319631 C20.9553994,4.05550259 20.7696275,4.02465523 20.6217244,4.1100235 L18.9390591,5.08566089 C18.1531008,4.36397618 17.2149523,3.82020181 16.1982081,3.49666324 L16.1982081,1.54682323 C16.1982081,1.37608669 16.0788853,1.23045846 15.9131196,1.19530682 C14.6563008,0.934897726 13.3423214,0.934897726 12.0876461,1.19530682 C11.9218803,1.23045846 11.8025576,1.37608669 11.8025576,1.54682323 L11.8025576,3.49738062 C10.7850988,3.82091919 9.84695035,4.36397618 9.06099203,5.08566089 L7.37761222,4.11074088 C7.23113817,4.02537261 7.04465169,4.05621997 6.9317595,4.18391369 C6.06934887,5.15596417 5.42629206,6.27579502 5.01830824,7.51040674 C4.96472018,7.67325209 5.03188389,7.84972768 5.17907245,7.93366119 L6.86245226,8.91001595 C6.63238083,9.95523924 6.63238083,11.042788 6.86245226,12.0880113 L5.17907245,13.064366 C5.03188389,13.1482995 4.96543468,13.3262099 5.01830824,13.4876205 C5.42557756,14.7222322 6.06934887,15.8413457 6.9317595,16.8141135 C7.04465169,16.943242 7.23113817,16.9740894 7.37761222,16.8872863 L9.06099203,15.9116489 C9.84766486,16.6347684 10.7858133,17.1792602 11.801843,17.5006466 L11.801843,19.4533561 C11.801843,19.6233753 11.9211658,19.7690035 12.0869316,19.8041551 C12.7149837,19.9354358 13.3594695,20 14.0003828,20 C14.6412961,20 15.2850674,19.9332836 15.9138341,19.8041551 C16.0795998,19.7690035 16.1989226,19.6233753 16.1989226,19.4533561 L16.1989226,17.5006466 C17.2149523,17.1792602 18.1523863,16.6347684 18.9397736,15.9116489 L20.6224389,16.8872863 C20.768913,16.9740894 20.9561139,16.943242 21.0690061,16.8141135 C21.9314168,15.842063 22.5737591,14.7222322 22.9824574,13.4876205 C23.0346164,13.3262099 22.9674527,13.1475821 22.8209787,13.0636486 Z M13.7003623,13.8709677 C11.8809968,13.8709677 10.4,12.3590277 10.4,10.5 C10.4,8.64097235 11.8802723,7.12903226 13.7003623,7.12903226 C15.5211769,7.12903226 17,8.64097235 17,10.5 C17,12.3590277 15.5211769,13.8709677 13.7003623,13.8709677 Z" id="Shape" fill="#94A3B0" fill-rule="nonzero"></path>
                </g>
                <g id="Group-2" transform="translate(961.000000, 56.000000)">
                    <text id="Kubernetes" font-family="Helvetica" font-size="14" font-weight="normal" line-spacing="28" letter-spacing="-0.0608695652" fill="#61839E">
                        <tspan x="0" y="14">Kubernetes</tspan>
                    </text>
                    <polyline id="Path-2" stroke="#61839E" stroke-width="0.75" transform="translate(76.093750, 18.401961) scale(-1, 1) translate(-76.093750, -18.401961) " points="77.1875 16 75 18.4019608 77.1875 20.8039216"></polyline>
                </g>
                <text id="Docker" font-family="Helvetica" font-size="14" font-weight="normal" line-spacing="28" letter-spacing="-0.0608695652" fill="#61839E">
                    <tspan x="850" y="70">Docker </tspan>
                </text>
                <polyline id="Path-2" stroke="#61839E" stroke-width="0.75" transform="translate(900.000000, 74.500000) scale(-1, 1) translate(-900.000000, -74.500000) " points="901 72 899 74.5 901 77"></polyline>
                <g id="noun_Plus_1807531" transform="translate(581.000000, 198.000000)" fill="#0A162F" fill-rule="nonzero">
                    <g id="Group">
                        <path d="M12.5,0.119198481 C11.4379487,0.119198481 10.5769231,1.00329722 10.5769231,2.09388203 L10.5769231,10.9799909 L1.92307692,10.9799909 C0.86099359,10.9799909 0,11.8640567 0,12.954681 C0,14.0452329 0.86099359,14.9293646 1.92307692,14.9293646 L10.5769231,14.9293646 L10.5769231,23.8154076 C10.5769231,24.9059924 11.4379487,25.7900911 12.5,25.7900911 C13.5621154,25.7900911 14.4230769,24.9059924 14.4230769,23.8154076 L14.4230769,14.9293646 L23.0769231,14.9293646 C24.1390064,14.9293646 25,14.0452329 25,12.954681 C25,11.8640567 24.1390064,10.9799909 23.0769231,10.9799909 L14.4230769,10.9799909 L14.4230769,2.09388203 C14.4230769,1.00329722 13.5621154,0.119198481 12.5,0.119198481 L12.5,0.119198481 Z" id="Path"></path>
                    </g>
                </g>
                <text id="SERVICES" font-family="Helvetica" font-size="13" font-weight="normal" line-spacing="59" letter-spacing="0.611732" fill="#FFFFFF">
                    <tspan x="662" y="327">SERVICE</tspan>
                    <tspan x="662" y="386">S</tspan>
                </text>
                <g id="Kubernetes_logo_without_workmark" transform="translate(982.000000, 22.000000)" fill="#61839E" fill-rule="nonzero" stroke="#FFFFFF" stroke-width="0.25">
                    <path d="M16.9989922,0 C16.4660257,0 16.0338831,0.478865456 16.0339465,1.06949696 C16.0339472,1.07856169 16.0358073,1.08722363 16.0360053,1.09623439 C16.03522,1.17648681 16.0313334,1.27316933 16.0339465,1.34304138 C16.0466567,1.68370084 16.1211074,1.94442709 16.1659186,2.25828398 C16.2470999,2.93003732 16.3151242,3.48687997 16.2731459,4.00444344 C16.232321,4.19961183 16.0881949,4.37810331 15.9597122,4.50217088 L15.9370295,4.90940241 C15.357882,4.95726125 14.7748604,5.04489879 14.1925237,5.17677665 C11.6867299,5.74424714 9.52928547,7.03165098 7.88673341,8.76987511 C7.78015145,8.69735137 7.59368745,8.56393014 7.53824137,8.52306812 C7.36594062,8.54627587 7.19180083,8.5993012 6.9649877,8.46753655 C6.53311505,8.17757914 6.13977494,7.77733717 5.6638256,7.29520333 C5.44574308,7.06457438 5.28781607,6.84496091 5.02871003,6.62265428 C4.96986896,6.57216942 4.88007121,6.50388747 4.81425542,6.45194611 C4.61168621,6.29085881 4.37276266,6.206849 4.1420227,6.19896895 C3.84535675,6.18883735 3.5597659,6.30452665 3.372873,6.53832856 C3.04061946,6.95397654 3.14699489,7.58926893 3.61001031,7.95746876 C3.61470851,7.96120048 3.61971157,7.96410162 3.62444475,7.96775239 C3.6880698,8.01919486 3.76598215,8.08510944 3.82446491,8.12817693 C4.09942014,8.33066068 4.35058476,8.43431303 4.62454557,8.59505349 C5.20172541,8.95057468 5.68021455,9.24536425 6.0597418,9.60079198 C6.20794775,9.75836476 6.23385123,10.0360226 6.25357578,10.1561077 L6.56288531,10.4317089 C4.90707005,12.9171329 4.14074521,15.9871342 4.59361792,19.1152015 L4.18945346,19.2324348 C4.08293221,19.3696339 3.93241081,19.5855163 3.77497539,19.64995 C3.27842191,19.8059458 2.71957893,19.8632301 2.04490407,19.933778 C1.72815065,19.9600482 1.45484508,19.944371 1.11903754,20.0078201 C1.0451279,20.0217848 0.942147457,20.0485446 0.861279593,20.0674652 C0.858468588,20.0680575 0.855842344,20.0688868 0.853031339,20.0695186 C0.848623472,20.0705387 0.842832537,20.0726711 0.838596894,20.073632 C0.269788046,20.2107113 -0.0956162136,20.7321789 0.0220197279,21.2459653 C0.139683384,21.759872 0.695284467,22.0723916 1.26750611,21.9493652 C1.27163684,21.948424 1.27763497,21.9482661 1.28194056,21.9473118 C1.28840059,21.9458375 1.29408793,21.9427113 1.30049913,21.9411449 C1.38026635,21.9236801 1.48022991,21.9042489 1.55000882,21.8856133 C1.88015938,21.7974453 2.11926637,21.6678993 2.41607551,21.5544806 C3.0546184,21.3260512 3.5834826,21.1352233 4.09871937,21.0608666 C4.3139117,21.0440561 4.54063509,21.1932973 4.65341446,21.2562555 L5.07407543,21.1842701 C6.04210242,24.1777309 8.07077571,26.5972424 10.6395849,28.1154331 L10.4643095,28.535005 C10.5274859,28.6979253 10.5971665,28.9183588 10.5501059,29.0792519 C10.3627927,29.5637308 10.0419494,30.0750997 9.67660127,30.6452048 C9.49970261,30.9085919 9.31865805,31.1129935 9.15902332,31.4144199 C9.120824,31.4865461 9.07217382,31.5973414 9.03529951,31.6735672 C8.78726856,32.2028768 8.96920525,32.8125124 9.44565015,33.0412893 C9.92508818,33.271503 10.5201977,33.0286962 10.7777432,32.4983139 C10.7781391,32.4975636 10.779439,32.4970108 10.779802,32.4962605 C10.7800659,32.4956682 10.779538,32.4947797 10.779802,32.4942071 C10.8164856,32.4190099 10.8684562,32.3201673 10.8994017,32.2494568 C11.0361333,31.9370307 11.0816293,31.6692919 11.1777802,31.3671218 C11.4331211,30.7273889 11.5734107,30.0561469 11.9249124,29.6378861 C12.0211649,29.5233525 12.1780883,29.4793043 12.3407841,29.4358571 L12.5593628,29.0409659 C14.7988127,29.8983273 17.3055178,30.1283949 19.8095783,29.5613173 C20.3808174,29.4319529 20.9322937,29.264527 21.4654153,29.0635899 C21.526847,29.1722725 21.6410127,29.3811943 21.6716216,29.4338004 C21.8369556,29.4874516 22.0174175,29.5151572 22.1644548,29.7320255 C22.4274349,30.1801599 22.6072805,30.7103131 22.8263772,31.350668 C22.922544,31.6528328 22.9700697,31.9205835 23.1068179,32.233003 C23.1379857,32.3042118 23.1896963,32.4044424 23.2264176,32.47981 C23.4834213,33.0119153 24.0804167,33.255552 24.5605727,33.0248421 C25.0369588,32.7959434 25.2190961,32.1863631 24.9709233,31.65712 C24.9340444,31.5808968 24.8833401,31.4700969 24.8451374,31.3979727 C24.6854869,31.0965549 24.5044713,30.8941916 24.3275595,30.6308143 C23.962181,30.0607283 23.6591421,29.5871366 23.4718031,29.1026677 C23.3934704,28.8527957 23.4850188,28.6973948 23.5460374,28.5350116 C23.5094957,28.4932341 23.4313002,28.2572655 23.3851965,28.1462906 C26.0548198,26.5740866 28.0239196,24.0643471 28.9486439,21.1657661 C29.0735159,21.1853409 29.2905532,21.2236414 29.3610566,21.2377515 C29.5061955,21.1422734 29.6396457,21.0176971 29.9013173,21.0382492 C30.4165573,21.1125789 30.9454064,21.3034667 31.5839611,21.5318632 C31.8807762,21.6452667 32.1198733,21.7769017 32.4500278,21.8650526 C32.5198074,21.8836842 32.619769,21.9010667 32.6995375,21.9185275 C32.7059513,21.9200939 32.7116327,21.9232267 32.7180961,21.9246944 C32.722405,21.9256553 32.7283998,21.9258066 32.7325305,21.9267478 C33.3047852,22.0496215 33.8604852,21.7372849 33.9780169,21.2233479 C34.0955209,20.7095312 33.7302855,20.1879425 33.1614397,20.0510147 C33.0786979,20.0322488 32.9613536,20.0003778 32.8809991,19.9851995 C32.5451883,19.9217681 32.2718873,19.937411 31.9551326,19.9111574 C31.2804544,19.8406443 30.7216226,19.7832988 30.2250612,19.6273293 C30.0225989,19.5489908 29.8785666,19.3087021 29.8085211,19.2098142 L29.4187911,19.0966943 C29.6208575,17.6385968 29.5663722,16.121101 29.2167089,14.6027503 C28.8637898,13.0702625 28.2400912,11.6686535 27.4082791,10.4337689 C27.5082513,10.3431223 27.6970466,10.1763716 27.7505817,10.1273169 C27.7662309,9.95460659 27.7527856,9.77352529 27.9320433,9.58228475 C28.3115514,9.22683727 28.7900788,8.93209773 29.3672395,8.57654626 C29.6411917,8.41579132 29.8944376,8.31216792 30.1693822,8.1096697 C30.2315576,8.06387812 30.3164585,7.99136096 30.3817748,7.93896153 C30.8446919,7.57063796 30.9512725,6.93538375 30.6189121,6.51982133 C30.2865517,6.1042589 29.6425088,6.06511531 29.1795917,6.43343888 C29.1137007,6.48548883 29.0242916,6.55338839 28.9651371,6.60414705 C28.706043,6.82646815 28.5460301,7.04605595 28.3279595,7.2766961 C27.8520359,7.75885495 27.4586549,8.16110559 27.0267974,8.45108604 C26.8396603,8.55975088 26.5655576,8.52215197 26.441168,8.51484451 L26.0741207,8.77604858 C23.9811229,6.58699758 21.1314593,5.18744464 18.063017,4.91557259 C18.0544349,4.7873172 18.0431915,4.55548645 18.0403343,4.48571708 C17.9147161,4.36582482 17.7629673,4.26346837 17.7248386,4.00444344 C17.6828603,3.48687997 17.7529467,2.93003732 17.834128,2.25828398 C17.8789391,1.94442709 17.9533898,1.68370084 17.9661,1.34304138 C17.9689902,1.26560124 17.9643514,1.15322969 17.9640413,1.06949696 C17.9639779,0.478865456 17.5319621,0 16.9989955,0 L16.9989922,0 Z M15.790623,7.4659115 L15.5039962,12.5151712 L15.4833755,12.5254548 C15.4641512,12.9771676 15.0914211,13.3378612 14.6338053,13.3378612 C14.4463516,13.3378612 14.2733276,13.2778186 14.1327239,13.1753799 L14.1244756,13.1794934 L9.97354172,10.2445469 C11.2492926,8.99332429 12.8810784,8.06867078 14.7616533,7.64278985 C15.1051759,7.56499431 15.4485455,7.50726977 15.790623,7.4659115 Z M18.2094235,7.4659115 C20.4050078,7.73524835 22.4354997,8.72685303 23.9914497,10.2466036 L19.8673226,13.1630396 L19.8528882,13.1568727 C19.486834,13.4235355 18.9710884,13.3573714 18.6857602,13.0005616 C18.5688778,12.8543887 18.5075504,12.6825169 18.5001745,12.5090043 L18.4960504,12.5069509 L18.2094235,7.4659115 Z M8.46823533,12.1305636 L12.2583081,15.5118194 L12.254184,15.5323867 C12.59628,15.8290138 12.646727,16.3437525 12.3614113,16.7006064 C12.2445368,16.8467853 12.0880919,16.9448295 11.9201297,16.9906047 L11.9160056,17.0070585 L7.05778386,18.4056314 C6.81051572,16.1504625 7.34340771,13.9582589 8.46823533,12.1305636 Z M25.5029423,12.1326171 C26.0660737,13.0430098 26.4925052,14.0598269 26.7463666,15.1621729 C26.9971835,16.2513012 27.0601296,17.3384821 26.9566971,18.3891743 L22.0737306,16.9864879 L22.0696065,16.9659207 C21.6323501,16.8467267 21.3636266,16.4030941 21.4654219,15.9581255 C21.507127,15.7758424 21.604139,15.621636 21.7355522,15.5077027 L21.7334934,15.4974191 L25.5029456,12.1326171 L25.5029423,12.1326171 Z M16.2215943,15.7730202 L17.7743281,15.7730202 L18.7393739,16.9762043 L18.3929472,18.4776135 L16.9989922,19.1460491 L15.6009131,18.4755568 L15.2544865,16.9741476 L16.2215943,15.7730202 Z M21.1994157,19.8905835 C21.2653997,19.8872599 21.3310961,19.8931898 21.3953117,19.9049806 L21.40356,19.894697 L26.4288088,20.7420676 C25.6933615,22.8029455 24.2860569,24.5883197 22.4057229,25.7831005 L20.4550107,21.083484 L20.4611936,21.0752571 C20.2820013,20.6599638 20.4613256,20.1729597 20.8736063,19.9749092 C20.9791609,19.9242046 21.0894394,19.8961278 21.1994124,19.8905835 L21.1994157,19.8905835 Z M12.7593896,19.9111508 C13.1428832,19.9165147 13.4868605,20.1819968 13.5759667,20.5713595 C13.6176825,20.7536399 13.5973792,20.934248 13.5285393,21.0937676 L13.5429737,21.1122781 L11.6128822,25.7645899 C9.80835162,24.6096254 8.37103658,22.8803027 7.60216864,20.7585247 L12.5841142,19.9152675 L12.5923624,19.9255511 C12.6480883,19.9153228 12.7046047,19.9103873 12.7593896,19.9111541 L12.7593896,19.9111508 Z M16.9680613,21.9493685 C17.1016467,21.9444718 17.2371952,21.9718101 17.3660395,22.0336942 C17.5349315,22.1148134 17.6654004,22.2425383 17.7475213,22.3956778 L17.7660799,22.3956778 L20.2219976,26.8217498 C19.9032659,26.9283198 19.5755924,27.0193981 19.2404553,27.0952943 C17.3621939,27.5206513 15.4899002,27.39177 13.7945455,26.8155797 L16.244277,22.3977345 L16.2484011,22.3977345 C16.3953962,22.123653 16.674174,21.9601378 16.9680613,21.9493685 Z" id="path3059"></path>
                </g>
                <g id="noun_Cloud-Docker_676618" transform="translate(860.000000, 22.000000)" fill="#61839E" fill-rule="nonzero">
                    <g id="Group">
                        <path d="M11.7106383,4.60625 L7.89787234,4.60625 L7.89787234,8.009375 C9.0893617,8.04375 10.3829787,8.1125 11.7106383,8.146875 L11.7106383,4.60625 Z" id="Path"></path>
                        <path d="M16.5106383,8.31875 L16.5106383,4.60625 L12.6978723,4.60625 L12.6978723,8.18125 C13.8893617,8.25 15.1148936,8.284375 16.3744681,8.353125 L16.5106383,8.353125 L16.5106383,8.31875 Z" id="Path"></path>
                        <rect id="Rectangle" x="17.4638298" y="4.60625" width="3.81276596" height="3.746875"></rect>
                        <rect id="Rectangle" x="7.89787234" y="0" width="3.81276596" height="3.746875"></rect>
                        <rect id="Rectangle" x="12.7319149" y="0" width="3.81276596" height="3.746875"></rect>
                        <path d="M30.1617021,20.28125 C29.3106383,19.6625 28.3574468,19.3875 27.5404255,19.59375 C27.2340426,19.04375 26.7234043,18.425 26.0425532,17.978125 C28.3234043,16.0875 29.8553191,13.715625 30.2297872,11.20625 C30.6723404,8.3875 29.412766,5.534375 29.0042553,4.709375 C30.1617021,3.9875 30.7744681,3.36875 30.9787234,2.54375 C31.2170213,1.546875 30.6042553,0.378125 30.093617,-1.83186799e-15 C30.0595745,0.584375 29.8212766,0.9625 29.2765957,1.375 C28.8340426,1.71875 27.7446809,2.028125 27.6425532,3.09375 C26.893617,2.8875 26.1787234,3.471875 25.7021277,3.678125 C25.1914894,3.884375 24.4085106,3.9875 24,3.953125 C24.2723404,4.778125 24.5787234,5.396875 25.4638298,5.70625 C26.212766,5.98125 27.1659574,5.534375 28.2212766,5.121875 C28.4255319,5.43125 28.6978723,7.046875 28.4255319,7.940625 C27.9829787,9.315625 24.6808511,9.453125 18.5191489,9.246875 C9.29361702,8.971875 0.544680851,8.009375 0.306382979,10.140625 C0.170212766,11.20625 0.10212766,13.40625 1.53191489,16.0875 C3.37021277,19.525 7.55744681,22.103125 12.8680851,22.20625 C14.5021277,22.240625 16.1021277,22.103125 17.6,21.79375 C18.7234043,22.378125 19.7446809,22.859375 20.8340426,23.134375 C22.6382979,23.615625 24.2382979,23.478125 24.9191489,23.16875 C25.6,22.859375 24.9191489,22.61875 24.2723404,22.515625 C23.6595745,22.4125 22.1276596,21.278125 20.5276596,21.003125 C22.3659574,20.35 24.0340426,19.45625 25.4297872,18.390625 C26.212766,18.871875 26.7914894,19.525 26.9957447,20.109375 L27.1319149,20.4875 L27.506383,20.35 C28.1531915,20.109375 29.0042553,20.28125 29.7531915,20.83125 C30.6042553,21.45 31.0808511,22.378125 31.012766,23.271875 C30.9446809,24.2 30.5702128,24.990625 29.9234043,25.50625 C29.106383,26.125 27.9148936,26.365625 26.5531915,26.090625 L26.1106383,26.021875 L26.0765957,26.46875 C26.0765957,26.74375 25.8382979,27.01875 25.4978723,27.225 C24.987234,27.534375 24.3744681,27.603125 23.9659574,27.396875 L23.693617,27.259375 L23.4893617,27.56875 C22.8085106,28.496875 21.6170213,29.0125 20.2212766,28.978125 C19.4382979,28.94375 18.6893617,28.7375 18.0765957,28.39375 C18.0085106,27.6375 17.6340426,26.95 17.0212766,26.503125 C16.4765957,26.090625 15.8297872,25.884375 15.1148936,25.953125 C14.7404255,25.09375 13.9234043,24.509375 12.9702128,24.509375 C12.7659574,24.509375 12.5957447,24.509375 12.4255319,24.578125 C11.8808511,23.821875 11.0297872,23.30625 10.0765957,23.16875 C8.85106383,22.996875 7.72765957,23.44375 6.9787234,24.303125 C6.50212766,24.0625 6.05957447,23.684375 5.78723404,23.203125 C5.58297872,22.825 5.3106383,22.06875 5.78723404,21.209375 L5.10638298,20.796875 C4.59574468,21.65625 4.59574468,22.653125 5.10638298,23.546875 C5.44680851,24.13125 5.92340426,24.6125 6.53617021,24.921875 C6.36595745,25.23125 6.26382979,25.575 6.19574468,25.953125 C6.19574468,26.021875 6.19574468,26.05625 6.16170213,26.125 C5.07234043,26.4 4.32340426,27.328125 4.2212766,28.4625 C4.11914894,29.90625 5.10638298,30.903125 6.05957447,31.315625 C6.53617021,31.521875 7.14893617,31.55625 7.62553191,31.453125 C8.23829787,32.278125 9.25957447,32.828125 10.4851064,32.965625 C10.6893617,33 10.893617,33 11.1319149,33 C11.7787234,33 12.4595745,32.8625 13.0723404,32.65625 C13.787234,32.38125 14.4340426,32.003125 14.8765957,31.521875 C15.9319149,31.453125 16.8510638,31.040625 17.4638298,30.353125 C17.7702128,30.009375 17.9744681,29.63125 18.0765957,29.253125 C18.7234043,29.5625 19.4723404,29.734375 20.2553191,29.76875 C20.3234043,29.76875 20.3914894,29.76875 20.4595745,29.76875 C21.8893617,29.76875 23.1489362,29.21875 24,28.290625 C24.612766,28.4625 25.3617021,28.359375 25.9744681,27.98125 C26.3829787,27.740625 26.6893617,27.396875 26.8255319,27.01875 C28.2553191,27.190625 29.5148936,26.915625 30.4340426,26.228125 C31.2510638,25.575 31.7276596,24.6125 31.8297872,23.44375 C31.8297872,22.240625 31.2170213,21.0375 30.1617021,20.28125 Z M10.8595745,15.74375 C11.3021277,15.74375 11.6425532,16.0875 11.6425532,16.534375 C11.6425532,16.98125 11.3021277,17.325 10.8595745,17.325 C10.4170213,17.325 10.0765957,16.98125 10.0765957,16.534375 C10.0425532,16.121875 10.4170213,15.74375 10.8595745,15.74375 Z M8.13617021,20.9 C6.74042553,20.28125 4.90212766,19.31875 3.33617021,17.53125 C3.81276596,17.6 4.32340426,17.66875 4.83404255,17.66875 C6.26382979,19.146875 8.37446809,20.55625 10.7234043,21.003125 C8.85106383,20.28125 7.31914894,19.490625 5.85531915,17.66875 C6.19574468,17.66875 6.50212766,17.634375 6.84255319,17.6 C8.5787234,19.284375 11.0978723,20.7625 12.8680851,21.140625 C11.2340426,20.384375 9.12340426,19.04375 7.76170213,17.496875 C8.17021277,17.428125 8.54468085,17.359375 8.95319149,17.25625 C10.1787234,18.90625 13.2425532,21.3125 16.6808511,21.484375 C12.6297872,22.06875 9.32765957,21.415625 8.13617021,20.9 Z M16.7489362,29.7 C16.2723404,30.215625 15.5234043,30.559375 14.6382979,30.559375 L14.4340426,30.559375 L14.2978723,30.73125 C13.6510638,31.521875 12.1191489,32.209375 10.6212766,32.003125 C9.53191489,31.865625 8.68085106,31.35 8.27234043,30.628125 L8.06808511,30.284375 L7.69361702,30.421875 C7.4893617,30.490625 6.84255319,30.559375 6.50212766,30.3875 C6.16170213,30.25 5.14042553,29.665625 5.20851064,28.4625 C5.27659574,27.603125 5.8893617,26.984375 6.70638298,26.915625 L7.14893617,26.88125 L7.14893617,26.434375 C7.14893617,26.296875 7.14893617,26.159375 7.18297872,26.021875 C7.35319149,24.715625 8.61276596,23.821875 9.97446809,24.028125 C10.7574468,24.13125 11.4723404,24.6125 11.8468085,25.3 L12.0510638,25.678125 L12.4255319,25.50625 C12.5957447,25.4375 12.8,25.403125 13.0042553,25.403125 C13.6851064,25.403125 14.2638298,25.884375 14.4,26.5375 L14.5021277,26.984375 L14.9446809,26.88125 C15.5234043,26.778125 16.0680851,26.88125 16.5106383,27.225 C16.9191489,27.534375 17.1574468,27.98125 17.1914894,28.4625 C17.2255319,28.909375 17.0553191,29.35625 16.7489362,29.7 Z" id="Shape"></path>
                    </g>
                </g>
                <g id="noun_Lock_1559" transform="translate(307.000000, 34.000000)" fill="#FFFFFF" fill-rule="nonzero">
                    <path d="M8.48576474,12 L0.514371374,12 C0.23019959,12 0,11.7677792 0,11.4809748 L0,6.24095143 C0,5.95442203 0.23019959,5.72220122 0.514371374,5.72220122 L1.02860645,5.72220122 L1.02860645,3.5018733 C1.02860645,1.5679373 2.58276034,0 4.5001362,0 C6.41710318,0 7.97152966,1.56779981 7.97152966,3.5018733 L7.97152966,5.72220122 L8.48576474,5.72220122 C8.76980023,5.72220122 9,5.95442203 9,6.24095143 L9,11.4808373 C9.00013611,11.7677792 8.76980023,12 8.48576474,12 Z M6.33750782,3.60554085 C6.33750782,2.58192692 5.51470444,1.75217406 4.5001362,1.75217406 C3.48529538,1.75217406 2.66276458,2.58192692 2.66276458,3.60554085 L2.66276458,5.72220122 L6.33764412,5.72220122 L6.33764412,3.60554085 L6.33750782,3.60554085 Z" id="Shape"></path>
                </g>
                <g id="noun_Cloud_677946" transform="translate(18.000000, 21.000000)" fill="#45739E" fill-rule="nonzero">
                    <g id="Group">
                        <path d="M31.0731707,0.223874545 C38.1432049,0.223874545 43.317839,5.75762182 43.8353659,11.8147836 C48.5529073,13.181188 52,17.4360036 52,22.4783891 C52,28.6237964 46.889478,33.6057236 40.5853659,33.6057236 L10.7804878,33.6057236 C4.33198049,33.6057236 0,29.4822036 0,24.3329345 C0,20.0269273 3.11099512,15.7960291 7.6097561,15.0602135 C7.6097561,7.64205636 14.5853659,4.55113491 19.6585366,7.02387455 C21.5609756,3.31477127 25.6527415,0.223874545 31.0731707,0.223874545 Z" id="Path"></path>
                    </g>
                </g>
                <g id="noun_Cloud_677946" transform="translate(149.000000, 21.000000)" fill="#45739E" fill-rule="nonzero">
                    <g id="Group">
                        <path d="M31.0731707,0.223874545 C38.1432049,0.223874545 43.317839,5.75762182 43.8353659,11.8147836 C48.5529073,13.181188 52,17.4360036 52,22.4783891 C52,28.6237964 46.889478,33.6057236 40.5853659,33.6057236 L10.7804878,33.6057236 C4.33198049,33.6057236 0,29.4822036 0,24.3329345 C0,20.0269273 3.11099512,15.7960291 7.6097561,15.0602135 C7.6097561,7.64205636 14.5853659,4.55113491 19.6585366,7.02387455 C21.5609756,3.31477127 25.6527415,0.223874545 31.0731707,0.223874545 Z" id="Path"></path>
                    </g>
                </g>
                <g id="noun_Lock_1559" transform="translate(39.000000, 34.000000)" fill="#FFFFFF" fill-rule="nonzero">
                    <path d="M8.48576474,12 L0.514371374,12 C0.23019959,12 0,11.7677792 0,11.4809748 L0,6.24095143 C0,5.95442203 0.23019959,5.72220122 0.514371374,5.72220122 L1.02860645,5.72220122 L1.02860645,3.5018733 C1.02860645,1.5679373 2.58276034,0 4.5001362,0 C6.41710318,0 7.97152966,1.56779981 7.97152966,3.5018733 L7.97152966,5.72220122 L8.48576474,5.72220122 C8.76980023,5.72220122 9,5.95442203 9,6.24095143 L9,11.4808373 C9.00013611,11.7677792 8.76980023,12 8.48576474,12 Z M6.33750782,3.60554085 C6.33750782,2.58192692 5.51470444,1.75217406 4.5001362,1.75217406 C3.48529538,1.75217406 2.66276458,2.58192692 2.66276458,3.60554085 L2.66276458,5.72220122 L6.33764412,5.72220122 L6.33764412,3.60554085 L6.33750782,3.60554085 Z" id="Shape"></path>
                </g>
                <rect id="Rectangle" fill="#45739E" x="45" y="37" width="3" height="3"></rect>
                <g id="noun_Arrow-Up_3165036" transform="translate(168.000000, 37.000000)" fill="#FFFFFF" fill-rule="nonzero" stroke="#FFFFFF">
                    <path d="M15.76,7.65 C15.5876167,7.85157624 15.3422137,7.97641189 15.0777834,7.99704121 C14.813353,8.01767053 14.551559,7.93240344 14.35,7.76 L9,3.17 L9,19 C9,19.5522847 8.55228475,20 8,20 C7.44771525,20 7,19.5522847 7,19 L7,3.17 L1.65,7.76 C1.23026359,8.11898509 0.598985087,8.06973641 0.24,7.65 C-0.118985087,7.23026359 -0.0697364099,6.59898509 0.35,6.24 L7.35,0.24 C7.40112835,0.206238408 7.45459703,0.176162273 7.51,0.15 L7.63,0.07 C7.86759191,-0.024624328 8.13240809,-0.024624328 8.37,0.07 L8.49,0.15 C8.54540297,0.176162273 8.59887165,0.206238408 8.65,0.24 L15.65,6.24 C15.8515762,6.41238328 15.9764119,6.6577863 15.9970412,6.92221664 C16.0176705,7.18664699 15.9324034,7.448441 15.76,7.65 Z" id="Path"></path>
                </g>
                <g id="Group-25" transform="translate(165.000000, 332.000000)">
                    <g id="Group-23" transform="translate(0.000000, 27.818182)">
                        <path d="M0,5.06269592 C0,5.70219436 0.485961123,6.18181818 1.13390929,6.18181818 L23.8660907,6.18181818 C24.5140389,6.18181818 25,5.70219436 25,5.06269592 L25,1.11912226 C25,0.479623824 24.5140389,0 23.8660907,0 L1.18790497,0 C0.539956803,0 0.0539956803,0.479623824 0.0539956803,1.11912226 L0.0539956803,5.06269592 L0,5.06269592 Z M3.13174946,1.70532915 C3.88768898,1.70532915 4.53563715,2.34482759 4.53563715,3.09090909 C4.53563715,3.8369906 3.88768898,4.47648903 3.13174946,4.47648903 C2.37580994,4.47648903 1.72786177,3.8369906 1.72786177,3.09090909 C1.78185745,2.34482759 2.37580994,1.70532915 3.13174946,1.70532915 Z M7.97579056,1.70532915 C8.73173008,1.70532915 9.37967825,2.34482759 9.37967825,3.09090909 C9.37967825,3.8369906 8.73173008,4.47648903 7.97579056,4.47648903 C7.21985103,4.47648903 6.57190287,3.8369906 6.57190287,3.09090909 C6.62589855,2.34482759 7.21985103,1.70532915 7.97579056,1.70532915 Z M12.8198317,1.70532915 C13.5757712,1.70532915 14.2237193,2.34482759 14.2237193,3.09090909 C14.2237193,3.8369906 13.5757712,4.47648903 12.8198317,4.47648903 C12.0638921,4.47648903 11.415944,3.8369906 11.415944,3.09090909 C11.4699396,2.34482759 12.0638921,1.70532915 12.8198317,1.70532915 Z" id="Shape" fill="#0A162F" fill-rule="nonzero"></path>
                        <rect id="Rectangle" fill="#FFFFFF" x="16.875" y="3.09090909" width="5.625" height="1" rx="0.5"></rect>
                    </g>
                    <path d="M1.25,0 L23.75,0 C24.4403559,-1.26816328e-16 25,0.559644063 25,1.25 L25,26.7878788 L25,26.7878788 L0,26.7878788 L0,1.25 C-8.45442189e-17,0.559644063 0.559644063,1.26816328e-16 1.25,0 Z" id="Rectangle" fill="#0A162F"></path>
                </g>
                <g id="noun_Folder_3190866" transform="translate(169.000000, 338.000000)" fill="#FFFFFF" fill-rule="nonzero">
                    <path d="M16.2272727,1.55556713 L7.27136364,1.55556713 L5.95772727,0.225568363 C5.81189909,0.0799789871 5.61448412,-0.00118223864 5.40909091,0 L0.772727273,0 C0.345961784,0 0,0.348235666 0,0.777790072 L0,13.2222229 C0,13.6517774 0.345961784,14 0.772727273,14 L16.2272727,14 C16.6540382,14 17,13.6517774 17,13.2222229 L17,2.33334418 C17,1.90378977 16.6540382,1.55556713 16.2272727,1.55556713 Z" id="Path"></path>
                </g>
                <g id="noun_strategy_1474639" transform="translate(854.000000, 324.000000)" fill="#94A3B0" fill-rule="nonzero">
                    <path d="M30.0602142,11 L7.94003295,11 C5.76367381,11 4,12.7319593 4,14.8689402 L4,29.8620241 L4,31.0222451 L4,41 L10.2194399,34.8923987 L30.0602142,34.8923987 C32.2378089,34.8923987 34,33.1604394 34,31.0222451 L34,14.8689402 C34,12.7317166 32.2378089,11 30.0602142,11 Z M29.4234481,27.1538462 L9.73165287,27.1538462 C9.11504516,27.1538462 8.61538462,26.6370707 8.61538462,25.9997402 C8.61538462,25.3621499 9.11529612,24.8461538 9.73165287,24.8461538 L29.4234481,24.8461538 C30.0400558,24.8461538 30.5384615,25.3621499 30.5384615,25.9997402 C30.5384615,26.6370707 30.0400558,27.1538462 29.4234481,27.1538462 Z M29.4234481,21.3846154 L9.73165287,21.3846154 C9.11504516,21.3846154 8.61538462,20.8684176 8.61538462,20.2303795 C8.61538462,19.5936404 9.11529612,19.0769231 9.73165287,19.0769231 L29.4234481,19.0769231 C30.0400558,19.0769231 30.5384615,19.5936404 30.5384615,20.2303795 C30.5384615,20.8684176 30.0400558,21.3846154 29.4234481,21.3846154 Z" id="Shape"></path>
                </g>
                <g id="Group-25" transform="translate(301.000000, 359.000000)">
                    <g id="Group-23" transform="translate(0.000000, 0.818182)">
                        <path d="M0,5.06269592 C0,5.70219436 0.485961123,6.18181818 1.13390929,6.18181818 L23.8660907,6.18181818 C24.5140389,6.18181818 25,5.70219436 25,5.06269592 L25,1.11912226 C25,0.479623824 24.5140389,0 23.8660907,0 L1.18790497,0 C0.539956803,0 0.0539956803,0.479623824 0.0539956803,1.11912226 L0.0539956803,5.06269592 L0,5.06269592 Z M3.13174946,1.70532915 C3.88768898,1.70532915 4.53563715,2.34482759 4.53563715,3.09090909 C4.53563715,3.8369906 3.88768898,4.47648903 3.13174946,4.47648903 C2.37580994,4.47648903 1.72786177,3.8369906 1.72786177,3.09090909 C1.78185745,2.34482759 2.37580994,1.70532915 3.13174946,1.70532915 Z M7.97579056,1.70532915 C8.73173008,1.70532915 9.37967825,2.34482759 9.37967825,3.09090909 C9.37967825,3.8369906 8.73173008,4.47648903 7.97579056,4.47648903 C7.21985103,4.47648903 6.57190287,3.8369906 6.57190287,3.09090909 C6.62589855,2.34482759 7.21985103,1.70532915 7.97579056,1.70532915 Z M12.8198317,1.70532915 C13.5757712,1.70532915 14.2237193,2.34482759 14.2237193,3.09090909 C14.2237193,3.8369906 13.5757712,4.47648903 12.8198317,4.47648903 C12.0638921,4.47648903 11.415944,3.8369906 11.415944,3.09090909 C11.4699396,2.34482759 12.0638921,1.70532915 12.8198317,1.70532915 Z" id="Shape" fill="#0A162F" fill-rule="nonzero"></path>
                        <rect id="Rectangle" fill="#FFFFFF" x="16.875" y="3.09090909" width="5.625" height="1" rx="0.5"></rect>
                    </g>
                </g>
                <path d="M313.536443,353.356535 C311.495627,353.356535 309.600583,352.526423 308.142857,351.092592 L308.142857,352.601887 C308.142857,352.979211 307.778426,353.356535 307.413994,353.356535 C307.049563,353.356535 306.685131,352.979211 306.685131,352.601887 L306.685131,349.055042 L306.685131,348.828648 C306.685131,348.753183 306.685131,348.677718 306.685131,348.602254 C306.685131,348.602254 306.685131,348.602254 306.685131,348.602254 C306.685131,348.602254 306.685131,348.602254 306.685131,348.602254 C306.685131,348.526789 306.758017,348.451324 306.758017,348.375859 C306.758017,348.375859 306.830904,348.300394 306.830904,348.22493 C306.830904,348.22493 306.830904,348.22493 306.830904,348.22493 C306.830904,348.149465 306.90379,348.149465 306.976676,348.149465 C307.049563,348.149465 307.122449,348.074 307.122449,348.074 C307.195335,348.074 307.268222,348.074 307.341108,348.074 L310.985423,348.074 C311.349854,348.074 311.714286,348.451324 311.714286,348.828648 C311.714286,349.205972 311.349854,349.583296 310.985423,349.583296 L308.725948,349.583296 C309.892128,351.017127 311.641399,351.847239 313.463557,351.847239 C316.889213,351.847239 319.731778,348.979577 319.731778,345.357268 C319.731778,341.810423 316.962099,338.867296 313.463557,338.867296 C310.037901,338.867296 307.195335,341.734958 307.195335,345.357268 C307.195335,345.734592 306.90379,346.111915 306.466472,346.111915 C306.102041,346.111915 305.737609,345.734592 305.737609,345.357268 C305.737609,340.98031 309.163265,337.358 313.463557,337.358 C317.690962,337.358 321.189504,340.904845 321.189504,345.357268 C321.189504,349.80969 317.763848,353.356535 313.536443,353.356535 Z M324.979592,332 L302.093294,332 C301.510204,332 301,332.528254 301,333.131972 L301,358.79 L326,358.79 L326,333.131972 C326,332.528254 325.562682,332 324.979592,332 Z" id="Shape" fill="#0A162F" fill-rule="nonzero"></path>
            </g>
        </g>
    </g>
</svg>