<?xml version="1.0" encoding="UTF-8"?>
<svg width="1440px" height="253px" viewBox="0 0 1440 253" version="1.1" xmlns="http://www.w3.org/2000/svg" xmlns:xlink="http://www.w3.org/1999/xlink">
    <!-- Generator: Sketch 64 (93537) - https://sketch.com -->
    <title>servinga_logo_blau</title>
    <desc>Created with Sketch.</desc>
    <g id="Final-Designs" stroke="none" stroke-width="1" fill="none" fill-rule="evenodd">
        <g id="Jobs-2" transform="translate(0.000000, -1154.000000)" fill="#0F162D" fill-rule="nonzero">
            <g id="servinga_logo_blau" transform="translate(0.000000, 1154.000000)">
                <path d="M189.463186,80.0554076 L52.1376665,80.0554076 C43.6986681,80.0554076 39.3027171,84.1598295 39.3027171,92.1231753 L39.3027171,98.0534896 C39.3027171,106.492488 43.6679808,110.627597 52.1376665,110.627597 L155.845285,110.627597 C181.522856,110.627597 194.357805,121.675013 194.357805,144.007672 L194.357805,168.143207 C194.357805,190.997549 181.522856,202.551305 155.845285,202.551305 L2.82322856,202.551305 L2.82322856,170.168567 L144.291529,170.168567 C152.247203,170.168567 156.106127,165.803303 156.106127,157.072776 L156.106127,149.400959 C156.106127,141.445285 152.270218,137.586361 144.291529,137.586361 L39.2797017,137.586361 C13.5842302,137.571018 0.736494406,126.523601 0.736494406,104.444113 L0.736494406,83.1394779 C0.736494406,60.7991476 13.5714438,49.4985615 39.2490144,49.4985615 L189.463186,49.4985615 L189.463186,80.0554076 Z" id="Path"></path>
                <path d="M395.89643,104.190943 C395.89643,127.037613 382.800639,138.591369 356.869899,138.591369 L242.613532,138.591369 L242.613532,151.43399 C242.613532,164.01577 249.034843,170.176239 262.130634,170.176239 L393.073202,170.176239 L393.073202,202.52829 L258.816409,202.52829 C222.613106,202.52829 204.384869,186.86244 204.384869,155.799254 L204.384869,92.637187 C204.384869,63.8832179 222.613106,49.4985615 258.816409,49.4985615 L356.869899,49.4985615 C382.800639,49.4985615 395.89643,61.3131593 395.89643,84.934683 L395.89643,104.190943 Z M341.978903,113.397123 C352.504635,113.397123 357.63708,108.257006 357.63708,98.245285 L357.63708,95.4220565 C357.63708,85.1494939 352.504635,80.0170485 341.978903,80.0170485 L274.466915,80.0170485 C255.210655,80.0170485 242.628876,81.2982419 242.628876,96.7032499 L242.628876,113.397123 L341.978903,113.397123 Z" id="Shape"></path>
                <path d="M551.46553,80.0554076 L471.632605,80.0554076 C451.862334,80.0554076 447.75024,89.2999467 447.75024,104.958125 L447.75024,202.52829 L409.498562,202.52829 L409.498562,100.355035 C409.498562,66.4609483 430.296857,49.5139052 471.640277,49.5139052 L534.633564,49.5139052 L551.46553,80.0554076 Z" id="Path"></path>
                <rect id="Rectangle" x="756.755674" y="49.5062334" width="38.2516782" height="153.022056"></rect>
                <path d="M1017.6358,202.52829 L979.376452,202.52829 L979.376452,99.8256793 C979.376452,86.7298881 971.420778,80.0554076 955.501758,80.0554076 L852.308151,80.0554076 L852.308151,202.52829 L814.056473,202.52829 L814.056473,49.4985615 L955.524774,49.4985615 C996.860522,49.4985615 1017.66649,66.4456047 1017.66649,100.339691 L1017.6358,202.52829 Z" id="Path"></path>
                <path d="M1234.83261,201.753436 C1234.83261,235.386681 1214.03431,252.333724 1172.69089,252.333724 L1039.44678,252.333724 L1039.44678,219.981673 L1169.36132,219.981673 C1187.58956,219.981673 1196.58093,212.309856 1196.58093,196.874161 L1196.58093,180.955141 L1081.55738,180.955141 C1047.91646,180.955141 1031.23026,166.838998 1031.23026,138.338199 L1031.23026,90.8419819 C1031.23026,63.3692062 1052.02856,49.4985615 1093.37198,49.4985615 L1172.70623,49.4985615 C1214.04198,49.4985615 1234.84795,63.1083644 1234.84795,90.3279702 L1234.83261,201.753436 Z M1093.3643,80.0554076 C1077.44529,80.0554076 1069.48961,85.7018647 1069.48961,97.2556207 L1069.48961,129.34683 C1069.48961,141.928609 1076.6781,148.34992 1091.30826,148.34992 L1196.58093,148.34992 L1196.58093,97.2863079 C1196.58093,85.7325519 1188.61758,80.0860948 1172.69856,80.0860948 L1093.3643,80.0554076 Z" id="Shape"></path>
                <path d="M1439.96931,160.962387 C1439.96931,188.688332 1421.22706,202.558977 1383.48173,202.558977 L1290.53767,202.558977 C1262.55855,202.558977 1248.43474,190.744379 1248.43474,166.869686 L1248.43474,146.807885 C1248.43474,122.933191 1262.55855,111.118594 1290.53767,111.118594 L1401.70996,111.118594 L1401.70996,97.5164624 C1401.70996,85.7018647 1394.52147,79.7945658 1380.14449,79.7945658 L1251.51113,79.7945658 L1251.51113,49.4985615 L1383.46638,49.4985615 C1421.21172,49.4985615 1439.95397,64.6503996 1439.95397,95.2072456 L1439.96931,160.962387 Z M1302.35226,136.796164 C1291.82653,136.796164 1286.68641,141.928609 1286.68641,152.462014 L1286.68641,155.530741 C1286.68641,166.056473 1291.82653,171.44976 1302.35226,171.44976 L1369.86425,171.44976 C1389.12051,171.44976 1401.69462,170.168567 1401.69462,154.249547 L1401.69462,136.796164 L1302.35226,136.796164 Z" id="Shape"></path>
                <path d="M728.02472,0.767181673 L634.957912,158.660842 C629.817794,167.652211 625.713372,169.700586 616.722003,169.700586 L608.513159,169.700586 C599.007778,169.700586 595.417368,166.309643 590.277251,157.065104 L555.171018,92.4530634 L512.822589,92.4530634 L566.149387,182.980501 C573.054022,194.534257 583.088759,201.032286 598.754608,201.032286 L625.713372,201.032286 C642.399574,201.032286 653.186148,196.129995 660.113799,184.576239 L771.800107,0.759509856 L728.02472,0.767181673 Z" id="Path"></path>
            </g>
        </g>
    </g>
</svg>