<?xml version="1.0" encoding="UTF-8"?>
<svg width="328px" height="540px" viewBox="0 0 328 540" version="1.1" xmlns="http://www.w3.org/2000/svg" xmlns:xlink="http://www.w3.org/1999/xlink">
    <!-- Generator: Sketch 64 (93537) - https://sketch.com -->
    <title>Group 5</title>
    <desc>Created with Sketch.</desc>
    <g id="Final-Designs" stroke="none" stroke-width="1" fill="none" fill-rule="evenodd">
        <g id="iPhone-11-Pro" transform="translate(-25.000000, -40.000000)">
            <g id="Group-5" transform="translate(25.000000, 40.000000)">
                <circle id="Combined-Shape" fill="#396486" opacity="0.8" cx="48.5" cy="209.5" r="48.5"></circle>
                <text id="CONTAINER" font-family="Averta-Semibold" font-size="8" font-weight="500" letter-spacing="0.348571429" fill="#FFFFFF">
                    <tspan x="23" y="227">CONTAINER</tspan>
                </text>
                <g id="Group-3" transform="translate(32.000000, 191.000000)" fill="#FFFFFF" fill-rule="nonzero">
                    <g id="Group-38">
                        <g id="Group-30">
                            <g id="noun_Cloud-Docker_676618" transform="translate(-0.000000, 0.085984)">
                                <g id="Group">
                                    <rect id="Rectangle" x="0.171606955" y="-3.66373598e-13" width="9.60998946" height="9.52951389" rx="4.57416667"></rect>
                                    <rect id="Rectangle" x="12.3557007" y="-3.66373598e-13" width="9.60998946" height="9.52951389" rx="4.57416667"></rect>
                                </g>
                            </g>
                            <g id="noun_Cloud-Docker_676618" transform="translate(-0.000000, 11.409722)">
                                <g id="Group">
                                    <rect id="Rectangle" x="0.171606955" y="0" width="9.60575" height="9.52951389" rx="4.57416667"></rect>
                                    <rect id="Rectangle" x="12.3557007" y="0" width="9.60575" height="9.52951389" rx="4.57416667"></rect>
                                </g>
                            </g>
                        </g>
                    </g>
                    <rect id="Rectangle" x="25" y="12" width="9" height="9" rx="4.5"></rect>
                </g>
                <rect id="Rectangle" fill="#61839E" x="97" y="211" width="123" height="1"></rect>
                <rect id="Rectangle" fill="#61839E" transform="translate(141.500000, 202.500000) rotate(90.000000) translate(-141.500000, -202.500000) " x="133" y="202" width="17" height="1"></rect>
                <rect id="Rectangle" fill="#61839E" transform="translate(219.500000, 203.500000) rotate(90.000000) translate(-219.500000, -203.500000) " x="211" y="203" width="17" height="1"></rect>
                <polygon id="Rectangle" fill="#61839E" transform="translate(135.500000, 201.500000) scale(-1, 1) rotate(-90.000000) translate(-135.500000, -201.500000) " points="130 201.5 141 201.5 141 201.5 130 201.5"></polygon>
                <g id="Group-2" transform="translate(125.000000, 179.000000)">
                    <g id="Group-26" transform="translate(29.762507, 2.182520)" stroke="#61839E" stroke-width="0.5">
                        <polyline id="Path-2" transform="translate(0.946085, 1.984571) scale(-1, 1) translate(-0.946085, -1.984571) " points="1.89216963 -6.50999564e-18 0 1.98457088 1.89216963 3.96914176"></polyline>
                    </g>
                    <text id="Docker" font-family="Averta-Regular" font-size="8.5" font-weight="normal" letter-spacing="-0.0369565217" fill="#61839E">
                        <tspan x="0" y="7">Docker</tspan>
                    </text>
                </g>
                <g id="Group-2" transform="translate(195.000000, 179.000000)">
                    <g id="Group-26" transform="translate(46.000000, 2.000000)" stroke="#61839E" stroke-width="0.5">
                        <polyline id="Path-2" transform="translate(0.946085, 1.984571) scale(-1, 1) translate(-0.946085, -1.984571) " points="1.89216963 -6.50999564e-18 0 1.98457088 1.89216963 3.96914176"></polyline>
                    </g>
                    <text id="Kubernetes" font-family="Averta-Regular" font-size="8.5" font-weight="normal" letter-spacing="-0.0369565217" fill="#61839E">
                        <tspan x="0" y="7">Kubernetes</tspan>
                    </text>
                </g>
                <g id="Kubernetes_logo_without_workmark" transform="translate(204.000000, 140.000000)" fill="#61839E" fill-rule="nonzero" stroke="#FFFFFF" stroke-width="0.25">
                    <path d="M15.4990812,0 C15.0131411,0 14.6191288,0.448102427 14.6191865,1.00079089 C14.6191871,1.00927329 14.6208831,1.01737877 14.6210636,1.02581066 C14.6203477,1.10090755 14.616804,1.19137904 14.6191865,1.25676241 C14.6307752,1.5755374 14.6986568,1.81951421 14.739514,2.11320846 C14.8135322,2.74180737 14.8755544,3.26287762 14.8372801,3.74719205 C14.8000574,3.92982253 14.6686483,4.09684744 14.5515023,4.21294473 L14.530821,4.59401511 C14.0027747,4.63879942 13.4711962,4.720807 12.9402422,4.84421283 C10.6555478,5.37522816 8.68846616,6.57992727 7.19084517,8.2064853 C7.0936675,8.13862059 6.92365621,8.01377054 6.87310242,7.97553356 C6.71600468,7.99725041 6.55723017,8.04686932 6.35042996,7.92356941 C5.95666372,7.6522393 5.5980301,7.27770948 5.16407628,6.82654863 C4.96523634,6.61073562 4.82124406,6.40523045 4.58500032,6.19720513 C4.53135111,6.14996349 4.44947669,6.08606807 4.38946818,6.03746351 C4.20477272,5.88672469 3.98693066,5.8081118 3.77655011,5.80073797 C3.50606057,5.79125725 3.24566891,5.89951449 3.07526656,6.11829662 C2.77232951,6.50724276 2.86931887,7.10172301 3.29147998,7.44626914 C3.29576364,7.44976113 3.30032526,7.45247589 3.3046408,7.45589213 C3.36265188,7.50402987 3.43368961,7.56571 3.48701213,7.60601077 C3.7377066,7.79548666 3.96670963,7.89248023 4.21649743,8.04289448 C4.74274964,8.37557647 5.17901915,8.65142831 5.5250587,8.98402284 C5.66018766,9.1314729 5.68380553,9.39129361 5.70178968,9.50366426 L5.98380719,9.76156038 C4.47409328,12.0873171 3.77538534,14.9600969 4.18829869,17.8872126 L3.8197958,17.9969146 C3.72267348,18.1252998 3.58543338,18.3273136 3.44188933,18.387608 C2.98914939,18.5335824 2.47961608,18.5871867 1.86447136,18.6532025 C1.57566677,18.677785 1.3264764,18.663115 1.02029893,18.722488 C0.952910732,18.7355556 0.859016799,18.7605963 0.785284335,18.7783014 C0.782721359,18.7788557 0.780326843,18.7796317 0.777763868,18.7802229 C0.77374493,18.7811775 0.76846496,18.7831729 0.76460305,18.7840721 C0.245983218,18.9123452 -0.0871794889,19.4003129 0.0200768108,19.8810929 C0.127358379,20.3619855 0.633935837,20.6544283 1.15566734,20.5393053 C1.15943359,20.5384247 1.16490247,20.5382768 1.16882815,20.5373838 C1.17471818,20.5360043 1.1799037,20.5330789 1.18574921,20.5316131 C1.25847814,20.5152704 1.34962139,20.4970874 1.41324333,20.479649 C1.71426296,20.397145 1.93227228,20.2759212 2.20289238,20.1697887 C2.78509324,19.9560339 3.26729296,19.7774651 3.73706766,19.7078852 C3.93327243,19.6921546 4.13999082,19.8318084 4.24281907,19.890722 L4.62636289,19.8233611 C5.50897573,22.6245175 7.35864844,24.888596 9.70079804,26.3092559 L9.54098812,26.7018739 C9.59859008,26.8543279 9.66212238,27.0606004 9.61921421,27.2111576 C9.44842861,27.6645128 9.15589508,28.1430306 8.82278351,28.6765113 C8.66149356,28.9229781 8.49642352,29.1142486 8.3508742,29.3963109 C8.31604542,29.4638036 8.2716879,29.5674812 8.2380672,29.6388102 C8.01192134,30.1341161 8.17780479,30.7045878 8.61221043,30.9186678 C9.0493451,31.1340922 9.591945,30.9068837 9.82676586,30.410574 C9.82712685,30.4098719 9.82831207,30.4093545 9.82864297,30.4086524 C9.82888363,30.4080982 9.82840232,30.4072667 9.82864297,30.4067309 C9.8620898,30.3363645 9.90947476,30.2438718 9.93768974,30.1777038 C10.0623568,29.8853484 10.1038385,29.6348095 10.1915055,29.3520513 C10.4243163,28.7534158 10.5522274,28.1252954 10.8727142,27.7339042 C10.9604739,27.6267284 11.1035511,27.58551 11.2518914,27.5448539 L11.4511837,27.1753311 C13.4930351,27.9776144 15.7785604,28.192902 18.0616743,27.6622544 C18.58251,27.5412005 19.0853266,27.3845303 19.5714081,27.1965017 C19.6274193,27.2982024 19.7315116,27.4937027 19.7594197,27.5429293 C19.9101654,27.5931339 20.0747042,27.6190596 20.2087676,27.821996 C20.4485436,28.2413415 20.6125205,28.737437 20.8122851,29.3366545 C20.8999665,29.6194078 20.9432989,29.8699578 21.067981,30.162307 C21.0963987,30.2289412 21.1435467,30.3227329 21.1770278,30.3932587 C21.4113547,30.8911808 21.9556741,31.1191659 22.3934633,30.9032772 C22.8278154,30.6890833 22.9938818,30.1186633 22.7676066,29.6234196 C22.7339816,29.5520931 22.6877512,29.4484111 22.6529194,29.3809203 C22.5073557,29.098866 22.3423121,28.9095028 22.1810101,28.6630453 C21.8478709,28.1295824 21.5715707,27.686415 21.4007617,27.233069 C21.3293407,26.9992492 21.4128113,26.8538315 21.4684459,26.70188 C21.4351284,26.6627864 21.3638326,26.4419768 21.3217968,26.338131 C23.7558651,24.8669278 25.5512208,22.5184177 26.3943518,19.8060459 C26.5082057,19.8243631 26.7060926,19.8602031 26.7703752,19.8734068 C26.9027077,19.7840624 27.0243828,19.667489 27.2629657,19.6867208 C27.7327435,19.7562755 28.2149293,19.9349003 28.797141,20.1486243 C29.0677665,20.2547426 29.2857668,20.3779212 29.5867901,20.4604092 C29.6504126,20.4778439 29.7415541,20.4941096 29.8142842,20.5104487 C29.8201321,20.5119145 29.8253122,20.514846 29.8312052,20.5162194 C29.8351339,20.5171186 29.8405998,20.5172602 29.8443661,20.5181409 C30.3661276,20.633121 30.8727954,20.3408494 30.9799566,19.8599285 C31.0870926,19.3791202 30.7540839,18.8910391 30.2354304,18.7629077 C30.1599892,18.7453473 30.0529989,18.7155238 29.9797345,18.7013205 C29.673554,18.6419641 29.4243678,18.6566021 29.135562,18.632035 C28.5204143,18.5660518 28.0108912,18.5123903 27.5581441,18.3664405 C27.3735461,18.2931346 27.2422225,18.0682824 27.1783575,17.9757471 L26.8230154,17.8698943 C27.0072524,16.5054671 26.9575746,15.0854575 26.638764,13.6646479 C26.3169848,12.2306094 25.7483184,10.9190419 24.9899016,9.76348805 C25.0810526,9.67866471 25.2531895,9.52262632 25.302001,9.47672297 C25.3162694,9.31510787 25.3040104,9.1456595 25.4674512,8.96670454 C25.8134733,8.63409153 26.2497777,8.35828649 26.7760125,8.02557618 C27.0257925,7.87514838 27.2566931,7.7781819 27.5073779,7.58869247 C27.5640672,7.5458426 27.6414769,7.47798405 27.7010299,7.42895084 C28.1231014,7.08428893 28.2202779,6.48984439 27.9172434,6.10097831 C27.6142089,5.71211224 27.0269933,5.67548329 26.6049219,6.0201452 C26.5448448,6.06885139 26.4633247,6.13238898 26.4093897,6.17988683 C26.1731568,6.38792569 26.0272628,6.59340685 25.8284336,6.80923033 C25.3945033,7.26041458 25.0358324,7.63682404 24.64208,7.90817571 C24.471455,8.00985976 24.2215379,7.97467626 24.1081238,7.96783824 L23.773463,8.21226217 C21.8651415,6.16383907 19.2669188,4.85419549 16.4692214,4.5997889 C16.4613965,4.47977282 16.4511452,4.26283523 16.4485401,4.19754795 C16.3340058,4.08535775 16.1956467,3.98957682 16.1608823,3.74719205 C16.1226079,3.26287762 16.1865102,2.74180737 16.2605284,2.11320846 C16.3013856,1.81951421 16.3692672,1.5755374 16.3808559,1.25676241 C16.3834911,1.18429714 16.3792616,1.0791445 16.3789788,1.00079089 C16.3789211,0.448102427 15.9850243,0 15.4990842,0 L15.4990812,0 Z M14.3973327,6.98629025 L14.1359965,11.711178 L14.1171953,11.720801 C14.0996672,12.143495 13.7598251,12.4810172 13.3425872,12.4810172 C13.1716735,12.4810172 13.0139163,12.4248318 12.8857189,12.3289739 L12.8781984,12.3328231 L9.09352333,9.58642197 C10.256708,8.41557977 11.7445126,7.55032738 13.4591545,7.15180567 C13.7723663,7.07900783 14.0854385,7.02499161 14.3973327,6.98629025 Z M16.6027097,6.98629025 C18.604566,7.2383245 20.4558968,8.16622702 21.8745571,9.58834657 L18.1143236,12.3174263 L18.1011628,12.3116556 C17.7674074,12.5611876 17.2971689,12.4992741 17.0370167,12.1653862 C16.9304474,12.0286036 16.8745313,11.8677732 16.8678062,11.7054073 L16.8640459,11.7034858 L16.6027097,6.98629025 Z M7.72103809,11.3512782 L11.1766927,14.5153171 L11.1729325,14.5345631 C11.4848435,14.8121344 11.5308393,15.2938055 11.2706985,15.6277347 C11.1641365,15.7645228 11.0214955,15.8562685 10.8683536,15.899103 L10.8645933,15.9144998 L6.43503823,17.2232263 C6.20958786,15.1129328 6.69545997,13.0615596 7.72103809,11.3512782 Z M23.2526827,11.3531997 C23.766126,12.2051074 24.1549312,13.1566027 24.3863931,14.1881324 C24.6150791,15.2072935 24.6724711,16.2246322 24.578165,17.2078264 L20.1260485,15.8952507 L20.1222883,15.8760047 C19.7236133,15.764468 19.4786007,15.349335 19.5714141,14.9329518 C19.6094394,14.7623788 19.6978915,14.6180789 19.8177094,14.5114648 L19.8158323,14.5018418 L23.2526857,11.3531997 L23.2526827,11.3531997 Z M14.7902771,14.759738 L16.2060051,14.759738 L17.0858997,15.8856277 L16.7700401,17.2905841 L15.4990812,17.9160785 L14.224362,17.2886596 L13.9085024,15.8837031 L14.7902771,14.759738 Z M19.328879,18.6127829 C19.3890409,18.6096727 19.4489406,18.6152217 19.5074901,18.6262551 L19.5150106,18.6166321 L24.0968551,19.4095664 C23.4263002,21.3380504 22.1431695,23.0087295 20.4287473,24.1267558 L18.6501569,19.7290496 L18.6557942,19.7213513 C18.492413,19.3327371 18.6559145,18.8770188 19.0318176,18.6916914 C19.1280585,18.6442441 19.2286065,18.617971 19.328876,18.6127829 L19.328879,18.6127829 Z M11.6335611,18.6320289 C11.9832171,18.6370482 12.2968434,18.8854753 12.3780873,19.2498248 C12.4161222,19.4203953 12.3976105,19.5894008 12.3348446,19.7386726 L12.3480055,19.755994 L10.5882162,24.1094344 C8.94290883,23.0286664 7.63241571,21.4104381 6.93138905,19.4249663 L11.4737512,18.6358811 L11.4812716,18.6455041 C11.5320805,18.6359329 11.5836101,18.6313145 11.6335611,18.6320319 L11.6335611,18.6320289 Z M15.4708794,20.5393084 C15.5926779,20.5347263 15.7162662,20.5603084 15.8337419,20.6182169 C15.9877316,20.6941249 16.1066886,20.8136446 16.1815635,20.9569462 L16.1984846,20.9569462 L18.4377037,25.0986808 C18.1470954,25.1984045 17.8483343,25.2836319 17.5427681,25.3546523 C15.8302356,25.7526838 14.1231443,25.632082 12.5773797,25.092907 L14.8109584,20.9588708 L14.8147187,20.9588708 C14.9487436,20.7023967 15.2029234,20.5493859 15.4708794,20.5393084 Z" id="path3059"></path>
                </g>
                <g id="noun_Cloud-Docker_676618" transform="translate(128.000000, 142.000000)" fill="#61839E" fill-rule="nonzero">
                    <g id="Group">
                        <path d="M9.88085106,4.04791667 L6.66382979,4.04791667 L6.66382979,7.03854167 C7.66914894,7.06875 8.7606383,7.12916667 9.88085106,7.159375 L9.88085106,4.04791667 Z" id="Path"></path>
                        <path d="M13.9308511,7.31041667 L13.9308511,4.04791667 L10.7138298,4.04791667 L10.7138298,7.18958333 C11.7191489,7.25 12.7531915,7.28020833 13.8159574,7.340625 L13.9308511,7.340625 L13.9308511,7.31041667 Z" id="Path"></path>
                        <rect id="Rectangle" x="14.7351064" y="4.04791667" width="3.21702128" height="3.29270833"></rect>
                        <rect id="Rectangle" x="6.66382979" y="0" width="3.21702128" height="3.29270833"></rect>
                        <rect id="Rectangle" x="10.7425532" y="0" width="3.21702128" height="3.29270833"></rect>
                        <path d="M25.4489362,17.8229167 C24.7308511,17.2791667 23.9265957,17.0375 23.237234,17.21875 C22.9787234,16.7354167 22.5478723,16.1916667 21.9734043,15.7989583 C23.8978723,14.1375 25.1904255,12.053125 25.506383,9.84791667 C25.8797872,7.37083333 24.8170213,4.86354167 24.4723404,4.13854167 C25.4489362,3.50416667 25.9659574,2.96041667 26.1382979,2.23541667 C26.3393617,1.359375 25.8223404,0.332291667 25.3914894,-1.60982339e-15 C25.362766,0.513541667 25.1617021,0.845833333 24.7021277,1.20833333 C24.3287234,1.51041667 23.4095745,1.78229167 23.3234043,2.71875 C22.6914894,2.5375 22.0882979,3.05104167 21.6861702,3.23229167 C21.2553191,3.41354167 20.5946809,3.50416667 20.25,3.47395833 C20.4797872,4.19895833 20.7382979,4.74270833 21.4851064,5.01458333 C22.1170213,5.25625 22.9212766,4.86354167 23.8117021,4.50104167 C23.9840426,4.77291667 24.2138298,6.19270833 23.9840426,6.978125 C23.6106383,8.18645833 20.8244681,8.30729167 15.6255319,8.12604167 C7.84148936,7.884375 0.459574468,7.03854167 0.258510638,8.91145833 C0.143617021,9.84791667 0.0861702128,11.78125 1.29255319,14.1375 C2.84361702,17.1583333 6.37659574,19.4239583 10.8574468,19.5145833 C12.2361702,19.5447917 13.5861702,19.4239583 14.85,19.1520833 C15.7978723,19.665625 16.6595745,20.0885417 17.5787234,20.3302083 C19.1010638,20.753125 20.4510638,20.6322917 21.0255319,20.3604167 C21.6,20.0885417 21.0255319,19.8770833 20.4797872,19.7864583 C19.962766,19.6958333 18.6702128,18.6989583 17.3202128,18.4572917 C18.8712766,17.8833333 20.2787234,17.0979167 21.456383,16.1614583 C22.1170213,16.584375 22.6053191,17.1583333 22.7776596,17.671875 L22.8925532,18.0041667 L23.2085106,17.8833333 C23.7542553,17.671875 24.4723404,17.8229167 25.1042553,18.30625 C25.8223404,18.85 26.2244681,19.665625 26.1670213,20.4510417 C26.1095745,21.2666667 25.793617,21.9614583 25.2478723,22.4145833 C24.5585106,22.9583333 23.5531915,23.1697917 22.4042553,22.928125 L22.0308511,22.8677083 L22.0021277,23.2604167 C22.0021277,23.5020833 21.8010638,23.74375 21.5138298,23.925 C21.0829787,24.196875 20.5659574,24.2572917 20.2212766,24.0760417 L19.9914894,23.9552083 L19.8191489,24.2270833 C19.2446809,25.0427083 18.2393617,25.4958333 17.0617021,25.465625 C16.4010638,25.4354167 15.7691489,25.2541667 15.2521277,24.9520833 C15.1946809,24.2875 14.8787234,23.6833333 14.3617021,23.290625 C13.9021277,22.928125 13.356383,22.746875 12.7531915,22.8072917 C12.437234,22.0520833 11.7478723,21.5385417 10.943617,21.5385417 C10.7712766,21.5385417 10.6276596,21.5385417 10.4840426,21.5989583 C10.0244681,20.934375 9.30638298,20.48125 8.50212766,20.3604167 C7.46808511,20.209375 6.52021277,20.6020833 5.88829787,21.3572917 C5.48617021,21.1458333 5.11276596,20.8135417 4.88297872,20.390625 C4.7106383,20.0583333 4.48085106,19.39375 4.88297872,18.6385417 L4.30851064,18.2760417 C3.87765957,19.03125 3.87765957,19.9072917 4.30851064,20.6927083 C4.59574468,21.20625 4.99787234,21.6291667 5.51489362,21.9010417 C5.3712766,22.1729167 5.28510638,22.475 5.22765957,22.8072917 C5.22765957,22.8677083 5.22765957,22.8979167 5.19893617,22.9583333 C4.27978723,23.2 3.64787234,24.015625 3.56170213,25.0125 C3.47553191,26.28125 4.30851064,27.1572917 5.11276596,27.5197917 C5.51489362,27.7010417 6.03191489,27.73125 6.43404255,27.640625 C6.95106383,28.365625 7.81276596,28.8489583 8.84680851,28.9697917 C9.01914894,29 9.19148936,29 9.39255319,29 C9.93829787,29 10.512766,28.8791667 11.0297872,28.6979167 C11.6329787,28.45625 12.1787234,28.1239583 12.5521277,27.7010417 C13.4425532,27.640625 14.2180851,27.278125 14.7351064,26.6739583 C14.993617,26.371875 15.1659574,26.0395833 15.2521277,25.7072917 C15.7978723,25.9791667 16.4297872,26.1302083 17.0904255,26.1604167 C17.1478723,26.1604167 17.2053191,26.1604167 17.262766,26.1604167 C18.4691489,26.1604167 19.5319149,25.6770833 20.25,24.8614583 C20.7670213,25.0125 21.3989362,24.921875 21.9159574,24.5895833 C22.2606383,24.378125 22.5191489,24.0760417 22.6340426,23.74375 C23.8404255,23.8947917 24.9031915,23.653125 25.6787234,23.0489583 C26.3680851,22.475 26.7702128,21.6291667 26.856383,20.6020833 C26.856383,19.5447917 26.3393617,18.4875 25.4489362,17.8229167 Z M9.16276596,13.8354167 C9.53617021,13.8354167 9.82340426,14.1375 9.82340426,14.5302083 C9.82340426,14.9229167 9.53617021,15.225 9.16276596,15.225 C8.7893617,15.225 8.50212766,14.9229167 8.50212766,14.5302083 C8.47340426,14.1677083 8.7893617,13.8354167 9.16276596,13.8354167 Z M6.86489362,18.3666667 C5.68723404,17.8229167 4.13617021,16.9770833 2.81489362,15.40625 C3.21702128,15.4666667 3.64787234,15.5270833 4.0787234,15.5270833 C5.28510638,16.8260417 7.06595745,18.0645833 9.04787234,18.4572917 C7.46808511,17.8229167 6.17553191,17.128125 4.94042553,15.5270833 C5.22765957,15.5270833 5.48617021,15.496875 5.77340426,15.4666667 C7.23829787,16.946875 9.36382979,18.2458333 10.8574468,18.578125 C9.4787234,17.9135417 7.69787234,16.7354167 6.54893617,15.3760417 C6.89361702,15.315625 7.20957447,15.2552083 7.55425532,15.1645833 C8.58829787,16.6145833 11.1734043,18.7291667 14.0744681,18.8802083 C10.656383,19.39375 7.87021277,18.8197917 6.86489362,18.3666667 Z M14.1319149,26.1 C13.7297872,26.553125 13.0978723,26.8552083 12.3510638,26.8552083 L12.1787234,26.8552083 L12.0638298,27.00625 C11.5180851,27.7010417 10.2255319,28.3052083 8.96170213,28.1239583 C8.04255319,28.003125 7.32446809,27.55 6.97978723,26.915625 L6.80744681,26.6135417 L6.49148936,26.734375 C6.31914894,26.7947917 5.77340426,26.8552083 5.48617021,26.7041667 C5.19893617,26.5833333 4.33723404,26.0697917 4.39468085,25.0125 C4.45212766,24.2572917 4.96914894,23.7135417 5.65851064,23.653125 L6.03191489,23.6229167 L6.03191489,23.2302083 C6.03191489,23.109375 6.03191489,22.9885417 6.0606383,22.8677083 C6.20425532,21.7197917 7.26702128,20.934375 8.41595745,21.115625 C9.07659574,21.20625 9.67978723,21.6291667 9.99574468,22.2333333 L10.1680851,22.565625 L10.4840426,22.4145833 C10.6276596,22.3541667 10.8,22.3239583 10.9723404,22.3239583 C11.5468085,22.3239583 12.0351064,22.746875 12.15,23.3208333 L12.2361702,23.7135417 L12.6095745,23.6229167 C13.0978723,23.5322917 13.5574468,23.6229167 13.9308511,23.925 C14.2755319,24.196875 14.4765957,24.5895833 14.5053191,25.0125 C14.5340426,25.4052083 14.3904255,25.7979167 14.1319149,26.1 Z" id="Shape"></path>
                    </g>
                </g>
                <circle id="Combined-Shape" fill="#0A162F" cx="48.5" cy="351.5" r="48.5"></circle>
                <g id="Group-20" transform="translate(36.000000, 334.000000)">
                    <g id="Group-36">
                        <g id="Group-12">
                            <path d="M23.812095,0 L1.13390929,0 C0.485961123,0 0,0.450660308 0,1.05154072 L0,4.75696992 C0,5.35785033 0.485961123,5.80851064 1.13390929,5.80851064 L23.8660907,5.80851064 C24.5140389,5.80851064 25,5.35785033 25,4.75696992 L25,1.05154072 C25,0.450660308 24.4600432,0 23.812095,0 Z M3.07775378,4.20616288 C2.32181425,4.20616288 1.67386609,3.60528247 1.67386609,2.90425532 C1.67386609,2.20322817 2.32181425,1.60234776 3.07775378,1.60234776 C3.8336933,1.60234776 4.48164147,2.20322817 4.48164147,2.90425532 C4.48164147,3.60528247 3.88768898,4.20616288 3.07775378,4.20616288 Z M7.92179488,4.20616288 C7.16585535,4.20616288 6.51790719,3.60528247 6.51790719,2.90425532 C6.51790719,2.20322817 7.16585535,1.60234776 7.92179488,1.60234776 C8.6777344,1.60234776 9.32568257,2.20322817 9.32568257,2.90425532 C9.32568257,3.60528247 8.73173008,4.20616288 7.92179488,4.20616288 Z M12.765836,4.20616288 C12.0098965,4.20616288 11.3619483,3.60528247 11.3619483,2.90425532 C11.3619483,2.20322817 12.0098965,1.60234776 12.765836,1.60234776 C13.5217755,1.60234776 14.1697237,2.20322817 14.1697237,2.90425532 C14.1697237,3.60528247 13.5757712,4.20616288 12.765836,4.20616288 Z" id="Shape" fill="#FFFFFF" fill-rule="nonzero"></path>
                            <path d="M0,12.3080337 C0,12.9089142 0.485961123,13.3595745 1.13390929,13.3595745 L23.8660907,13.3595745 C24.5140389,13.3595745 25,12.9089142 25,12.3080337 L25,8.60260455 C25,8.00172414 24.5140389,7.55106383 23.8660907,7.55106383 L1.18790497,7.55106383 C0.539956803,7.55106383 0.0539956803,8.00172414 0.0539956803,8.60260455 L0.0539956803,12.3080337 L0,12.3080337 Z M3.13174946,9.20348496 C3.88768898,9.20348496 4.53563715,9.80436537 4.53563715,10.5053925 C4.53563715,11.2064197 3.88768898,11.8073001 3.13174946,11.8073001 C2.37580994,11.8073001 1.72786177,11.2064197 1.72786177,10.5053925 C1.78185745,9.754292 2.37580994,9.20348496 3.13174946,9.20348496 Z M7.97579056,9.20348496 C8.73173008,9.20348496 9.37967825,9.80436537 9.37967825,10.5053925 C9.37967825,11.2064197 8.73173008,11.8073001 7.97579056,11.8073001 C7.21985103,11.8073001 6.57190287,11.2064197 6.57190287,10.5053925 C6.62589855,9.754292 7.21985103,9.20348496 7.97579056,9.20348496 Z M12.8198317,9.20348496 C13.5757712,9.20348496 14.2237193,9.80436537 14.2237193,10.5053925 C14.2237193,11.2064197 13.5757712,11.8073001 12.8198317,11.8073001 C12.0638921,11.8073001 11.415944,11.2064197 11.415944,10.5053925 C11.4699396,9.754292 12.0638921,9.20348496 12.8198317,9.20348496 Z" id="Shape" fill="#FFFFFF" fill-rule="nonzero"></path>
                            <path d="M0,19.8590976 C0,20.459978 0.485961123,20.9106383 1.13390929,20.9106383 L23.8660907,20.9106383 C24.5140389,20.9106383 25,20.459978 25,19.8590976 L25,16.1536684 C25,15.552788 24.5140389,15.1021277 23.8660907,15.1021277 L1.18790497,15.1021277 C0.539956803,15.1021277 0.0539956803,15.552788 0.0539956803,16.1536684 L0.0539956803,19.8590976 L0,19.8590976 Z M3.13174946,16.7044754 C3.88768898,16.7044754 4.53563715,17.3053558 4.53563715,18.006383 C4.53563715,18.7074101 3.88768898,19.3082905 3.13174946,19.3082905 C2.37580994,19.3082905 1.72786177,18.7074101 1.72786177,18.006383 C1.78185745,17.3053558 2.37580994,16.7044754 3.13174946,16.7044754 Z M7.97579056,16.7044754 C8.73173008,16.7044754 9.37967825,17.3053558 9.37967825,18.006383 C9.37967825,18.7074101 8.73173008,19.3082905 7.97579056,19.3082905 C7.21985103,19.3082905 6.57190287,18.7074101 6.57190287,18.006383 C6.62589855,17.3053558 7.21985103,16.7044754 7.97579056,16.7044754 Z M12.8198317,16.7044754 C13.5757712,16.7044754 14.2237193,17.3053558 14.2237193,18.006383 C14.2237193,18.7074101 13.5757712,19.3082905 12.8198317,19.3082905 C12.0638921,19.3082905 11.415944,18.7074101 11.415944,18.006383 C11.4699396,17.3053558 12.0638921,16.7044754 12.8198317,16.7044754 Z" id="Shape" fill="#FFFFFF" fill-rule="nonzero"></path>
                            <rect id="Rectangle" fill="#0A162F" x="16.25" y="2.90425532" width="5.625" height="1" rx="0.5"></rect>
                            <rect id="Rectangle" fill="#0A162F" x="16.25" y="10.4553191" width="5.625" height="1" rx="0.5"></rect>
                            <rect id="Rectangle" fill="#0A162F" x="16.875" y="18.006383" width="5.625" height="1" rx="0.5"></rect>
                        </g>
                    </g>
                </g>
                <text id="STORAGE" font-family="Averta-Semibold" font-size="8" font-weight="500" letter-spacing="0.348571429" fill="#FFFFFF">
                    <tspan x="29" y="369">STORAGE</tspan>
                </text>
                <rect id="Rectangle" fill="#0A162F" x="97" y="353" width="123" height="1"></rect>
                <rect id="Rectangle" fill="#0A162F" transform="translate(141.500000, 344.500000) rotate(90.000000) translate(-141.500000, -344.500000) " x="133" y="344" width="17" height="1"></rect>
                <rect id="Rectangle" fill="#0A162F" transform="translate(219.500000, 345.500000) rotate(90.000000) translate(-219.500000, -345.500000) " x="211" y="345" width="17" height="1"></rect>
                <polygon id="Rectangle" fill="#0A162F" transform="translate(135.500000, 343.500000) scale(-1, 1) rotate(-90.000000) translate(-135.500000, -343.500000) " points="130 343.5 141 343.5 141 343.5 130 343.5"></polygon>
                <g id="Group-2" transform="translate(111.000000, 321.000000)">
                    <g id="Group-26" transform="translate(60.762507, 2.182520)" stroke="#0A162F" stroke-width="0.5">
                        <polyline id="Path-2" transform="translate(0.946085, 1.984571) scale(-1, 1) translate(-0.946085, -1.984571) " points="1.89216963 -6.50999564e-18 0 1.98457088 1.89216963 3.96914176"></polyline>
                    </g>
                    <text id="Object-Storage" font-family="Averta-Regular" font-size="8.5" font-weight="normal" letter-spacing="-0.0369565217" fill="#0A162F">
                        <tspan x="0.308823529" y="7">Object Storage</tspan>
                    </text>
                </g>
                <g id="Group-2" transform="translate(187.000000, 321.000000)">
                    <g id="Group-26" transform="translate(63.762507, 2.182520)" stroke="#0A162F" stroke-width="0.5">
                        <polyline id="Path-2" transform="translate(0.946085, 1.984571) scale(-1, 1) translate(-0.946085, -1.984571) " points="1.89216963 -6.50999564e-18 0 1.98457088 1.89216963 3.96914176"></polyline>
                    </g>
                    <text id="Backup-Storage" font-family="Averta-Regular" font-size="8.5" font-weight="normal" letter-spacing="-0.0369565217" fill="#0A162F">
                        <tspan x="0.308823529" y="7">Backup Storage</tspan>
                    </text>
                </g>
                <circle id="Combined-Shape" fill="#45739E" cx="48.5" cy="65.5" r="48.5"></circle>
                <text id="CLOUD" font-family="Averta-Semibold" font-size="8" font-weight="500" letter-spacing="0.348571429" fill="#FFFFFF">
                    <tspan x="33" y="83">CLOUD</tspan>
                </text>
                <g id="Group-28" transform="translate(33.000000, 48.000000)" fill="#FFFFFF" fill-rule="nonzero">
                    <g id="Group-39">
                        <g id="noun_Cloud_677946">
                            <g id="Group" transform="translate(0.000000, 0.239182)">
                                <path d="M19.1219512,0.13580625 C23.4727415,0.13580625 26.6571317,3.492675 26.9756098,7.16705625 C29.8787122,7.99594125 32,10.5769875 32,13.6357875 C32,17.3637 28.8550634,20.385825 24.9756098,20.385825 L6.63414634,20.385825 C2.66583415,20.385825 0,17.884425 0,14.7607875 C0,12.1486875 1.91445854,9.58215 4.68292683,9.13579125 C4.68292683,4.63580625 8.97560976,2.76079875 12.097561,4.26080625 C13.2682927,2.01079875 15.7863024,0.13580625 19.1219512,0.13580625 Z" id="Path"></path>
                            </g>
                        </g>
                    </g>
                </g>
                <rect id="Rectangle" fill="#45739E" x="97" y="67" width="202" height="1"></rect>
                <rect id="Rectangle" fill="#45739E" transform="translate(141.500000, 58.500000) rotate(90.000000) translate(-141.500000, -58.500000) " x="133" y="58" width="17" height="1"></rect>
                <rect id="Rectangle" fill="#45739E" transform="translate(221.500000, 59.500000) rotate(90.000000) translate(-221.500000, -59.500000) " x="213" y="59" width="17" height="1"></rect>
                <polygon id="Rectangle" fill="#45739E" transform="translate(135.500000, 57.500000) scale(-1, 1) rotate(-90.000000) translate(-135.500000, -57.500000) " points="130 57.5 141 57.5 141 57.5 130 57.5"></polygon>
                <g id="Group-2" transform="translate(117.000000, 35.000000)">
                    <g id="Group-26" transform="translate(50.762507, 2.182520)" stroke="#45739E" stroke-width="0.5">
                        <polyline id="Path-2" transform="translate(0.946085, 1.984571) scale(-1, 1) translate(-0.946085, -1.984571) " points="1.89216963 -6.50999564e-18 0 1.98457088 1.89216963 3.96914176"></polyline>
                    </g>
                    <text id="Public-Cloud" font-family="Averta-Regular" font-size="8.5" font-weight="normal" letter-spacing="-0.0369565217" fill="#45739E">
                        <tspan x="0.308823529" y="7">Public Cloud</tspan>
                    </text>
                </g>
                <rect id="Rectangle" fill="#45739E" transform="translate(299.500000, 59.500000) rotate(90.000000) translate(-299.500000, -59.500000) " x="291" y="59" width="17" height="1"></rect>
                <g id="noun_Cloud_677946" transform="translate(121.000000, 0.000000)" fill="#45739E" fill-rule="nonzero">
                    <g id="Group">
                        <path d="M22.7073171,0.164613636 C27.8738805,0.164613636 31.6553439,4.23354545 32.0335366,8.68734091 C35.4809707,9.69205 38,12.8205909 38,16.5282273 C38,21.0469091 34.2653878,24.7100909 29.6585366,24.7100909 L7.87804878,24.7100909 C3.16567805,24.7100909 0,21.6780909 0,17.8918636 C0,14.7256818 2.27341951,11.6147273 5.56097561,11.0736864 C5.56097561,5.61915909 10.6585366,3.34642273 14.3658537,5.16461364 C15.7560976,2.43733182 18.7462341,0.164613636 22.7073171,0.164613636 Z" id="Path"></path>
                    </g>
                </g>
                <g id="noun_Lock_1559" transform="translate(137.000000, 9.000000)" fill="#FFFFFF" fill-rule="nonzero">
                    <path d="M7.54290194,10 L0.457218996,10 C0.204621856,10 0,9.80648266 0,9.567479 L0,5.20079286 C0,4.96201835 0.204621856,4.76850101 0.457218996,4.76850101 L0.914316843,4.76850101 L0.914316843,2.91822775 C0.914316843,1.30661442 2.29578696,0 4.00012104,0 C5.70409168,0 7.08580409,1.30649985 7.08580409,2.91822775 L7.08580409,4.76850101 L7.54290194,4.76850101 C7.79537793,4.76850101 8,4.96201835 8,5.20079286 L8,9.56736443 C8.00012094,9.80648266 7.79537793,10 7.54290194,10 Z M5.63334025,3.00461738 C5.63334025,2.15160577 4.90195947,1.46014505 4.00012104,1.46014505 C3.09804032,1.46014505 2.36690184,2.15160577 2.36690184,3.00461738 L2.36690184,4.76850101 L5.6334614,4.76850101 L5.6334614,3.00461738 L5.63334025,3.00461738 Z" id="Shape"></path>
                </g>
                <g id="noun_Lock_1559" transform="translate(137.000000, 9.000000)" fill="#FFFFFF" fill-rule="nonzero">
                    <path d="M7.54290194,10 L0.457218996,10 C0.204621856,10 0,9.80648266 0,9.567479 L0,5.20079286 C0,4.96201835 0.204621856,4.76850101 0.457218996,4.76850101 L0.914316843,4.76850101 L0.914316843,2.91822775 C0.914316843,1.30661442 2.29578696,0 4.00012104,0 C5.70409168,0 7.08580409,1.30649985 7.08580409,2.91822775 L7.08580409,4.76850101 L7.54290194,4.76850101 C7.79537793,4.76850101 8,4.96201835 8,5.20079286 L8,9.56736443 C8.00012094,9.80648266 7.79537793,10 7.54290194,10 Z M5.63334025,3.00461738 C5.63334025,2.15160577 4.90195947,1.46014505 4.00012104,1.46014505 C3.09804032,1.46014505 2.36690184,2.15160577 2.36690184,3.00461738 L2.36690184,4.76850101 L5.6334614,4.76850101 L5.6334614,3.00461738 L5.63334025,3.00461738 Z" id="Shape"></path>
                </g>
                <polygon id="Rectangle" fill="#45739E" points="142 12 144 12 144 14 142 14"></polygon>
                <g id="Group-2" transform="translate(193.000000, 35.000000)">
                    <g id="Group-26" transform="translate(53.635857, 2.182520)" stroke="#45739E" stroke-width="0.5">
                        <polyline id="Path-2" transform="translate(0.999637, 1.984571) scale(-1, 1) translate(-0.999637, -1.984571) " points="1.99927357 -6.50999564e-18 0 1.98457088 1.99927357 3.96914176"></polyline>
                    </g>
                    <text id="Hybrid-Cloud" font-family="Averta-Regular" font-size="8.5" font-weight="normal" letter-spacing="-0.0369565217" fill="#45739E">
                        <tspan x="0.326304107" y="7">Hybrid Cloud</tspan>
                    </text>
                </g>
                <g id="noun_Cloud_677946" transform="translate(202.000000, 0.000000)" fill="#45739E" fill-rule="nonzero">
                    <g id="Group">
                        <path d="M22.7073171,0.164613636 C27.8738805,0.164613636 31.6553439,4.23354545 32.0335366,8.68734091 C35.4809707,9.69205 38,12.8205909 38,16.5282273 C38,21.0469091 34.2653878,24.7100909 29.6585366,24.7100909 L7.87804878,24.7100909 C3.16567805,24.7100909 0,21.6780909 0,17.8918636 C0,14.7256818 2.27341951,11.6147273 5.56097561,11.0736864 C5.56097561,5.61915909 10.6585366,3.34642273 14.3658537,5.16461364 C15.7560976,2.43733182 18.7462341,0.164613636 22.7073171,0.164613636 Z" id="Path"></path>
                    </g>
                </g>
                <g id="noun_Arrow-Up_3165036" transform="translate(217.000000, 11.000000)" fill="#FFFFFF" fill-rule="nonzero" stroke="#FFFFFF" stroke-width="0.2">
                    <path d="M10.8349514,5.7379484 C10.7164389,5.88912326 10.5477259,5.98274547 10.3659316,5.99821671 C10.1841373,6.01368794 10.0041556,5.94974072 9.86558497,5.8204444 L6.18749248,2.37811105 L6.18749248,14.2500363 C6.18749248,14.6642298 5.87969097,15 5.5,15 C5.12030615,15 4.81250464,14.6642298 4.81250464,14.2500363 L4.81250464,2.37811105 L1.13441216,5.8204444 C0.845845926,6.08967019 0.411845793,6.05273547 0.165045727,5.7379484 C-0.0817543386,5.42316133 -0.0478961722,4.94972537 0.240670058,4.68049959 L5.05312751,0.180717436 C5.08827794,0.155397467 5.12503734,0.132841458 5.16312654,0.113220703 L5.24562581,0.0532236078 C5.4089688,-0.0177412026 5.59102832,-0.0177412026 5.75437131,0.0532236078 L5.83687058,0.113220703 C5.87495979,0.132841458 5.91171918,0.155397467 5.94686961,0.180717436 L10.7593271,4.68049959 C10.8979095,4.80978079 10.9837333,4.99382414 10.9979158,5.1921373 C11.0120983,5.39045046 10.9534777,5.58678646 10.8349514,5.7379484 Z" id="Path"></path>
                </g>
                <g id="Group-2" transform="translate(271.000000, 35.000000)">
                    <g id="Group-26" transform="translate(54.635857, 2.182520)" stroke="#45739E" stroke-width="0.5">
                        <polyline id="Path-2" transform="translate(0.999637, 1.984571) scale(-1, 1) translate(-0.999637, -1.984571) " points="1.99927357 -6.50999564e-18 0 1.98457088 1.99927357 3.96914176"></polyline>
                    </g>
                    <text id="Private-Cloud" font-family="Averta-Regular" font-size="8.5" font-weight="normal" letter-spacing="-0.0369565217" fill="#45739E">
                        <tspan x="0.326304107" y="7">Private Cloud</tspan>
                    </text>
                </g>
                <g id="noun_Cloud_677946" transform="translate(281.000000, 0.000000)" fill="#45739E" fill-rule="nonzero">
                    <g id="Group">
                        <path d="M22.7073171,0.164613636 C27.8738805,0.164613636 31.6553439,4.23354545 32.0335366,8.68734091 C35.4809707,9.69205 38,12.8205909 38,16.5282273 C38,21.0469091 34.2653878,24.7100909 29.6585366,24.7100909 L7.87804878,24.7100909 C3.16567805,24.7100909 0,21.6780909 0,17.8918636 C0,14.7256818 2.27341951,11.6147273 5.56097561,11.0736864 C5.56097561,5.61915909 10.6585366,3.34642273 14.3658537,5.16461364 C15.7560976,2.43733182 18.7462341,0.164613636 22.7073171,0.164613636 Z" id="Path"></path>
                    </g>
                </g>
                <g id="noun_Lock_1559" transform="translate(297.000000, 8.000000)" fill="#FFFFFF" fill-rule="nonzero">
                    <path d="M7.54290194,10 L0.457218996,10 C0.204621856,10 0,9.80648266 0,9.567479 L0,5.20079286 C0,4.96201835 0.204621856,4.76850101 0.457218996,4.76850101 L0.914316843,4.76850101 L0.914316843,2.91822775 C0.914316843,1.30661442 2.29578696,0 4.00012104,0 C5.70409168,0 7.08580409,1.30649985 7.08580409,2.91822775 L7.08580409,4.76850101 L7.54290194,4.76850101 C7.79537793,4.76850101 8,4.96201835 8,5.20079286 L8,9.56736443 C8.00012094,9.80648266 7.79537793,10 7.54290194,10 Z M5.63334025,3.00461738 C5.63334025,2.15160577 4.90195947,1.46014505 4.00012104,1.46014505 C3.09804032,1.46014505 2.36690184,2.15160577 2.36690184,3.00461738 L2.36690184,4.76850101 L5.6334614,4.76850101 L5.6334614,3.00461738 L5.63334025,3.00461738 Z" id="Shape"></path>
                </g>
                <circle id="Combined-Shape" fill="#8999A8" opacity="0.9" cx="48.5" cy="491.5" r="48.5"></circle>
                <text id="SERVICES" font-family="Averta-Semibold" font-size="8" font-weight="500" letter-spacing="0.348571429" fill="#FFFFFF">
                    <tspan x="28" y="509">SERVICES</tspan>
                </text>
                <g id="Group-37" transform="translate(39.000000, 475.000000)" fill="#FFFFFF" fill-rule="nonzero">
                    <g id="noun_service_2613658">
                        <path d="M19.8010874,12.6985775 L17.9306654,11.6708357 C18.1870942,10.5706006 18.1870942,9.42581248 17.9306654,8.32557744 L19.8010874,7.29783559 C19.9638364,7.20948452 20.0384627,7.02372075 19.9797143,6.85230458 C19.5271929,5.5527133 18.8118914,4.37469912 17.8536574,3.35073296 C17.7282216,3.21631852 17.5218083,3.18384761 17.3574716,3.27370895 L15.4878434,4.30069567 C14.6145564,3.54102755 13.5721693,2.96863348 12.4424534,2.62806657 L12.4424534,0.575603402 C12.4424534,0.395880726 12.3098726,0.242587856 12.1256884,0.205586128 C10.7292231,-0.0685287094 9.26924595,-0.0685287094 7.8751623,0.205586128 C7.69097813,0.242587856 7.55839728,0.395880726 7.55839728,0.575603402 L7.55839728,2.6288217 C6.42788754,2.96938862 5.38550039,3.54102755 4.51221337,4.30069567 L2.64179135,3.27446409 C2.47904241,3.18460275 2.27183521,3.21707365 2.14639944,3.35148809 C1.18816541,4.37469912 0.473657847,5.55346844 0.0203424937,6.85305972 C-0.0391998032,7.02447589 0.0354265422,7.21023966 0.198969384,7.29859073 L2.0693914,8.32633258 C1.81375648,9.42656762 1.81375648,10.5713558 2.0693914,11.6715908 L0.198969384,12.6993326 C0.0354265422,12.7876837 -0.0384059059,12.9749578 0.0203424937,13.1448637 C0.47286395,14.4444549 1.18816541,15.6224691 2.14639944,16.6464353 C2.27183521,16.78236 2.47904241,16.8148309 2.64179135,16.7234593 L4.51221337,15.6964726 C5.38629429,16.457651 6.42868143,17.0308002 7.55760338,17.3691017 L7.55760338,19.4245854 C7.55760338,19.6035529 7.69018423,19.7568458 7.8743684,19.7938475 C8.57220412,19.9320376 9.28829948,20 10.0004254,20 C10.7125512,20 11.4278527,19.9297722 12.1264823,19.7938475 C12.3106665,19.7568458 12.4432473,19.6035529 12.4432473,19.4245854 L12.4432473,17.3691017 C13.5721693,17.0308002 14.6137625,16.457651 15.4886373,15.6964726 L17.3582655,16.7234593 C17.5210144,16.8148309 17.7290155,16.78236 17.8544513,16.6464353 C18.8126853,15.6232242 19.526399,14.4444549 19.9805082,13.1448637 C20.0384627,12.9749578 19.9638364,12.7869286 19.8010874,12.6985775 Z M9.99883756,13.4378569 C8.00536146,13.4378569 6.38263539,11.8951114 6.38263539,9.99820655 C6.38263539,8.10130167 8.00456756,6.55855618 9.99883756,6.55855618 C11.9939015,6.55855618 13.6142458,8.10130167 13.6142458,9.99820655 C13.6142458,11.8951114 11.9939015,13.4378569 9.99883756,13.4378569 Z" id="Shape"></path>
                    </g>
                </g>
                <rect id="Rectangle" fill="#94A3B0" x="97" y="493" width="202" height="1"></rect>
                <rect id="Rectangle" fill="#94A3B0" transform="translate(141.500000, 484.500000) rotate(90.000000) translate(-141.500000, -484.500000) " x="133" y="484" width="17" height="1"></rect>
                <rect id="Rectangle" fill="#94A3B0" transform="translate(221.500000, 485.500000) rotate(90.000000) translate(-221.500000, -485.500000) " x="213" y="485" width="17" height="1"></rect>
                <polygon id="Rectangle" fill="#94A3B0" transform="translate(135.500000, 483.500000) scale(-1, 1) rotate(-90.000000) translate(-135.500000, -483.500000) " points="130 483.5 141 483.5 141 483.5 130 483.5"></polygon>
                <g id="Group-2" transform="translate(119.000000, 461.000000)">
                    <g id="Group-26" transform="translate(43.762507, 2.182520)" stroke="#94A3B0" stroke-width="0.5">
                        <polyline id="Path-2" transform="translate(0.946085, 1.984571) scale(-1, 1) translate(-0.946085, -1.984571) " points="1.89216963 -6.50999564e-18 0 1.98457088 1.89216963 3.96914176"></polyline>
                    </g>
                    <text id="Consulting" font-family="Averta-Regular" font-size="8.5" font-weight="normal" letter-spacing="-0.0369565217" fill="#94A3B0">
                        <tspan x="0.308823529" y="7">Consulting</tspan>
                    </text>
                </g>
                <rect id="Rectangle" fill="#94A3B0" transform="translate(299.500000, 485.500000) rotate(90.000000) translate(-299.500000, -485.500000) " x="291" y="485" width="17" height="1"></rect>
                <g id="noun_strategy_1474639" transform="translate(127.000000, 422.000000)" fill="#94A3B0" fill-rule="nonzero">
                    <path d="M21.2421499,7 L5.75802306,7 C4.23457166,7 3,8.21237148 3,9.70825817 L3,20.2034168 L3,21.0155715 L3,28 L7.35360791,23.7246791 L21.2421499,23.7246791 C22.7664662,23.7246791 24,22.5123076 24,21.0155715 L24,9.70825817 C24,8.21220161 22.7664662,7 21.2421499,7 Z M20.7964137,18.3076923 L7.01215701,18.3076923 C6.58053161,18.3076923 6.23076923,17.9459495 6.23076923,17.4998181 C6.23076923,17.0535049 6.58070728,16.6923077 7.01215701,16.6923077 L20.7964137,16.6923077 C21.2280391,16.6923077 21.5769231,17.0535049 21.5769231,17.4998181 C21.5769231,17.9459495 21.2280391,18.3076923 20.7964137,18.3076923 Z M20.7964137,14.2692308 L7.01215701,14.2692308 C6.58053161,14.2692308 6.23076923,13.9078923 6.23076923,13.4612657 C6.23076923,13.0155483 6.58070728,12.6538462 7.01215701,12.6538462 L20.7964137,12.6538462 C21.2280391,12.6538462 21.5769231,13.0155483 21.5769231,13.4612657 C21.5769231,13.9078923 21.2280391,14.2692308 20.7964137,14.2692308 Z" id="Shape"></path>
                </g>
                <g id="Group-2" transform="translate(193.000000, 461.000000)">
                    <g id="Group-26" transform="translate(54.635857, 2.182520)" stroke="#94A3B0" stroke-width="0.5">
                        <polyline id="Path-2" transform="translate(0.999637, 1.984571) scale(-1, 1) translate(-0.999637, -1.984571) " points="1.99927357 -6.50999564e-18 0 1.98457088 1.99927357 3.96914176"></polyline>
                    </g>
                    <text id="Management" font-family="Averta-Regular" font-size="8.5" font-weight="normal" letter-spacing="-0.0369565217" fill="#94A3B0">
                        <tspan x="0.0998890122" y="7">Management</tspan>
                    </text>
                </g>
                <g id="Group-24" transform="translate(210.000000, 426.000000)" fill="#94A3B0" fill-rule="nonzero">
                    <path d="M19.8508156,10.158862 L18.4479991,9.33666852 C18.6403207,8.45648049 18.6403207,7.54064998 18.4479991,6.66046196 L19.8508156,5.83826847 C19.9728773,5.76758762 20.028847,5.6189766 19.9847857,5.48184367 C19.6453946,4.44217064 19.1089185,3.4997593 18.390243,2.68058636 C18.2961662,2.57305481 18.1413562,2.54707809 18.0181037,2.61896716 L16.6158826,3.44055654 C15.9609173,2.83282204 15.179127,2.37490679 14.3318401,2.10245325 L14.3318401,0.460482722 C14.3318401,0.316704581 14.2324044,0.194070284 14.0942663,0.164468903 C13.0469173,-0.0548229675 11.9519345,-0.0548229675 10.9063717,0.164468903 C10.7682336,0.194070284 10.668798,0.316704581 10.668798,0.460482722 L10.668798,2.10305736 C9.82091565,2.3755109 9.03912529,2.83282204 8.38416003,3.44055654 L6.98134351,2.61957127 C6.85928181,2.5476822 6.70387641,2.57365892 6.60979958,2.68119047 C5.89112406,3.4997593 5.35524339,4.44277475 5.01525687,5.48244778 C4.97060015,5.61958071 5.02656991,5.76819173 5.14922704,5.83887258 L6.55204355,6.66106607 C6.36031736,7.54125409 6.36031736,8.4570846 6.55204355,9.33727263 L5.14922704,10.1594661 C5.02656991,10.230147 4.97119557,10.3799662 5.01525687,10.5158909 C5.35464796,11.5555639 5.89112406,12.4979753 6.60979958,13.3171482 C6.70387641,13.425888 6.85928181,13.4518647 6.98134351,13.3787674 L8.38416003,12.5571781 C9.03972072,13.1661208 9.82151108,13.6246401 10.6682025,13.8952813 L10.6682025,15.5396683 C10.6682025,15.6828423 10.7676382,15.8054766 10.9057763,15.835078 C11.4291531,15.9456301 11.9662246,16 12.500319,16 C13.0344134,16 13.5708895,15.9438178 14.0948617,15.835078 C14.2329999,15.8054766 14.3324355,15.6828423 14.3324355,15.5396683 L14.3324355,13.8952813 C15.179127,13.6246401 15.9603219,13.1661208 16.616478,12.5571781 L18.0186991,13.3787674 C18.1407608,13.4518647 18.2967616,13.425888 18.3908384,13.3171482 C19.109514,12.4985794 19.6447992,11.5555639 19.9853812,10.5158909 C20.028847,10.3799662 19.9728773,10.2295429 19.8508156,10.158862 Z M12.2503019,10.8387097 C10.734164,10.8387097 9.5,9.56549697 9.5,8 C9.5,6.43450303 10.7335602,5.16129032 12.2503019,5.16129032 C13.7676474,5.16129032 15,6.43450303 15,8 C15,9.56549697 13.7676474,10.8387097 12.2503019,10.8387097 Z" id="Shape"></path>
                    <g id="noun_management_2364486" transform="translate(0.000000, 15.000000)" stroke="#94A3B0" stroke-width="0.5">
                        <path d="M23.03125,6.21939103 L23.03125,2.96041667 L12.78125,2.96041667 L12.78125,0.292628205 L14.2604167,0.292628205 L10.734375,0.292628205 L12.171875,0.292628205 L12.171875,2.96041667 L1.92708333,2.96041667 L1.92708333,6.22435897 C1.05729167,6.36346154 0.385416667,7.0838141 0.385416667,7.95320513 C0.385416667,8.92195513 1.21354167,9.71185897 2.22916667,9.71185897 C3.24479167,9.71185897 4.07291667,8.92195513 4.07291667,7.95320513 C4.07291667,7.0838141 3.40625,6.36346154 2.53125,6.22435897 L2.53125,3.53669872 L12.171875,3.53669872 L12.171875,6.22435897 C11.3125,6.37339744 10.6510417,7.08878205 10.6510417,7.95320513 C10.6510417,8.92195513 11.4791667,9.71185897 12.4947917,9.71185897 C13.5104167,9.71185897 14.3385417,8.92195513 14.3385417,7.95320513 C14.3385417,7.07387821 13.6614583,6.35352564 12.7760417,6.22435897 L12.7760417,3.53669872 L22.421875,3.53669872 L22.421875,6.22932692 C21.5677083,6.38333333 20.921875,7.09871795 20.921875,7.95320513 C20.921875,8.92195513 21.75,9.71185897 22.765625,9.71185897 C23.78125,9.71185897 24.6095996,8.92195513 24.6095996,7.95320513 C24.6145833,7.06891026 23.921875,6.34358974 23.03125,6.21939103 Z" id="Path"></path>
                    </g>
                </g>
                <g id="Group-2" transform="translate(279.000000, 461.000000)">
                    <g id="Group-26" transform="translate(39.635857, 2.182520)" stroke="#94A3B0" stroke-width="0.5">
                        <polyline id="Path-2" transform="translate(0.999637, 1.984571) scale(-1, 1) translate(-0.999637, -1.984571) " points="1.99927357 -6.50999564e-18 0 1.98457088 1.99927357 3.96914176"></polyline>
                    </g>
                    <text id="Migration" font-family="Averta-Regular" font-size="8.5" font-weight="normal" letter-spacing="-0.0369565217" fill="#94A3B0">
                        <tspan x="0.326304107" y="7">Migration</tspan>
                    </text>
                </g>
                <g id="Group-27" transform="translate(285.000000, 423.000000)">
                    <g id="noun_Cloud_677946" fill="#94A3B0" fill-rule="nonzero">
                        <g id="Group">
                            <path d="M17.9268293,0.125106364 C22.0056951,0.125106364 24.991061,3.21749455 25.2896341,6.60237909 C28.0112927,7.365958 30,9.74364909 30,12.5614527 C30,15.9956509 27.051622,18.7796691 23.4146341,18.7796691 L6.2195122,18.7796691 C2.49921951,18.7796691 0,16.4753491 0,13.5978164 C0,11.1915182 1.79480488,8.82719273 4.3902439,8.41600164 C4.3902439,4.27056091 8.41463415,2.54328127 11.3414634,3.92510636 C12.4390244,1.85237218 14.7996585,0.125106364 17.9268293,0.125106364 Z" id="Path"></path>
                        </g>
                    </g>
                    <g id="Group-23" transform="translate(0.000000, 22.000000)">
                        <path d="M0,4.9137931 C0,5.53448276 0.544276458,6 1.2699784,6 L26.7300216,6 C27.4557235,6 28,5.53448276 28,4.9137931 L28,1.0862069 C28,0.465517241 27.4557235,0 26.7300216,0 L1.33045356,0 C0.60475162,0 0.060475162,0.465517241 0.060475162,1.0862069 L0.060475162,4.9137931 L0,4.9137931 Z M3.43520518,1.65517241 C4.24289749,1.65517241 4.93520518,2.34748011 4.93520518,3.15517241 C4.93520518,3.96286472 4.24289749,4.65517241 3.43520518,4.65517241 C2.62751288,4.65517241 1.93520518,3.96286472 1.93520518,3.15517241 C1.99289749,2.34748011 2.62751288,1.65517241 3.43520518,1.65517241 Z M8.86053121,1.65517241 C9.66822352,1.65517241 10.3605312,2.34748011 10.3605312,3.15517241 C10.3605312,3.96286472 9.66822352,4.65517241 8.86053121,4.65517241 C8.05283891,4.65517241 7.36053121,3.96286472 7.36053121,3.15517241 C7.41822352,2.34748011 8.05283891,1.65517241 8.86053121,1.65517241 Z M14.2858572,1.65517241 C15.0935496,1.65517241 15.7858572,2.34748011 15.7858572,3.15517241 C15.7858572,3.96286472 15.0935496,4.65517241 14.2858572,4.65517241 C13.4781649,4.65517241 12.7858572,3.96286472 12.7858572,3.15517241 C12.8435496,2.34748011 13.4781649,1.65517241 14.2858572,1.65517241 Z" id="Shape" fill="#94A3B0" fill-rule="nonzero"></path>
                        <rect id="Rectangle" fill="#FFFFFF" x="19.3103448" y="2.57142857" width="5.79310345" height="1" rx="0.5"></rect>
                    </g>
                </g>
                <g id="Group-4" transform="translate(131.000000, 284.000000)">
                    <g id="Group-25">
                        <g id="Group-23" transform="translate(0.000000, 23.143815)">
                            <path d="M0,4.21199702 C0,4.74403875 0.40749865,5.14307004 0.950830184,5.14307004 L20.0127115,5.14307004 C20.556043,5.14307004 20.9635417,4.74403875 20.9635417,4.21199702 L20.9635417,0.931073025 C20.9635417,0.399031297 20.556043,0 20.0127115,0 L0.996107811,0 C0.452776278,0 0.0452776278,0.399031297 0.0452776278,0.931073025 L0.0452776278,4.21199702 L0,4.21199702 Z M2.62610241,1.41877794 C3.2599892,1.41877794 3.80332073,1.95081967 3.80332073,2.57153502 C3.80332073,3.19225037 3.2599892,3.7242921 2.62610241,3.7242921 C1.99221562,3.7242921 1.44888409,3.19225037 1.44888409,2.57153502 C1.49416172,1.95081967 1.99221562,1.41877794 2.62610241,1.41877794 Z M6.68803271,1.41877794 C7.3219195,1.41877794 7.86525103,1.95081967 7.86525103,2.57153502 C7.86525103,3.19225037 7.3219195,3.7242921 6.68803271,3.7242921 C6.05414592,3.7242921 5.51081439,3.19225037 5.51081439,2.57153502 C5.55609201,1.95081967 6.05414592,1.41877794 6.68803271,1.41877794 Z M10.749963,1.41877794 C11.3838498,1.41877794 11.9271813,1.95081967 11.9271813,2.57153502 C11.9271813,3.19225037 11.3838498,3.7242921 10.749963,3.7242921 C10.1160762,3.7242921 9.57274468,3.19225037 9.57274468,2.57153502 C9.61802231,1.95081967 10.1160762,1.41877794 10.749963,1.41877794 Z" id="Shape" fill="#0A162F" fill-rule="nonzero"></path>
                            <rect id="Rectangle" fill="#FFFFFF" x="14.1503906" y="2.57153502" width="4.71679688" height="1" rx="0.5"></rect>
                        </g>
                        <path d="M1,0 L19.9635417,0 C20.5158264,1.86065652e-15 20.9635417,0.44771525 20.9635417,1 L20.9635417,22.2866369 L20.9635417,22.2866369 L0,22.2866369 L0,1 C-6.76353751e-17,0.44771525 0.44771525,1.01453063e-16 1,0 Z" id="Rectangle" fill="#0A162F"></path>
                    </g>
                    <g id="noun_Folder_3190866" transform="translate(3.000000, 5.000000)" fill="#FFFFFF" fill-rule="nonzero">
                        <path d="M13.3636364,1.33334325 L5.98818182,1.33334325 L4.90636364,0.193344311 C4.78626983,0.0685534175 4.62369281,-0.0010133474 4.45454545,0 L0.636363636,0 C0.284909705,0 0,0.298487713 0,0.666677204 L0,11.333334 C0,11.7015234 0.284909705,12 0.636363636,12 L13.3636364,12 C13.7150903,12 14,11.7015234 14,11.333334 L14,2 C14,1.63181981 13.7150903,1.33334325 13.3636364,1.33334325 Z" id="Path"></path>
                    </g>
                </g>
                <g id="Group-7" transform="translate(209.000000, 284.000000)">
                    <g id="Group-25" transform="translate(0.000000, 22.000000)">
                        <g id="Group-23" transform="translate(0.000000, 0.657228)">
                            <path d="M0,4.06675574 C0,4.58045121 0.408342333,4.9657228 0.952798776,4.9657228 L20.0541457,4.9657228 C20.5986021,4.9657228 21.0069444,4.58045121 21.0069444,4.06675574 L21.0069444,0.898967059 C21.0069444,0.385271597 20.5986021,0 20.0541457,0 L0.998170146,0 C0.453713703,0 0.0453713703,0.385271597 0.0453713703,0.898967059 L0.0453713703,4.06675574 L0,4.06675574 Z M2.63153948,1.36985457 C3.26673866,1.36985457 3.8111951,1.88355003 3.8111951,2.4828614 C3.8111951,3.08217277 3.26673866,3.59586824 2.63153948,3.59586824 C1.99634029,3.59586824 1.45188385,3.08217277 1.45188385,2.4828614 C1.49725522,1.88355003 1.99634029,1.36985457 2.63153948,1.36985457 Z M6.70187957,1.36985457 C7.33707875,1.36985457 7.88153519,1.88355003 7.88153519,2.4828614 C7.88153519,3.08217277 7.33707875,3.59586824 6.70187957,3.59586824 C6.06668038,3.59586824 5.52222394,3.08217277 5.52222394,2.4828614 C5.56759531,1.88355003 6.06668038,1.36985457 6.70187957,1.36985457 Z M10.7722197,1.36985457 C11.4074188,1.36985457 11.9518753,1.88355003 11.9518753,2.4828614 C11.9518753,3.08217277 11.4074188,3.59586824 10.7722197,3.59586824 C10.1370205,3.59586824 9.59256403,3.08217277 9.59256403,2.4828614 C9.6379354,1.88355003 10.1370205,1.36985457 10.7722197,1.36985457 Z" id="Shape" fill="#0A162F" fill-rule="nonzero"></path>
                            <rect id="Rectangle" fill="#FFFFFF" x="14.1796875" y="2.4828614" width="4.7265625" height="1" rx="0.5"></rect>
                        </g>
                    </g>
                    <path d="M10.0291545,17.5380282 C8.39650146,17.5380282 6.88046647,16.856338 5.71428571,15.6788732 L5.71428571,16.9183099 C5.71428571,17.228169 5.42274052,17.5380282 5.13119534,17.5380282 C4.83965015,17.5380282 4.54810496,17.228169 4.54810496,16.9183099 L4.54810496,14.0056338 L4.54810496,13.8197183 C4.54810496,13.7577465 4.54810496,13.6957746 4.54810496,13.6338028 C4.54810496,13.6338028 4.54810496,13.6338028 4.54810496,13.6338028 C4.54810496,13.6338028 4.54810496,13.6338028 4.54810496,13.6338028 C4.54810496,13.571831 4.60641399,13.5098592 4.60641399,13.4478873 C4.60641399,13.4478873 4.66472303,13.3859155 4.66472303,13.3239437 C4.66472303,13.3239437 4.66472303,13.3239437 4.66472303,13.3239437 C4.66472303,13.2619718 4.72303207,13.2619718 4.78134111,13.2619718 C4.83965015,13.2619718 4.89795918,13.2 4.89795918,13.2 C4.95626822,13.2 5.01457726,13.2 5.0728863,13.2 L7.98833819,13.2 C8.27988338,13.2 8.57142857,13.5098592 8.57142857,13.8197183 C8.57142857,14.1295775 8.27988338,14.4394366 7.98833819,14.4394366 L6.18075802,14.4394366 C7.11370262,15.6169014 8.51311953,16.2985915 9.97084548,16.2985915 C12.7113703,16.2985915 14.9854227,13.943662 14.9854227,10.9690141 C14.9854227,8.05633803 12.7696793,5.63943662 9.97084548,5.63943662 C7.2303207,5.63943662 4.95626822,7.9943662 4.95626822,10.9690141 C4.95626822,11.2788732 4.72303207,11.5887324 4.37317784,11.5887324 C4.08163265,11.5887324 3.79008746,11.2788732 3.79008746,10.9690141 C3.79008746,7.37464789 6.53061224,4.4 9.97084548,4.4 C13.3527697,4.4 16.1516035,7.31267606 16.1516035,10.9690141 C16.1516035,14.6253521 13.4110787,17.5380282 10.0291545,17.5380282 Z M19.1836735,0 L0.874635569,0 C0.408163265,0 0,0.433802817 0,0.929577465 L0,22 L20,22 L20,0.929577465 C20,0.433802817 19.6501458,0 19.1836735,0 Z" id="Shape" fill="#0A162F" fill-rule="nonzero"></path>
                </g>
            </g>
        </g>
    </g>
</svg>