<?xml version="1.0" encoding="UTF-8"?>
<svg width="65px" height="54px" viewBox="0 0 65 54" version="1.1" xmlns="http://www.w3.org/2000/svg" xmlns:xlink="http://www.w3.org/1999/xlink">
    <!-- Generator: Sketch 64 (93537) - https://sketch.com -->
    <title>Group 13</title>
    <desc>Created with Sketch.</desc>
    <g id="Final-Designs" stroke="none" stroke-width="1" fill="none" fill-rule="evenodd">
        <g id="Startseite_v1_final" transform="translate(-793.000000, -1231.000000)" fill="#FFFFFF" fill-rule="nonzero">
            <g id="Group-18" transform="translate(300.000000, 1136.000000)">
                <g id="Group-19" transform="translate(493.000000, 54.000000)">
                    <g id="Group-13" transform="translate(0.000000, 41.000000)">
                        <path d="M53.3,14.3494083 C52,14.3494083 50.7,14.6385648 49.5444444,15.0722996 C49.4722222,15.1445887 49.3277778,15.0000104 49.4,14.9277213 C49.4,14.5662757 49.4722222,14.2048301 49.4722222,13.9156736 C49.4722222,5.89158066 42.8277778,-0.542151482 35.0277778,0.0361615194 C31.7055556,0.253028895 28.7444444,1.77110052 26.5055556,4.08435253 C24.7,5.96386979 23.4,8.34941092 22.8222222,11.0241085 C22.8222222,11.0241085 22.8222222,11.0241085 22.8222222,11.0241085 C21.7388889,10.4457955 20.4388889,10.0843499 19.1388889,10.0843499 C16.9,10.0843499 14.8777778,11.0241085 13.3611111,12.5421802 C11.9166667,14.0602518 10.9777778,16.1566364 10.9777778,18.4698884 L10.9777778,18.4698884 C8.16111111,18.6144667 5.63333333,19.7710927 3.68333333,21.5783208 C3.61111111,21.5783208 3.61111111,21.65061 3.53888889,21.7228991 C3.46666667,21.7951882 3.39444444,21.8674773 3.32222222,21.8674773 C1.3,24.0361511 0,27 0,30.2530159 C0,33.5060265 1.3,36.4698806 3.32222222,38.5662652 C3.39444444,38.6385544 3.46666667,38.7108435 3.53888889,38.7831326 C3.68333333,38.9277109 3.82777778,39 3.97222222,39 L13.8666667,39 L13.8666667,36.686748 C13.8666667,35.8915676 14.3,35.0963872 15.0222222,34.6626525 C15.0944444,34.5903634 15.1666667,34.5180742 15.1666667,34.373496 C15.1666667,34.3012069 15.0944444,34.1566286 15.0222222,34.0843395 C14.3,33.4337374 13.8666667,32.4939787 13.8666667,31.5542201 L13.8666667,25.3373553 C13.8666667,24.0361511 14.95,22.9518142 16.25,22.9518142 L48.8944444,22.9518142 C50.2666667,22.9518142 51.2777778,24.0361511 51.2777778,25.3373553 L51.2777778,32.3494005 C51.2777778,33.0722917 50.9888889,33.7228939 50.4111111,34.0843395 C50.3388889,34.1566286 50.2666667,34.2289177 50.2666667,34.373496 C50.2666667,34.4457851 50.3388889,34.5903634 50.4111111,34.6626525 C50.9888889,35.0963872 51.2777778,35.7469894 51.2777778,36.4698806 L51.2777778,39 L56.6944444,39 C56.6944444,39 56.6944444,39 56.6944444,39 C56.7666667,39 56.8388889,38.9277109 56.9111111,38.9277109 C61.6055556,37.3373501 65,32.8554244 65,27.5783182 L65,26.277114 C65,19.6988036 59.7277778,14.2048301 53.3,14.3494083 Z" id="Path"></path>
                        <path d="M47.4319654,24 L17.4967603,24 C16.6414687,24 16,24.6982759 16,25.6293103 L16,31.3706897 C16,32.3017241 16.6414687,33 17.4967603,33 L47.5032397,33 C48.3585313,33 49,32.3017241 49,31.3706897 L49,25.6293103 C49,24.6982759 48.287257,24 47.4319654,24 Z M20.062635,30.5172414 C19.0647948,30.5172414 18.2095032,29.5862069 18.2095032,28.5 C18.2095032,27.4137931 19.0647948,26.4827586 20.062635,26.4827586 C21.0604752,26.4827586 21.9157667,27.4137931 21.9157667,28.5 C21.9157667,29.5862069 21.1317495,30.5172414 20.062635,30.5172414 Z" id="Shape"></path>
                        <path d="M16,42.3706897 C16,43.3017241 16.6414687,44 17.4967603,44 L47.5032397,44 C48.3585313,44 49,43.3017241 49,42.3706897 L49,36.6293103 C49,35.6982759 48.3585313,35 47.5032397,35 L17.5680346,35 C16.712743,35 16.0712743,35.6982759 16.0712743,36.6293103 L16.0712743,42.3706897 L16,42.3706897 Z M20.1339093,37.5603448 C21.1317495,37.5603448 21.987041,38.4913793 21.987041,39.5775862 C21.987041,40.6637931 21.1317495,41.5948276 20.1339093,41.5948276 C19.1360691,41.5948276 18.2807775,40.6637931 18.2807775,39.5775862 C18.3520518,38.4137931 19.1360691,37.5603448 20.1339093,37.5603448 Z" id="Shape"></path>
                        <path d="M16,52.3706897 C16,53.3017241 16.6414687,54 17.4967603,54 L47.5032397,54 C48.3585313,54 49,53.3017241 49,52.3706897 L49,46.6293103 C49,45.6982759 48.3585313,45 47.5032397,45 L17.5680346,45 C16.712743,45 16.0712743,45.6982759 16.0712743,46.6293103 L16.0712743,52.3706897 L16,52.3706897 Z M20.1339093,47.4827586 C21.1317495,47.4827586 21.987041,48.4137931 21.987041,49.5 C21.987041,50.5862069 21.1317495,51.5172414 20.1339093,51.5172414 C19.1360691,51.5172414 18.2807775,50.5862069 18.2807775,49.5 C18.3520518,48.4137931 19.1360691,47.4827586 20.1339093,47.4827586 Z" id="Shape"></path>
                    </g>
                </g>
            </g>
        </g>
    </g>
</svg>