<?xml version="1.0" encoding="UTF-8"?>
<svg width="55px" height="49px" viewBox="0 0 55 49" version="1.1" xmlns="http://www.w3.org/2000/svg" xmlns:xlink="http://www.w3.org/1999/xlink">
    <!-- Generator: Sketch 64 (93537) - https://sketch.com -->
    <title>noun_service_2247601</title>
    <desc>Created with Sketch.</desc>
    <g id="Final-Designs" stroke="none" stroke-width="1" fill="none" fill-rule="evenodd">
        <g id="Startseite_v1_final" transform="translate(-358.000000, -1232.000000)" fill="#FFFFFF" fill-rule="nonzero">
            <g id="Group-18" transform="translate(300.000000, 1136.000000)">
                <g id="Group-12" transform="translate(58.000000, 54.000000)">
                    <g id="noun_service_2247601" transform="translate(0.000000, 42.000000)">
                        <path d="M52.0196078,17.8206948 C51.8954248,17.5046694 51.9084967,17.1483003 52.0653595,16.8457228 C52.7254902,15.5748973 52.496732,13.9745984 51.503268,12.9525588 L48.248366,9.60403437 C47.254902,8.58199477 45.7058824,8.34665671 44.4640523,9.02577512 C44.1699346,9.18714979 43.8235294,9.20732163 43.5163399,9.07284273 C43.2091503,8.94508778 42.9738562,8.67613 42.875817,8.34665671 C42.4705882,6.96824804 41.2091503,6 39.8039216,6 L35.2026144,6 C33.7973856,6 32.5359477,6.96152409 32.130719,8.34665671 C32.0326797,8.67613 31.8039216,8.93836384 31.4901961,9.07284273 C31.1830065,9.20059768 30.8366013,9.18714979 30.5424837,9.02577512 C29.3071895,8.34665671 27.751634,8.58199477 26.7581699,9.60403437 L23.503268,12.9525588 C22.5098039,13.9745984 22.2810458,15.5748973 22.9411765,16.8457228 C23.0980392,17.1483003 23.1176471,17.5046694 22.9869281,17.8206948 C22.8627451,18.1367202 22.6013072,18.3787822 22.2810458,18.4796414 C20.9411765,18.896526 20,20.1942473 20,21.6398954 L20,26.3735525 C20,27.8192006 20.9346405,29.1169219 22.2810458,29.5338065 C22.6013072,29.6346657 22.8562092,29.8700037 22.9869281,30.1927531 C23.1111111,30.5087785 23.0980392,30.8651476 22.9411765,31.1677251 C22.2810458,32.4385506 22.5098039,34.0388495 23.503268,35.0608891 L26.7581699,38.4094135 C27.745098,39.4247292 29.3006536,39.6667912 30.5294118,38.9876728 C30.5294118,38.9876728 30.5294118,38.9876728 30.5294118,38.9876728 C30.5294118,38.9876728 30.5359477,38.9876728 30.5359477,38.9876728 C30.6470588,38.9271573 30.7647059,38.8935375 30.8888889,38.8733657 C30.9215686,38.8666418 30.9477124,38.8666418 30.9738562,38.8599178 C31,38.8599178 31.0326797,38.8464699 31.0588235,38.8464699 C31.1111111,38.8464699 31.1633987,38.8733657 31.2222222,38.8800897 C31.2745098,38.8868136 31.3202614,38.8800897 31.372549,38.8935375 C31.3921569,38.9002615 31.4052288,38.9137094 31.4248366,38.9204333 C31.4444444,38.9271573 31.4640523,38.9271573 31.4836601,38.9338812 C31.5294118,38.954053 31.5555556,38.9943967 31.5947712,39.0145685 C31.6797386,39.0616362 31.751634,39.1087038 31.8169935,39.1759432 C31.8627451,39.2230108 31.8954248,39.2700784 31.9346405,39.32387 C31.9869281,39.4045573 32.0326797,39.4785207 32.0718954,39.565932 C32.0849673,39.5995517 32.1111111,39.6197236 32.124183,39.6533433 C32.5294118,41.031752 33.7908497,42 35.1960784,42 L39.7973856,42 C41.2026144,42 42.4640523,41.0384759 42.869281,39.6533433 C42.9673203,39.32387 43.2026144,39.0616362 43.5098039,38.9271573 C43.8169935,38.7994023 44.1633987,38.8128502 44.4575163,38.9742249 C45.6928105,39.6533433 47.248366,39.4180052 48.2418301,38.3959656 L51.496732,35.0474412 C52.4901961,34.0254016 52.7189542,32.4251027 52.0588235,31.1542772 C51.9019608,30.8516997 51.8823529,30.4953306 52.0130719,30.1793052 C52.1372549,29.8632798 52.3986928,29.6212178 52.7189542,29.5203586 C54.0588235,29.103474 55,27.8057527 55,26.3601046 L55,21.6264475 C55,20.1807994 54.0653595,18.8830781 52.7189542,18.4661935 C52.4052288,18.3720583 52.1437908,18.1367202 52.0196078,17.8206948 Z M37.5098039,32.6671647 C32.8627451,32.6671647 29.0849673,28.7807247 29.0849673,24 C29.0849673,19.2192753 32.8627451,15.3328353 37.5098039,15.3328353 C42.1568627,15.3328353 45.9346405,19.2192753 45.9346405,24 C45.9346405,28.7807247 42.1503268,32.6671647 37.5098039,32.6671647 Z" id="Shape"></path>
                        <path d="M37.6152344,17.4257812 C34.0330426,17.4257812 31.1152344,20.3435895 31.1152344,23.9257812 C31.1152344,27.507973 34.0330426,30.4257812 37.6152344,30.4257812 C41.1974262,30.4257812 44.1152344,27.507973 44.1152344,23.9257812 C44.1152344,20.3435895 41.1974262,17.4257812 37.6152344,17.4257812 Z" id="Path"></path>
                        <path d="M1.35398637,13.7376945 C1.5473789,13.7977136 1.70075918,13.937758 1.77411497,14.1178152 C1.84747076,14.3045411 1.84080205,14.5112734 1.74744014,14.6846618 C1.34731766,15.4248968 1.48736053,16.3651953 2.08087554,16.9587171 L4.03480697,18.9126707 C4.62832197,19.5061924 5.5686098,19.6462369 6.30883638,19.2461099 C6.37552346,19.212766 6.44887925,19.1927596 6.52223503,19.179422 C6.54224116,19.179422 6.55557857,19.1727533 6.5755847,19.1727533 C6.59559082,19.1727533 6.60892824,19.1660845 6.62893436,19.1660845 C6.6622779,19.1660845 6.69562144,19.179422 6.72896498,19.1860908 C6.76230852,19.1927596 6.78898335,19.1860908 6.82232689,19.1927596 C6.83566431,19.1994284 6.84233301,19.2060972 6.85567043,19.2060972 C6.86900785,19.212766 6.88234526,19.2060972 6.88901397,19.212766 C6.9156888,19.2261035 6.92902622,19.2461099 6.95570105,19.2594474 C7.00238201,19.2861226 7.04906296,19.3127977 7.08907521,19.3528104 C7.11575004,19.3794856 7.13575616,19.4061607 7.162431,19.4395046 C7.19577454,19.4861861 7.22244937,19.5328676 7.24245549,19.5795491 C7.2491242,19.5995554 7.26913032,19.612893 7.26913032,19.6328993 C7.51587252,20.4398222 8.26943652,21 9.11636243,21 L11.8838762,21 C12.7241334,21 13.4843661,20.4398222 13.7311083,19.6328993 C13.7911267,19.4395046 13.9311696,19.2861226 14.1112247,19.212766 C14.2979485,19.1327406 14.5046785,19.1460781 14.6780649,19.2394411 C15.4182914,19.6395681 16.3585793,19.4995237 16.9520943,18.9060019 L18.9060257,16.9520483 C19.4995407,16.3585265 19.6395836,15.418228 19.2394611,14.677993 C19.1460992,14.5046046 19.1327618,14.2912036 19.2127863,14.1111464 C19.2861421,13.9244205 19.446191,13.784376 19.6329149,13.7310257 C20.4531659,13.4842807 21,12.7440457 21,11.8837726 L21,9.11622737 C21,8.27596062 20.4398285,7.51571928 19.6329149,7.26897428 C19.4395223,7.20895522 19.2861421,7.06891077 19.2127863,6.8888536 C19.1394305,6.70879644 19.1460992,6.49539536 19.2394611,6.32200699 C19.6395836,5.58177199 19.4995407,4.64147348 18.9060257,4.04795173 L16.9520943,2.09399809 C16.3585793,1.50047634 15.4249602,1.36043188 14.6780649,1.76055891 C14.5046785,1.85392188 14.2912798,1.86725945 14.1112247,1.78723404 C13.9245009,1.71387742 13.784458,1.55382661 13.7311083,1.36710067 C13.4843661,0.560177834 12.7308021,0 11.8838762,0 L9.11636243,0 C8.27610522,0 7.51587252,0.560177834 7.26913032,1.36710067 C7.20911195,1.5604954 7.06906908,1.71387742 6.88901397,1.78723404 C6.70229015,1.86059066 6.4955602,1.85392188 6.32217379,1.76055891 C5.58194721,1.36043188 4.6483281,1.50047634 4.04814438,2.09399809 L2.09421295,4.04795173 C1.50069794,4.64147348 1.36065508,5.58177199 1.76077755,6.32200699 C1.85413947,6.49539536 1.86747688,6.70879644 1.78745239,6.8888536 C1.70742789,7.06891077 1.55404761,7.21562401 1.36732378,7.26897428 C0.560410122,7.51571928 0.000238654173,8.26929184 0.000238654173,9.11622737 L0.000238654173,11.8837726 C-0.0130987617,12.7507145 0.53373529,13.4909495 1.35398637,13.7376945 Z M10.496785,5.44839632 C13.2843049,5.44839632 15.5583343,7.71578279 15.5583343,10.5100032 C15.5583343,13.3042236 13.2909736,15.57161 10.496785,15.57161 C7.70259634,15.57161 5.43523564,13.3042236 5.43523564,10.5100032 C5.43523564,7.71578279 7.70259634,5.44839632 10.496785,5.44839632 Z" id="Shape"></path>
                        <path d="M10.5,14 C12.4284436,14 14,12.4284436 14,10.5 C14,8.57155635 12.4284436,7 10.5,7 C8.57155635,7 7,8.57155635 7,10.5 C7,12.4347048 8.57155635,14 10.5,14 Z" id="Path"></path>
                        <path d="M1.35398637,41.7376945 C1.5473789,41.7977136 1.70075918,41.937758 1.77411497,42.1178152 C1.84747076,42.3045411 1.84080205,42.5112734 1.74744014,42.6846618 C1.34731766,43.4248968 1.48736053,44.3651953 2.08087554,44.9587171 L4.03480697,46.9126707 C4.62832197,47.5061924 5.5686098,47.6462369 6.30883638,47.2461099 C6.37552346,47.212766 6.44887925,47.1927596 6.52223503,47.179422 C6.54224116,47.179422 6.55557857,47.1727533 6.5755847,47.1727533 C6.59559082,47.1727533 6.60892824,47.1660845 6.62893436,47.1660845 C6.6622779,47.1660845 6.69562144,47.179422 6.72896498,47.1860908 C6.76230852,47.1927596 6.78898335,47.1860908 6.82232689,47.1927596 C6.83566431,47.1994284 6.84233301,47.2060972 6.85567043,47.2060972 C6.86900785,47.212766 6.88234526,47.2060972 6.88901397,47.212766 C6.9156888,47.2261035 6.92902622,47.2461099 6.95570105,47.2594474 C7.00238201,47.2861226 7.04906296,47.3127977 7.08907521,47.3528104 C7.11575004,47.3794856 7.13575616,47.4061607 7.162431,47.4395046 C7.19577454,47.4861861 7.22244937,47.5328676 7.24245549,47.5795491 C7.2491242,47.5995554 7.26913032,47.612893 7.26913032,47.6328993 C7.51587252,48.4398222 8.26943652,49 9.11636243,49 L11.8838762,49 C12.7241334,49 13.4843661,48.4398222 13.7311083,47.6328993 C13.7911267,47.4395046 13.9311696,47.2861226 14.1112247,47.212766 C14.2979485,47.1327406 14.5046785,47.1460781 14.6780649,47.2394411 C15.4182914,47.6395681 16.3585793,47.4995237 16.9520943,46.9060019 L18.9060257,44.9520483 C19.4995407,44.3585265 19.6395836,43.418228 19.2394611,42.677993 C19.1460992,42.5046046 19.1327618,42.2912036 19.2127863,42.1111464 C19.2861421,41.9244205 19.446191,41.784376 19.6329149,41.7310257 C20.4531659,41.4842807 21,40.7440457 21,39.8837726 L21,37.1162274 C21,36.2759606 20.4398285,35.5157193 19.6329149,35.2689743 C19.4395223,35.2089552 19.2861421,35.0689108 19.2127863,34.8888536 C19.1394305,34.7087964 19.1460992,34.4953954 19.2394611,34.322007 C19.6395836,33.581772 19.4995407,32.6414735 18.9060257,32.0479517 L16.9520943,30.0939981 C16.3585793,29.5004763 15.4249602,29.3604319 14.6780649,29.7605589 C14.5046785,29.8539219 14.2912798,29.8672594 14.1112247,29.787234 C13.9245009,29.7138774 13.784458,29.5538266 13.7311083,29.3671007 C13.4843661,28.5601778 12.7308021,28 11.8838762,28 L9.11636243,28 C8.27610522,28 7.51587252,28.5601778 7.26913032,29.3671007 C7.20911195,29.5604954 7.06906908,29.7138774 6.88901397,29.787234 C6.70229015,29.8605907 6.4955602,29.8539219 6.32217379,29.7605589 C5.58194721,29.3604319 4.6483281,29.5004763 4.04814438,30.0939981 L2.09421295,32.0479517 C1.50069794,32.6414735 1.36065508,33.581772 1.76077755,34.322007 C1.85413947,34.4953954 1.86747688,34.7087964 1.78745239,34.8888536 C1.70742789,35.0689108 1.55404761,35.215624 1.36732378,35.2689743 C0.560410122,35.5157193 0.000238654173,36.2692918 0.000238654173,37.1162274 L0.000238654173,39.8837726 C-0.0130987617,40.7440457 0.53373529,41.4842807 1.35398637,41.7376945 Z M10.496785,33.4483963 C13.2843049,33.4483963 15.5583343,35.7157828 15.5583343,38.5100032 C15.5583343,41.3042236 13.2909736,43.57161 10.496785,43.57161 C7.70259634,43.57161 5.43523564,41.3042236 5.43523564,38.5100032 C5.43523564,35.7157828 7.70259634,33.4483963 10.496785,33.4483963 Z" id="Shape"></path>
                        <path d="M10.5,42 C12.4284436,42 14,40.4284436 14,38.5 C14,36.5715564 12.4284436,35 10.5,35 C8.57155635,35 7,36.5715564 7,38.5 C7,40.4284436 8.57155635,42 10.5,42 Z" id="Path"></path>
                    </g>
                </g>
            </g>
        </g>
    </g>
</svg>