<?xml version="1.0" encoding="UTF-8"?>
<svg width="64px" height="56px" viewBox="0 0 64 56" version="1.1" xmlns="http://www.w3.org/2000/svg" xmlns:xlink="http://www.w3.org/1999/xlink">
    <!-- Generator: Sketch 64 (93537) - https://sketch.com -->
    <title>Group 32</title>
    <desc>Created with Sketch.</desc>
    <g id="Final-Designs" stroke="none" stroke-width="1" fill="none" fill-rule="evenodd">
        <g id="Startseite_v1_final" transform="translate(-357.000000, -1497.000000)" fill="#FFFFFF" fill-rule="nonzero">
            <g id="Group-18" transform="translate(300.000000, 1136.000000)">
                <g id="Group-11" transform="translate(57.000000, 322.000000)">
                    <g id="Group-32" transform="translate(0.000000, 39.000000)">
                        <path d="M60.9589633,0 L2.90280778,0 C1.24406048,0 0,1.24137931 0,2.89655172 L0,13.1034483 C0,14.7586207 1.24406048,16 2.90280778,16 L61.0971922,16 C62.7559395,16 64,14.7586207 64,13.1034483 L64,2.89655172 C64,1.24137931 62.6177106,0 60.9589633,0 Z M7.87904968,11.5862069 C5.94384449,11.5862069 4.28509719,9.93103448 4.28509719,8 C4.28509719,6.06896552 5.94384449,4.4137931 7.87904968,4.4137931 C9.81425486,4.4137931 11.4730022,6.06896552 11.4730022,8 C11.4730022,9.93103448 9.9524838,11.5862069 7.87904968,11.5862069 Z M20.2797949,11.5862069 C18.3445897,11.5862069 16.6858424,9.93103448 16.6858424,8 C16.6858424,6.06896552 18.3445897,4.4137931 20.2797949,4.4137931 C22.2150001,4.4137931 23.8737474,6.06896552 23.8737474,8 C23.8737474,9.93103448 22.353229,11.5862069 20.2797949,11.5862069 Z M32.6805401,11.5862069 C30.7453349,11.5862069 29.0865876,9.93103448 29.0865876,8 C29.0865876,6.06896552 30.7453349,4.4137931 32.6805401,4.4137931 C34.6157453,4.4137931 36.2744926,6.06896552 36.2744926,8 C36.2744926,9.93103448 34.7539742,11.5862069 32.6805401,11.5862069 Z" id="Shape"></path>
                        <path d="M0,32.1034483 C0,33.7586207 1.24406048,35 2.90280778,35 L61.0971922,35 C62.7559395,35 64,33.7586207 64,32.1034483 L64,21.8965517 C64,20.2413793 62.7559395,19 61.0971922,19 L3.04103672,19 C1.38228942,19 0.138228942,20.2413793 0.138228942,21.8965517 L0.138228942,32.1034483 L0,32.1034483 Z M8.01727862,23.5517241 C9.9524838,23.5517241 11.6112311,25.2068966 11.6112311,27.137931 C11.6112311,29.0689655 9.9524838,30.7241379 8.01727862,30.7241379 C6.08207343,30.7241379 4.42332613,29.0689655 4.42332613,27.137931 C4.56155508,25.0689655 6.08207343,23.5517241 8.01727862,23.5517241 Z M20.4180238,23.5517241 C22.353229,23.5517241 24.0119763,25.2068966 24.0119763,27.137931 C24.0119763,29.0689655 22.353229,30.7241379 20.4180238,30.7241379 C18.4828186,30.7241379 16.8240713,29.0689655 16.8240713,27.137931 C16.9623003,25.0689655 18.4828186,23.5517241 20.4180238,23.5517241 Z M32.818769,23.5517241 C34.7539742,23.5517241 36.4127215,25.2068966 36.4127215,27.137931 C36.4127215,29.0689655 34.7539742,30.7241379 32.818769,30.7241379 C30.8835639,30.7241379 29.2248166,29.0689655 29.2248166,27.137931 C29.3630455,25.0689655 30.8835639,23.5517241 32.818769,23.5517241 Z" id="Shape"></path>
                        <path d="M0,53.1034483 C0,54.7586207 1.24406048,56 2.90280778,56 L61.0971922,56 C62.7559395,56 64,54.7586207 64,53.1034483 L64,42.8965517 C64,41.2413793 62.7559395,40 61.0971922,40 L3.04103672,40 C1.38228942,40 0.138228942,41.2413793 0.138228942,42.8965517 L0.138228942,53.1034483 L0,53.1034483 Z M8.01727862,44.4137931 C9.9524838,44.4137931 11.6112311,46.0689655 11.6112311,48 C11.6112311,49.9310345 9.9524838,51.5862069 8.01727862,51.5862069 C6.08207343,51.5862069 4.42332613,49.9310345 4.42332613,48 C4.56155508,46.0689655 6.08207343,44.4137931 8.01727862,44.4137931 Z M20.4180238,44.4137931 C22.353229,44.4137931 24.0119763,46.0689655 24.0119763,48 C24.0119763,49.9310345 22.353229,51.5862069 20.4180238,51.5862069 C18.4828186,51.5862069 16.8240713,49.9310345 16.8240713,48 C16.9623003,46.0689655 18.4828186,44.4137931 20.4180238,44.4137931 Z M32.818769,44.4137931 C34.7539742,44.4137931 36.4127215,46.0689655 36.4127215,48 C36.4127215,49.9310345 34.7539742,51.5862069 32.818769,51.5862069 C30.8835639,51.5862069 29.2248166,49.9310345 29.2248166,48 C29.3630455,46.0689655 30.8835639,44.4137931 32.818769,44.4137931 Z" id="Shape"></path>
                    </g>
                </g>
            </g>
        </g>
    </g>
</svg>