<?xml version="1.0" encoding="UTF-8"?>
<svg id="SVGDoc" width="1150" height="416" xmlns="http://www.w3.org/2000/svg" version="1.1" xmlns:xlink="http://www.w3.org/1999/xlink" xmlns:avocode="https://avocode.com/" viewBox="0 0 1150 416"><defs></defs><desc>Generated with Avocode.</desc><g><g opacity="-1"><title>noun_Lock_1559</title><g><title>Shape</title><path d="M312.34766,37.60554v2.11666h-3.68489v-2.11666c0,-1.02362 0.82477,-1.85337 1.84238,-1.85337c1.01733,0 1.84238,0.82975 1.84238,1.85337zM315,45.48084v-5.23989c0,-0.28653 -0.2302,-0.51875 -0.51424,-0.51875h-0.51423v-2.22033c0,-1.93407 -1.55443,-3.50187 -3.47139,-3.50187c-1.91738,0 -3.47153,1.56794 -3.47153,3.50187v2.22033h-0.51424c-0.28417,0 -0.51437,0.23222 -0.51437,0.51875v5.24002c0,0.28681 0.2302,0.51903 0.51437,0.51903h7.97139c0.28404,0 0.51438,-0.23222 0.51424,-0.51916z" fill="#ffffff" fill-opacity="1"></path></g></g><g opacity="-1"><title>noun_Cloud Docker_676618</title><g><title>Group</title><g><title>Path</title><path d="M870.71277,26.61v0h-3.81277v0v3.40313c1.19149,0.03437 2.48511,0.10312 3.81277,0.1375z" fill="#61839e" fill-opacity="1"></path></g><g><title>Path</title><path d="M875.51277,30.32247v0v-3.71247v0h-3.81277v0v3.57497c1.19149,0.06875 2.41702,0.10313 3.6766,0.17188h0.13617v0z" fill="#61839e" fill-opacity="1"></path></g><g><title>Rectangle</title><path d="M876.46,26.61v0h3.81274v0v3.74685v0h-3.81274v0z" fill="#61839e" fill-opacity="1"></path></g><g><title>Rectangle</title><path d="M866.9,22v0h3.81277v0v3.74687v0h-3.81277v0z" fill="#61839e" fill-opacity="1"></path></g><g><title>Rectangle</title><path d="M871.73,22v0h3.81277v0v3.74687v0h-3.81277v0z" fill="#61839e" fill-opacity="1"></path></g><g><title>Shape</title><path d="M875.74985,51.7c-0.47659,0.51563 -1.22553,0.85938 -2.11064,0.85938h-0.20425l-0.13617,0.17187c-0.64681,0.79063 -2.17872,1.47813 -3.6766,1.27188c-1.08936,-0.1375 -1.94042,-0.65313 -2.34893,-1.375l-0.20426,-0.34375l-0.37447,0.1375c-0.20425,0.06875 -0.85106,0.1375 -1.19149,-0.03438c-0.34042,-0.1375 -1.3617,-0.72187 -1.29361,-1.925c0.06808,-0.85937 0.68085,-1.47812 1.49787,-1.54687l0.44255,-0.03438v-0.44687c0,-0.1375 0,-0.275 0.03405,-0.4125c0.17021,-1.30625 1.42978,-2.2 2.79149,-1.99375c0.78297,0.10312 1.49787,0.58437 1.87234,1.27187l0.20425,0.37813l0.37447,-0.17188c0.17021,-0.06875 0.37447,-0.10312 0.57872,-0.10312c0.68085,0 1.25958,0.48125 1.39575,1.13437l0.10212,0.44688l0.44256,-0.10313c0.57872,-0.10312 1.1234,0 1.56596,0.34375c0.40851,0.30938 0.6468,0.75625 0.68085,1.2375c0.03404,0.44688 -0.13617,0.89375 -0.44256,1.2375zM867.13709,42.89184c-1.39574,-0.61736 -3.23404,-1.5777 -4.8,-3.3612c0.4766,0.0686 0.98723,0.13719 1.49787,0.13719c1.42979,1.47482 3.54043,2.88103 5.88936,3.32689c-1.87234,-0.72025 -3.40425,-1.5091 -4.86808,-3.32689c0.34042,0 0.64681,-0.03429 0.98723,-0.0686c1.73617,1.68059 4.25532,3.15541 6.02553,3.53269c-1.63404,-0.75455 -3.74468,-2.09218 -5.10638,-3.63559c0.40851,-0.06859 0.78298,-0.13718 1.19149,-0.24008c1.22553,1.6463 4.28936,4.04716 7.72766,4.21865c-4.05106,0.58306 -7.35319,-0.0686 -8.54468,-0.58307zM869.85552,37.74377c0.43973,0 0.77799,0.34593 0.77799,0.79563c0,0.4497 -0.33826,0.79562 -0.77799,0.79562c-0.43973,0 -0.77799,-0.34593 -0.77799,-0.79562c-0.03382,-0.41511 0.33826,-0.79563 0.77799,-0.79563zM889.16262,42.28125c-0.85106,-0.61875 -1.80425,-0.89375 -2.62127,-0.6875c-0.30639,-0.55 -0.81702,-1.16875 -1.49788,-1.61562c2.28086,-1.89063 3.81277,-4.26251 4.18724,-6.77188c0.44255,-2.81875 -0.81702,-5.67187 -1.22553,-6.49687c1.15744,-0.72188 1.77021,-1.34063 1.97446,-2.16563c0.2383,-0.99687 -0.37446,-2.16562 -0.8851,-2.54375c-0.03404,0.58438 -0.27234,0.9625 -0.81702,1.375c-0.44256,0.34375 -1.53192,0.65312 -1.63405,1.71875c-0.74893,-0.20625 -1.46383,0.37813 -1.94042,0.58438c-0.51064,0.20625 -1.29362,0.30937 -1.70213,0.275c0.27234,0.82499 0.57872,1.44375 1.46383,1.75312c0.74894,0.275 1.70213,-0.17187 2.75745,-0.58438c0.20425,0.30938 0.47659,1.92501 0.20425,2.81876c-0.44255,1.375 -3.74468,1.5125 -9.90638,1.30624c-9.22553,-0.27499 -17.97447,-1.23749 -18.21277,0.89376c-0.13617,1.06562 -0.20425,3.26562 1.22554,5.94687c1.83829,3.4375 6.02553,6.01563 11.33617,6.11875c1.63404,0.03438 3.23404,-0.10312 4.73191,-0.4125c1.12341,0.58438 2.14468,1.06563 3.23404,1.34063c1.80426,0.48125 3.40426,0.34375 4.08511,0.03437c0.68085,-0.30937 0,-0.55 -0.64681,-0.65312c-0.61276,-0.10313 -2.14468,-1.23751 -3.74468,-1.5125c1.8383,-0.65313 3.50638,-1.54688 4.90213,-2.6125c0.78298,0.48124 1.3617,1.13437 1.56596,1.71875l0.13617,0.37812l0.37446,-0.1375c0.64681,-0.24062 1.49788,-0.06875 2.24681,0.48125c0.85107,0.61875 1.32766,1.54688 1.25958,2.44063c-0.06809,0.92812 -0.44256,1.71875 -1.08936,2.23437c-0.81703,0.61875 -2.00852,0.85938 -3.37022,0.58437l-0.44255,-0.06874l-0.03404,0.44687c0,0.275 -0.2383,0.55 -0.57873,0.75625c-0.51064,0.30938 -1.1234,0.37813 -1.53191,0.17188l-0.27234,-0.1375l-0.20426,0.30937c-0.68085,0.92812 -1.87234,1.44375 -3.26808,1.40938c-0.78298,-0.03438 -1.53192,-0.24063 -2.14468,-0.58438c-0.06809,-0.75625 -0.44256,-1.44375 -1.05532,-1.89062c-0.54468,-0.41251 -1.19149,-0.61875 -1.90639,-0.55c-0.37446,-0.85938 -1.19148,-1.44375 -2.14468,-1.44375c-0.20425,0 -0.37446,0 -0.54468,0.06875c-0.54468,-0.75625 -1.39574,-1.27188 -2.34893,-1.40938c-1.22554,-0.17188 -2.34894,0.275 -3.09788,1.13438c-0.47659,-0.24063 -0.91914,-0.61876 -1.19149,-1.1c-0.20425,-0.37813 -0.47659,-1.13438 0,-1.99375l-0.68085,-0.4125c-0.51063,0.85937 -0.51063,1.85624 0,2.75c0.34043,0.58437 0.81703,1.06562 1.42979,1.375c-0.17021,0.30937 -0.27234,0.65312 -0.34042,1.03125c0,0.06875 0,0.10312 -0.03405,0.17187c-1.08936,0.275 -1.83829,1.20313 -1.94042,2.3375c-0.10213,1.44375 0.8851,2.44062 1.8383,2.85313c0.47659,0.20625 1.08936,0.24062 1.56595,0.1375c0.61277,0.82499 1.63405,1.375 2.85958,1.51249c0.20425,0.03438 0.40851,0.03438 0.64681,0.03438c0.6468,0 1.32766,-0.1375 1.94042,-0.34375c0.71489,-0.275 1.3617,-0.65312 1.80426,-1.13437c1.05532,-0.06875 1.97446,-0.48125 2.58723,-1.16875c0.30638,-0.34375 0.51064,-0.72188 0.61277,-1.1c0.64681,0.30937 1.39574,0.48125 2.17872,0.51562c0.06809,0 0.13617,0 0.20426,0c1.42978,0 2.68936,-0.55 3.54042,-1.47812c0.61277,0.17187 1.3617,0.06875 1.97447,-0.30938c0.40851,-0.24062 0.71489,-0.58437 0.85106,-0.9625c1.42979,0.17188 2.68936,-0.10312 3.60851,-0.79062c0.81702,-0.65313 1.29362,-1.61563 1.39575,-2.78438c0,-1.20312 -0.61277,-2.40625 -1.66809,-3.1625z" fill="#61839e" fill-opacity="1"></path></g></g></g><g><title>Path 2</title><path d="M1035,72v0l2.1875,2.40196v0l-2.1875,2.40196v0" fill-opacity="0" fill="#ffffff" stroke-linejoin="miter" stroke-linecap="butt" stroke-opacity="1" stroke="#61839e" stroke-miterlimit="20" stroke-width="0.75"></path></g><g opacity="-1"><title>Kubernetes_logo_without_workmark</title><g><title>path3059</title><path d="M997.96807,43.94937c0.13358,-0.0049 0.26913,0.02244 0.39797,0.08432c0.1689,0.08112 0.29936,0.20885 0.38149,0.36199h0.01855l2.45592,4.42607c-0.31873,0.10657 -0.6464,0.19765 -0.98154,0.27354c-1.87826,0.42536 -3.75056,0.29648 -5.44591,-0.27971l2.44973,-4.41785h0.00413c0.14699,-0.27408 0.42577,-0.43759 0.71966,-0.44836zM993.75939,41.91115c0.38349,0.00537 0.72747,0.27085 0.81658,0.66021c0.04171,0.18228 0.02141,0.36289 -0.04743,0.52241l0.01444,0.01851l-1.9301,4.65231c-1.80453,-1.15496 -3.24184,-2.88428 -4.01071,-5.00606l4.98195,-0.84326l0.00824,0.01028c0.05573,-0.01022 0.11225,-0.01516 0.16703,-0.01439zM1002.19942,41.89059c0.06598,-0.00333 0.13168,0.0026 0.19589,0.01439l0.00825,-0.01028l5.02525,0.84737c-0.73545,2.06088 -2.14275,3.84625 -4.02309,5.04103l-1.95071,-4.69961l0.00618,-0.00823c-0.17919,-0.41529 0.00014,-0.9023 0.41242,-1.10035c0.10555,-0.0507 0.21583,-0.07878 0.3258,-0.08432zM997.22439,37.77303h1.55719l0.96782,1.20675l-0.34743,1.50587l-1.39796,0.67042l-1.4021,-0.67248l-0.34743,-1.50587zM1007.74637,37.16218c0.25081,1.08912 0.31376,2.1763 0.21033,3.227l-4.88297,-1.40269l-0.00412,-0.02057c-0.43726,-0.11919 -0.70598,-0.56282 -0.60419,-1.00779c0.04171,-0.18228 0.13872,-0.33649 0.27013,-0.45042l-0.00206,-0.01029l3.76945,-3.3648c0.56313,0.91039 0.98956,1.92721 1.24343,3.02956zM989.46823,34.13056l3.79007,3.38126l-0.00412,0.02056c0.3421,0.29663 0.39254,0.81137 0.10723,1.16822c-0.11688,0.14618 -0.27332,0.24423 -0.44128,0.29l-0.00413,0.01645l-4.85822,1.39858c-0.24727,-2.25517 0.28562,-4.44737 1.41045,-6.27507zM999.20942,29.46591c2.19558,0.26934 4.22608,1.26094 5.78203,2.78069l-4.12413,2.91644l-0.01444,-0.00617c-0.36605,0.26666 -0.8818,0.2005 -1.16712,-0.15631c-0.11689,-0.14617 -0.17821,-0.31804 -0.18559,-0.49156l-0.00412,-0.00205zM996.79062,29.46591l-0.28663,5.04926l-0.02062,0.01028c-0.01922,0.45172 -0.39195,0.81241 -0.84957,0.81241c-0.18745,0 -0.36047,-0.06004 -0.50108,-0.16248l-0.00825,0.00411l-4.15093,-2.93494c1.27575,-1.25123 2.90754,-2.17588 4.78811,-2.60176c0.34352,-0.0778 0.68689,-0.13552 1.02897,-0.17688zM997.99899,22c-0.53296,0.00005 -0.96511,0.47887 -0.96504,1.0695c0,0.00906 0.00186,0.01772 0.00206,0.02673c-0.00079,0.08026 -0.00468,0.17694 -0.00206,0.24681c0.01271,0.34066 0.08716,0.60139 0.13197,0.91524c0.08118,0.67176 0.1492,1.2286 0.10723,1.74616c-0.04083,0.19517 -0.18496,0.37366 -0.31344,0.49773l-0.02268,0.40723c-0.57915,0.04786 -1.16217,0.1355 -1.74451,0.26738c-2.50579,0.56747 -4.66323,1.85487 -6.30579,3.5931c-0.10658,-0.07253 -0.29304,-0.20595 -0.34849,-0.24681c-0.1723,0.02321 -0.34644,0.07623 -0.57325,-0.05553c-0.43187,-0.28996 -0.82522,-0.6902 -1.30116,-1.17234c-0.21809,-0.23063 -0.37601,-0.45024 -0.63512,-0.67255c-0.05884,-0.05048 -0.14864,-0.11876 -0.21445,-0.1707c-0.20257,-0.16109 -0.4415,-0.2451 -0.67224,-0.25298c-0.29666,-0.01013 -0.58225,0.10556 -0.76915,0.33936c-0.33225,0.41565 -0.22588,1.05094 0.23714,1.41914c0.0047,0.00373 0.0097,0.00663 0.01443,0.01028c0.06363,0.05144 0.14154,0.11736 0.20002,0.16043c0.27496,0.20248 0.52612,0.30613 0.80009,0.46687c0.57718,0.35552 1.05566,0.65031 1.43519,1.00574c0.14821,0.15757 0.17411,0.43523 0.19384,0.55532l0.30931,0.2756c-1.65582,2.48542 -2.42214,5.55542 -1.96927,8.68349l-0.40417,0.11723c-0.10652,0.1372 -0.25704,0.35309 -0.41447,0.41752c-0.49656,0.156 -1.0554,0.21328 -1.73008,0.28383c-0.31675,0.02627 -0.59005,0.01059 -0.92586,0.07404c-0.07391,0.01396 -0.17689,0.04072 -0.25776,0.05965c-0.00281,0.00059 -0.00544,0.00142 -0.00825,0.00205c-0.00441,0.00102 -0.0102,0.00315 -0.01443,0.00411c-0.56881,0.13708 -0.93422,0.65855 -0.81658,1.17234c0.11766,0.5139 0.67326,0.82642 1.24549,0.7034c0.00413,-0.00095 0.01012,-0.0011 0.01443,-0.00206c0.00646,-0.00147 0.01215,-0.0046 0.01856,-0.00617c0.07977,-0.01746 0.17973,-0.03689 0.24951,-0.05553c0.33015,-0.08816 0.56926,-0.21771 0.86607,-0.33113c0.63854,-0.22843 1.1674,-0.41926 1.68264,-0.49361c0.21519,-0.01681 0.44192,0.13243 0.55469,0.19539l0.42067,-0.07199c0.96802,2.99346 2.9967,5.41297 5.5655,6.93116l-0.17527,0.41957c0.06318,0.16293 0.13286,0.38336 0.0858,0.54425c-0.18732,0.48448 -0.50816,0.99585 -0.87351,1.56595c-0.1769,0.26339 -0.35794,0.46779 -0.51758,0.76922c-0.0382,0.07213 -0.08685,0.18292 -0.12372,0.25915c-0.24803,0.52931 -0.06609,1.13894 0.41035,1.36772c0.47944,0.23021 1.07455,-0.01259 1.33209,-0.54298c0.0004,-0.00075 0.0017,-0.0013 0.00206,-0.00205c0.00027,-0.00059 -0.00026,-0.00148 0,-0.00205c0.03669,-0.0752 0.08866,-0.17404 0.1196,-0.24475c0.13673,-0.31243 0.18223,-0.58017 0.27838,-0.88234c0.25534,-0.63973 0.39563,-1.31097 0.74713,-1.72923c0.09625,-0.11454 0.25318,-0.15859 0.41587,-0.20203l0.21858,-0.39489c2.23945,0.85736 4.74616,1.08742 7.25022,0.52035c0.57124,-0.12937 1.12271,-0.29679 1.65584,-0.49773c0.06143,0.10868 0.17559,0.3176 0.2062,0.37021c0.16534,0.05365 0.3458,0.08136 0.49283,0.29823c0.26298,0.44813 0.44283,0.97828 0.66193,1.61864c0.09616,0.30216 0.14369,0.56991 0.28044,0.88233c0.03117,0.07121 0.08288,0.17144 0.1196,0.24681c0.257,0.53211 0.854,0.77574 1.33415,0.54503c0.47639,-0.2289 0.65853,-0.83848 0.41035,-1.36772c-0.03688,-0.07622 -0.08758,-0.18702 -0.12578,-0.25915c-0.15965,-0.30142 -0.34067,-0.50378 -0.51758,-0.76716c-0.36538,-0.57008 -0.66842,-1.04367 -0.85576,-1.52814c-0.07833,-0.24987 0.01322,-0.40528 0.07424,-0.56766c-0.03654,-0.04178 -0.11474,-0.27774 -0.16084,-0.38872c2.66962,-1.5722 4.63872,-4.08194 5.56344,-6.98052c0.12488,0.01957 0.34191,0.05787 0.41242,0.07198c0.14514,-0.09548 0.27859,-0.22005 0.54026,-0.1995c0.51524,0.07433 1.04409,0.26522 1.68264,0.49361c0.29682,0.11341 0.53591,0.24504 0.86607,0.33319c0.06978,0.01863 0.16974,0.03602 0.24951,0.05348c0.00641,0.00156 0.01209,0.0047 0.01856,0.00616c0.0043,0.00097 0.0103,0.00112 0.01443,0.00206c0.57226,0.12287 1.12796,-0.18947 1.24549,-0.7034c0.1175,-0.51382 -0.24773,-1.03541 -0.81658,-1.17234c-0.08274,-0.01876 -0.20009,-0.05063 -0.28044,-0.06581c-0.33581,-0.06343 -0.60911,-0.04779 -0.92587,-0.07404c-0.67468,-0.07052 -1.23351,-0.12786 -1.73007,-0.28383c-0.20246,-0.07834 -0.34649,-0.31863 -0.41654,-0.41752l-0.38973,-0.11312c0.20207,-1.45809 0.14758,-2.97559 -0.20208,-4.49394c-0.35292,-1.53249 -0.97662,-2.9341 -1.80843,-4.16898c0.09997,-0.09065 0.28877,-0.2574 0.3423,-0.30645c0.01565,-0.17271 0.00221,-0.35379 0.18146,-0.54504c0.37951,-0.35544 0.85804,-0.65018 1.4352,-1.00573c0.27395,-0.16076 0.5272,-0.26438 0.80214,-0.46688c0.06218,-0.04579 0.14708,-0.11831 0.21239,-0.17071c0.46292,-0.36832 0.5695,-1.00358 0.23714,-1.41914c-0.33236,-0.41556 -0.9764,-0.4547 -1.43932,-0.08638c-0.06589,0.05205 -0.1553,0.11995 -0.21445,0.17071c-0.2591,0.22232 -0.41911,0.44191 -0.63718,0.67255c-0.47592,0.48215 -0.86931,0.88441 -1.30116,1.17439c-0.18714,0.10866 -0.46124,0.07106 -0.58563,0.06375l-0.36705,0.26121c-2.093,-2.18905 -4.94266,-3.58861 -8.0111,-3.86048c-0.00859,-0.12825 -0.01983,-0.36008 -0.02269,-0.42985c-0.12561,-0.1199 -0.27736,-0.22225 -0.31549,-0.48128c-0.04198,-0.51756 0.02811,-1.0744 0.10929,-1.74616c0.04481,-0.31385 0.11926,-0.57458 0.13197,-0.91524c0.00289,-0.07744 -0.00175,-0.18981 -0.00206,-0.27354c-0.00006,-0.59063 -0.43208,-1.06955 -0.96504,-1.0695z" fill="#61839e" fill-opacity="1"></path><path d="M997.96807,43.94937c0.13358,-0.0049 0.26913,0.02244 0.39797,0.08432c0.1689,0.08112 0.29936,0.20885 0.38149,0.36199h0.01855l2.45592,4.42607c-0.31873,0.10657 -0.6464,0.19765 -0.98154,0.27354c-1.87826,0.42536 -3.75056,0.29648 -5.44591,-0.27971l2.44973,-4.41785h0.00413c0.14699,-0.27408 0.42577,-0.43759 0.71966,-0.44836zM993.75939,41.91115c0.38349,0.00537 0.72747,0.27085 0.81658,0.66021c0.04171,0.18228 0.02141,0.36289 -0.04743,0.52241l0.01444,0.01851l-1.9301,4.65231c-1.80453,-1.15496 -3.24184,-2.88428 -4.01071,-5.00606l4.98195,-0.84326l0.00824,0.01028c0.05573,-0.01022 0.11225,-0.01516 0.16703,-0.01439zM1002.19942,41.89059c0.06598,-0.00333 0.13168,0.0026 0.19589,0.01439l0.00825,-0.01028l5.02525,0.84737c-0.73545,2.06088 -2.14275,3.84625 -4.02309,5.04103l-1.95071,-4.69961l0.00618,-0.00823c-0.17919,-0.41529 0.00014,-0.9023 0.41242,-1.10035c0.10555,-0.0507 0.21583,-0.07878 0.3258,-0.08432zM997.22439,37.77303h1.55719l0.96782,1.20675l-0.34743,1.50587l-1.39796,0.67042l-1.4021,-0.67248l-0.34743,-1.50587zM1007.74637,37.16218c0.25081,1.08912 0.31376,2.1763 0.21033,3.227l-4.88297,-1.40269l-0.00412,-0.02057c-0.43726,-0.11919 -0.70598,-0.56282 -0.60419,-1.00779c0.04171,-0.18228 0.13872,-0.33649 0.27013,-0.45042l-0.00206,-0.01029l3.76945,-3.3648c0.56313,0.91039 0.98956,1.92721 1.24343,3.02956zM989.46823,34.13056l3.79007,3.38126l-0.00412,0.02056c0.3421,0.29663 0.39254,0.81137 0.10723,1.16822c-0.11688,0.14618 -0.27332,0.24423 -0.44128,0.29l-0.00413,0.01645l-4.85822,1.39858c-0.24727,-2.25517 0.28562,-4.44737 1.41045,-6.27507zM999.20942,29.46591c2.19558,0.26934 4.22608,1.26094 5.78203,2.78069l-4.12413,2.91644l-0.01444,-0.00617c-0.36605,0.26666 -0.8818,0.2005 -1.16712,-0.15631c-0.11689,-0.14617 -0.17821,-0.31804 -0.18559,-0.49156l-0.00412,-0.00205zM996.79062,29.46591l-0.28663,5.04926l-0.02062,0.01028c-0.01922,0.45172 -0.39195,0.81241 -0.84957,0.81241c-0.18745,0 -0.36047,-0.06004 -0.50108,-0.16248l-0.00825,0.00411l-4.15093,-2.93494c1.27575,-1.25123 2.90754,-2.17588 4.78811,-2.60176c0.34352,-0.0778 0.68689,-0.13552 1.02897,-0.17688zM997.99899,22c-0.53296,0.00005 -0.96511,0.47887 -0.96504,1.0695c0,0.00906 0.00186,0.01772 0.00206,0.02673c-0.00079,0.08026 -0.00468,0.17694 -0.00206,0.24681c0.01271,0.34066 0.08716,0.60139 0.13197,0.91524c0.08118,0.67176 0.1492,1.2286 0.10723,1.74616c-0.04083,0.19517 -0.18496,0.37366 -0.31344,0.49773l-0.02268,0.40723c-0.57915,0.04786 -1.16217,0.1355 -1.74451,0.26738c-2.50579,0.56747 -4.66323,1.85487 -6.30579,3.5931c-0.10658,-0.07253 -0.29304,-0.20595 -0.34849,-0.24681c-0.1723,0.02321 -0.34644,0.07623 -0.57325,-0.05553c-0.43187,-0.28996 -0.82522,-0.6902 -1.30116,-1.17234c-0.21809,-0.23063 -0.37601,-0.45024 -0.63512,-0.67255c-0.05884,-0.05048 -0.14864,-0.11876 -0.21445,-0.1707c-0.20257,-0.16109 -0.4415,-0.2451 -0.67224,-0.25298c-0.29666,-0.01013 -0.58225,0.10556 -0.76915,0.33936c-0.33225,0.41565 -0.22588,1.05094 0.23714,1.41914c0.0047,0.00373 0.0097,0.00663 0.01443,0.01028c0.06363,0.05144 0.14154,0.11736 0.20002,0.16043c0.27496,0.20248 0.52612,0.30613 0.80009,0.46687c0.57718,0.35552 1.05566,0.65031 1.43519,1.00574c0.14821,0.15757 0.17411,0.43523 0.19384,0.55532l0.30931,0.2756c-1.65582,2.48542 -2.42214,5.55542 -1.96927,8.68349l-0.40417,0.11723c-0.10652,0.1372 -0.25704,0.35309 -0.41447,0.41752c-0.49656,0.156 -1.0554,0.21328 -1.73008,0.28383c-0.31675,0.02627 -0.59005,0.01059 -0.92586,0.07404c-0.07391,0.01396 -0.17689,0.04072 -0.25776,0.05965c-0.00281,0.00059 -0.00544,0.00142 -0.00825,0.00205c-0.00441,0.00102 -0.0102,0.00315 -0.01443,0.00411c-0.56881,0.13708 -0.93422,0.65855 -0.81658,1.17234c0.11766,0.5139 0.67326,0.82642 1.24549,0.7034c0.00413,-0.00095 0.01012,-0.0011 0.01443,-0.00206c0.00646,-0.00147 0.01215,-0.0046 0.01856,-0.00617c0.07977,-0.01746 0.17973,-0.03689 0.24951,-0.05553c0.33015,-0.08816 0.56926,-0.21771 0.86607,-0.33113c0.63854,-0.22843 1.1674,-0.41926 1.68264,-0.49361c0.21519,-0.01681 0.44192,0.13243 0.55469,0.19539l0.42067,-0.07199c0.96802,2.99346 2.9967,5.41297 5.5655,6.93116l-0.17527,0.41957c0.06318,0.16293 0.13286,0.38336 0.0858,0.54425c-0.18732,0.48448 -0.50816,0.99585 -0.87351,1.56595c-0.1769,0.26339 -0.35794,0.46779 -0.51758,0.76922c-0.0382,0.07213 -0.08685,0.18292 -0.12372,0.25915c-0.24803,0.52931 -0.06609,1.13894 0.41035,1.36772c0.47944,0.23021 1.07455,-0.01259 1.33209,-0.54298c0.0004,-0.00075 0.0017,-0.0013 0.00206,-0.00205c0.00027,-0.00059 -0.00026,-0.00148 0,-0.00205c0.03669,-0.0752 0.08866,-0.17404 0.1196,-0.24475c0.13673,-0.31243 0.18223,-0.58017 0.27838,-0.88234c0.25534,-0.63973 0.39563,-1.31097 0.74713,-1.72923c0.09625,-0.11454 0.25318,-0.15859 0.41587,-0.20203l0.21858,-0.39489c2.23945,0.85736 4.74616,1.08742 7.25022,0.52035c0.57124,-0.12937 1.12271,-0.29679 1.65584,-0.49773c0.06143,0.10868 0.17559,0.3176 0.2062,0.37021c0.16534,0.05365 0.3458,0.08136 0.49283,0.29823c0.26298,0.44813 0.44283,0.97828 0.66193,1.61864c0.09616,0.30216 0.14369,0.56991 0.28044,0.88233c0.03117,0.07121 0.08288,0.17144 0.1196,0.24681c0.257,0.53211 0.854,0.77574 1.33415,0.54503c0.47639,-0.2289 0.65853,-0.83848 0.41035,-1.36772c-0.03688,-0.07622 -0.08758,-0.18702 -0.12578,-0.25915c-0.15965,-0.30142 -0.34067,-0.50378 -0.51758,-0.76716c-0.36538,-0.57008 -0.66842,-1.04367 -0.85576,-1.52814c-0.07833,-0.24987 0.01322,-0.40528 0.07424,-0.56766c-0.03654,-0.04178 -0.11474,-0.27774 -0.16084,-0.38872c2.66962,-1.5722 4.63872,-4.08194 5.56344,-6.98052c0.12488,0.01957 0.34191,0.05787 0.41242,0.07198c0.14514,-0.09548 0.27859,-0.22005 0.54026,-0.1995c0.51524,0.07433 1.04409,0.26522 1.68264,0.49361c0.29682,0.11341 0.53591,0.24504 0.86607,0.33319c0.06978,0.01863 0.16974,0.03602 0.24951,0.05348c0.00641,0.00156 0.01209,0.0047 0.01856,0.00616c0.0043,0.00097 0.0103,0.00112 0.01443,0.00206c0.57226,0.12287 1.12796,-0.18947 1.24549,-0.7034c0.1175,-0.51382 -0.24773,-1.03541 -0.81658,-1.17234c-0.08274,-0.01876 -0.20009,-0.05063 -0.28044,-0.06581c-0.33581,-0.06343 -0.60911,-0.04779 -0.92587,-0.07404c-0.67468,-0.07052 -1.23351,-0.12786 -1.73007,-0.28383c-0.20246,-0.07834 -0.34649,-0.31863 -0.41654,-0.41752l-0.38973,-0.11312c0.20207,-1.45809 0.14758,-2.97559 -0.20208,-4.49394c-0.35292,-1.53249 -0.97662,-2.9341 -1.80843,-4.16898c0.09997,-0.09065 0.28877,-0.2574 0.3423,-0.30645c0.01565,-0.17271 0.00221,-0.35379 0.18146,-0.54504c0.37951,-0.35544 0.85804,-0.65018 1.4352,-1.00573c0.27395,-0.16076 0.5272,-0.26438 0.80214,-0.46688c0.06218,-0.04579 0.14708,-0.11831 0.21239,-0.17071c0.46292,-0.36832 0.5695,-1.00358 0.23714,-1.41914c-0.33236,-0.41556 -0.9764,-0.4547 -1.43932,-0.08638c-0.06589,0.05205 -0.1553,0.11995 -0.21445,0.17071c-0.2591,0.22232 -0.41911,0.44191 -0.63718,0.67255c-0.47592,0.48215 -0.86931,0.88441 -1.30116,1.17439c-0.18714,0.10866 -0.46124,0.07106 -0.58563,0.06375l-0.36705,0.26121c-2.093,-2.18905 -4.94266,-3.58861 -8.0111,-3.86048c-0.00859,-0.12825 -0.01983,-0.36008 -0.02269,-0.42985c-0.12561,-0.1199 -0.27736,-0.22225 -0.31549,-0.48128c-0.04198,-0.51756 0.02811,-1.0744 0.10929,-1.74616c0.04481,-0.31385 0.11926,-0.57458 0.13197,-0.91524c0.00289,-0.07744 -0.00175,-0.18981 -0.00206,-0.27354c-0.00006,-0.59063 -0.43208,-1.06955 -0.96504,-1.0695z" fill-opacity="0" fill="#ffffff" stroke-linejoin="miter" stroke-linecap="butt" stroke-opacity="1" stroke="#ffffff" stroke-miterlimit="20" stroke-width="0.25"></path></g></g><g opacity="-1"><title>Path 2</title><path d="M898,72v0l2,2.5v0l-2,2.5v0" fill-opacity="0" fill="#ffffff" stroke-linejoin="miter" stroke-linecap="butt" stroke-opacity="1" stroke="#61839e" stroke-miterlimit="20" stroke-width="0.75"></path></g><g opacity="-1"><title>Docker</title><g transform="matrix(1,0,0,1,849,56)"><text dominant-baseline="text-before-edge" style="fill: #61839e; fill-opacity: 1; font-size: 14px; font-family: 'Averta-Regular'; line-height: 28px; letter-spacing: -0.06px; font-kerning: normal" ><tspan style="fill: #61839e; fill-opacity: 1; font-size: 14px; font-family: 'Averta-Regular'; line-height: 28px; letter-spacing: -0.06px; font-kerning: normal">Docker </tspan></text></g></g><g opacity="-1"><title>Group 2</title><g><title>Kubernetes</title><g transform="matrix(1,0,0,1,960,56)"><text dominant-baseline="text-before-edge" style="fill: #61839e; fill-opacity: 1; font-size: 14px; font-family: 'Averta-Regular'; line-height: 28px; letter-spacing: -0.06px; font-kerning: normal" ><tspan style="fill: #61839e; fill-opacity: 1; font-size: 14px; font-family: 'Averta-Regular'; line-height: 28px; letter-spacing: -0.06px; font-kerning: normal">Kubernetes</tspan></text></g></g><g><title>Path 2</title><path d="M1035,72v0l2.1875,2.40196v0l-2.1875,2.40196v0" fill-opacity="0" fill="#ffffff" stroke-linejoin="miter" stroke-linecap="butt" stroke-opacity="1" stroke="#61839e" stroke-miterlimit="20" stroke-width="0.75"></path></g></g><g opacity="-1"><title>Group 24</title><g><title>Shape</title><path d="M997.70036,347.87097c-1.81936,0 -3.30036,-1.51194 -3.30036,-3.37097c0,-1.85903 1.48027,-3.37097 3.30036,-3.37097c1.82082,0 3.29964,1.51194 3.29964,3.37097c0,1.85903 -1.47882,3.37097 -3.29964,3.37097zM1006.82098,347.06365l-1.68338,-0.97636c0.23078,-1.04522 0.23078,-2.13277 0,-3.17799l1.68338,-0.97636c0.14647,-0.08393 0.21364,-0.26041 0.16076,-0.42325c-0.40727,-1.23461 -1.05104,-2.35373 -1.91345,-3.32649c-0.11289,-0.1277 -0.29866,-0.15854 -0.44657,-0.07318l-1.68266,0.97564c-0.78596,-0.72168 -1.72411,-1.26546 -2.74085,-1.589v-1.94984c0,-0.17073 -0.11932,-0.31636 -0.28509,-0.35151c-1.25682,-0.26041 -2.5708,-0.26041 -3.82547,0c-0.16577,0.03515 -0.28509,0.18078 -0.28509,0.35151v1.95056c-1.01746,0.32354 -1.95561,0.8666 -2.74157,1.58828l-1.68338,-0.97492c-0.14647,-0.08537 -0.33296,-0.05452 -0.44585,0.07317c-0.86241,0.97205 -1.50547,2.09189 -1.91345,3.3265c-0.05359,0.16284 0.01357,0.33932 0.16076,0.42325l1.68338,0.97636c-0.23007,1.04522 -0.23007,2.13277 0,3.17799l-1.68338,0.97636c-0.14719,0.08393 -0.21364,0.26184 -0.16076,0.42325c0.40727,1.23461 1.05104,2.35373 1.91345,3.32649c0.11289,0.12913 0.29938,0.15998 0.44585,0.07318l1.68338,-0.97564c0.78667,0.72312 1.72482,1.26761 2.74085,1.589v1.95271c0,0.17002 0.11933,0.31564 0.28509,0.3508c0.62805,0.13128 1.27254,0.19584 1.91345,0.19584c0.64092,0 1.28469,-0.06672 1.91345,-0.19584c0.16577,-0.03516 0.28509,-0.18078 0.28509,-0.3508v-1.95271c1.01603,-0.32139 1.95347,-0.86588 2.74085,-1.589l1.68267,0.97564c0.14647,0.0868 0.33367,0.05595 0.44657,-0.07318c0.86241,-0.97205 1.50475,-2.09188 1.91345,-3.32649c0.05216,-0.16141 -0.01501,-0.34004 -0.16148,-0.42397z" fill="#94a3b0" fill-opacity="1"></path></g><g><title>noun_management_2364486</title><g><title>Path</title><path d="M1010.71917,361.4675v-3.91077v0h-11.89v0v-3.20135v0h1.71583v0v-2.62903v0l0.24167,-0.0775c0.37458,-0.1252 0.69479,-0.25039 0.97271,-0.39347l0.22958,-0.11326v0l1.89104,1.86596v0l2.88792,-2.84962v0l-1.885,-1.86v0l0.11479,-0.22058c0.15708,-0.31 0.29,-0.63192 0.39875,-0.9598l0.07854,-0.23846v0h2.67042v0v-4.03v0h-2.67042v0l-0.07854,-0.23847c-0.12688,-0.36961 -0.25375,-0.67961 -0.39875,-0.95384l-0.11479,-0.22654v0l1.89104,-1.86596v0l-2.88792,-2.84962v0l-1.89104,1.86596v0l-0.22958,-0.11327c-0.27792,-0.14307 -0.59209,-0.26826 -0.97271,-0.39346l-0.24771,-0.08942v0v-2.635v0h-4.08417v0v2.635v0l-0.24166,0.0775c-0.37459,0.12519 -0.69479,0.25038 -0.97271,0.39346l-0.22958,0.11327v0l-1.89105,-1.86596v0l-2.88791,2.84961v0l1.885,1.86v0l-0.10875,0.22058c-0.15709,0.32192 -0.29604,0.64981 -0.39875,0.96577l-0.07854,0.23846v0h-2.67042v0v4.03v0h2.67042v0l0.07854,0.23846c0.12687,0.36962 0.25375,0.67962 0.39875,0.95385l0.11479,0.22654v0l-1.89104,1.86596v0l2.88791,2.84962v0l1.89105,-1.86597v0l0.22958,0.11327c0.29604,0.14904 0.61021,0.2802 0.96667,0.39346l0.24166,0.0775v0v2.635v0h1.6675v0v3.20135v0h-11.88396v0v3.91673c-1.00895,0.16692 -1.78833,1.03135 -1.78833,2.07462c0,1.1625 0.96063,2.11038 2.13875,2.11038c1.17813,0 2.13875,-0.94788 2.13875,-2.11038c0,-1.04327 -0.77333,-1.9077 -1.78833,-2.07462v-3.22519v0h11.18312v0v3.22519c-0.99687,0.17885 -1.76416,1.03731 -1.76416,2.07462c0,1.1625 0.96062,2.11038 2.13875,2.11038c1.17812,0 2.13875,-0.94788 2.13875,-2.11038c0,-1.0552 -0.78542,-1.91962 -1.8125,-2.07462v-3.22519v0h11.18916v0v3.23115c-0.99083,0.18481 -1.74,1.04327 -1.74,2.06866c0,1.1625 0.96063,2.11038 2.13875,2.11038c1.17813,0 2.13875,-0.94788 2.13875,-2.11038c0.00604,-1.06116 -0.7975,-1.93154 -1.83062,-2.08058z" fill="#94a3b0" fill-opacity="1"></path><path d="M1010.71917,361.4675v-3.91077v0h-11.89v0v-3.20135v0h1.71583v0v-2.62903v0l0.24167,-0.0775c0.37458,-0.1252 0.69479,-0.25039 0.97271,-0.39347l0.22958,-0.11326v0l1.89104,1.86596v0l2.88792,-2.84962v0l-1.885,-1.86v0l0.11479,-0.22058c0.15708,-0.31 0.29,-0.63192 0.39875,-0.9598l0.07854,-0.23846v0h2.67042v0v-4.03v0h-2.67042v0l-0.07854,-0.23847c-0.12688,-0.36961 -0.25375,-0.67961 -0.39875,-0.95384l-0.11479,-0.22654v0l1.89104,-1.86596v0l-2.88792,-2.84962v0l-1.89104,1.86596v0l-0.22958,-0.11327c-0.27792,-0.14307 -0.59209,-0.26826 -0.97271,-0.39346l-0.24771,-0.08942v0v-2.635v0h-4.08417v0v2.635v0l-0.24166,0.0775c-0.37459,0.12519 -0.69479,0.25038 -0.97271,0.39346l-0.22958,0.11327v0l-1.89105,-1.86596v0l-2.88791,2.84961v0l1.885,1.86v0l-0.10875,0.22058c-0.15709,0.32192 -0.29604,0.64981 -0.39875,0.96577l-0.07854,0.23846v0h-2.67042v0v4.03v0h2.67042v0l0.07854,0.23846c0.12687,0.36962 0.25375,0.67962 0.39875,0.95385l0.11479,0.22654v0l-1.89104,1.86596v0l2.88791,2.84962v0l1.89105,-1.86597v0l0.22958,0.11327c0.29604,0.14904 0.61021,0.2802 0.96667,0.39346l0.24166,0.0775v0v2.635v0h1.6675v0v3.20135v0h-11.88396v0v3.91673c-1.00895,0.16692 -1.78833,1.03135 -1.78833,2.07462c0,1.1625 0.96063,2.11038 2.13875,2.11038c1.17813,0 2.13875,-0.94788 2.13875,-2.11038c0,-1.04327 -0.77333,-1.9077 -1.78833,-2.07462v-3.22519v0h11.18312v0v3.22519c-0.99687,0.17885 -1.76416,1.03731 -1.76416,2.07462c0,1.1625 0.96062,2.11038 2.13875,2.11038c1.17812,0 2.13875,-0.94788 2.13875,-2.11038c0,-1.0552 -0.78542,-1.91962 -1.8125,-2.07462v-3.22519v0h11.18916v0v3.23115c-0.99083,0.18481 -1.74,1.04327 -1.74,2.06866c0,1.1625 0.96063,2.11038 2.13875,2.11038c1.17813,0 2.13875,-0.94788 2.13875,-2.11038c0.00604,-1.06116 -0.7975,-1.93154 -1.83062,-2.08058z" fill-opacity="0" fill="#ffffff" stroke-linejoin="miter" stroke-linecap="butt" stroke-opacity="1" stroke="#94a3b0" stroke-miterlimit="20" stroke-width="0.5"></path></g></g><g><title>Rectangle</title><path d="M986,333v0h27v0v22v0h-27v0z" fill="#ffffff" fill-opacity="1"></path></g><g><title>Shape</title><path d="M997.70036,346.87097c-1.81936,0 -3.30036,-1.51194 -3.30036,-3.37097c0,-1.85903 1.48027,-3.37097 3.30036,-3.37097c1.82082,0 3.29964,1.51194 3.29964,3.37097c0,1.85903 -1.47882,3.37097 -3.29964,3.37097zM1006.82098,346.06365l-1.68338,-0.97636c0.23078,-1.04522 0.23078,-2.13277 0,-3.17799l1.68338,-0.97636c0.14647,-0.08393 0.21364,-0.26041 0.16076,-0.42325c-0.40727,-1.23461 -1.05104,-2.35373 -1.91345,-3.32649c-0.11289,-0.1277 -0.29866,-0.15854 -0.44657,-0.07318l-1.68266,0.97564c-0.78596,-0.72168 -1.72411,-1.26546 -2.74085,-1.589v-1.94984c0,-0.17073 -0.11932,-0.31636 -0.28509,-0.35151c-1.25682,-0.26041 -2.5708,-0.26041 -3.82547,0c-0.16577,0.03515 -0.28509,0.18078 -0.28509,0.35151v1.95056c-1.01746,0.32354 -1.95561,0.8666 -2.74157,1.58828l-1.68338,-0.97492c-0.14647,-0.08537 -0.33296,-0.05452 -0.44585,0.07317c-0.86241,0.97205 -1.50547,2.09189 -1.91345,3.3265c-0.05359,0.16284 0.01357,0.33932 0.16076,0.42325l1.68338,0.97636c-0.23007,1.04522 -0.23007,2.13277 0,3.17799l-1.68338,0.97636c-0.14719,0.08393 -0.21364,0.26184 -0.16076,0.42325c0.40727,1.23461 1.05104,2.35373 1.91345,3.32649c0.11289,0.12913 0.29938,0.15998 0.44585,0.07318l1.68338,-0.97564c0.78667,0.72312 1.72482,1.26761 2.74085,1.589v1.95271c0,0.17002 0.11933,0.31564 0.28509,0.3508c0.62805,0.13128 1.27254,0.19584 1.91345,0.19584c0.64092,0 1.28469,-0.06672 1.91345,-0.19584c0.16577,-0.03516 0.28509,-0.18078 0.28509,-0.3508v-1.95271c1.01603,-0.32139 1.95347,-0.86588 2.74085,-1.589l1.68267,0.97564c0.14647,0.0868 0.33367,0.05595 0.44657,-0.07318c0.86241,-0.97205 1.50475,-2.09188 1.91345,-3.32649c0.05216,-0.16141 -0.01501,-0.34004 -0.16148,-0.42397z" fill="#94a3b0" fill-opacity="1"></path></g></g><g opacity="-1"><title>Group 29</title><g><title>CONTAINER</title><g transform="matrix(1,0,0,1,657,101)"><text dominant-baseline="text-before-edge" style="fill: #ffffff; fill-opacity: 1; font-size: 13px; font-family: 'Averta-Semibold'; line-height: 59px; letter-spacing: 0.61px; font-kerning: normal" ><tspan style="fill: #ffffff; fill-opacity: 1; font-size: 13px; font-family: 'Averta-Semibold'; line-height: 59px; letter-spacing: 0.61px; font-kerning: normal">CONTAINER</tspan></text></g></g></g><g opacity="-1"><title>Rectangle</title><path d="M1000,111v0h-204v0v2v0h204v0z" fill="#61839e" fill-opacity="1"></path></g><g opacity="-1"><title>Group 30</title><g><title>noun_Cloud Docker_676618</title><g><title>Group</title><g><title>Rectangle</title><path d="M662.36,65c0,-1.10457 0.89543,-2 2,-2h16.24615c1.10457,0 2,0.89543 2,2v15.81818c0,1.10457 -0.89543,2 -2,2h-16.24615c-1.10457,0 -2,-0.89543 -2,-2z" fill="#ffffff" fill-opacity="1"></path></g><g><title>Rectangle</title><path d="M688.03,65c0,-1.10457 0.89543,-2 2,-2h16.24615c1.10457,0 2,0.89543 2,2v15.81818c0,1.10457 -0.89543,2 -2,2h-16.24615c-1.10457,0 -2,-0.89543 -2,-2z" fill="#ffffff" fill-opacity="1"></path></g></g></g><g><title>noun_Cloud Docker_676618</title><g><title>Group</title><g><title>Rectangle</title><path d="M662.36,89c0,-1.10457 0.89543,-2 2,-2h16.24615c1.10457,0 2,0.89543 2,2v15.81818c0,1.10457 -0.89543,2 -2,2h-16.24615c-1.10457,0 -2,-0.89543 -2,-2z" fill="#ffffff" fill-opacity="1"></path></g><g><title>Rectangle</title><path d="M688.03,89c0,-1.10457 0.89543,-2 2,-2h16.24615c1.10457,0 2,0.89543 2,2v15.81818c0,1.10457 -0.89543,2 -2,2h-16.24615c-1.10457,0 -2,-0.89543 -2,-2z" fill="#ffffff" fill-opacity="1"></path></g></g></g><g><title>noun_Cloud Docker_676618</title><g><title>Group</title><g><title>Rectangle</title><path d="M714.35,89c0,-1.10457 0.89543,-2 2,-2h15.64912c1.10457,0 2,0.89543 2,2v15.81818c0,1.10457 -0.89543,2 -2,2h-15.64912c-1.10457,0 -2,-0.89543 -2,-2z" fill="#ffffff" fill-opacity="1"></path></g></g></g></g><g opacity="0.8"><title>Combined Shape</title><path d="M691.5007,211c-39.13114,0 -73.28635,-21.30464 -91.49939,-52.9476c8.90589,-15.47291 13.99991,-33.41776 13.99991,-52.5524c0,-19.13464 -5.09402,-37.07949 -13.99991,-52.5524c18.21304,-31.64296 52.36825,-52.9476 91.49939,-52.9476c58.26566,0 105.4993,47.23396 105.4993,105.5c0,58.26604 -47.23364,105.5 -105.4993,105.5z" fill="#396486" fill-opacity="1"></path></g><g opacity="-1"><title>Rectangle</title><path d="M876,90v0h-2v0v23v0h2v0z" fill="#61839e" fill-opacity="1"></path></g><g opacity="-1"><title>Rectangle</title><path d="M1000,90v0h-2v0v23v0h2v0z" fill="#61839e" fill-opacity="1"></path></g><g opacity="-1"><title>Group 26</title><g><title>Consulting</title><g transform="matrix(1,0,0,1,837,368)"><text dominant-baseline="text-before-edge" style="fill: #8999a8; fill-opacity: 1; font-size: 14px; font-family: 'Averta-Regular'; line-height: 28px; letter-spacing: -0.06px; font-kerning: normal" ><tspan style="fill: #8999a8; fill-opacity: 1; font-size: 14px; font-family: 'Averta-Regular'; line-height: 28px; letter-spacing: -0.06px; font-kerning: normal">Consulting </tspan></text></g></g><g><title>Path 2</title><path d="M909,384v0l2.1875,2.40196v0l-2.1875,2.40196v0" fill-opacity="0" fill="#ffffff" stroke-linejoin="miter" stroke-linecap="butt" stroke-opacity="1" stroke="#8999a8" stroke-miterlimit="20" stroke-width="0.75"></path></g></g><g opacity="-1"><title>Group 26</title><g><title>Management</title><g transform="matrix(1,0,0,1,952,368)"><text dominant-baseline="text-before-edge" style="fill: #8999a8; fill-opacity: 1; font-size: 14px; font-family: 'Averta-Regular'; line-height: 28px; letter-spacing: -0.06px; font-kerning: normal" ><tspan style="fill: #8999a8; fill-opacity: 1; font-size: 14px; font-family: 'Averta-Regular'; line-height: 28px; letter-spacing: -0.06px; font-kerning: normal">Management </tspan></text></g></g><g><title>Path 2</title><path d="M1041,384v0l2.1875,2.40196v0l-2.1875,2.40196v0" fill-opacity="0" fill="#ffffff" stroke-linejoin="miter" stroke-linecap="butt" stroke-opacity="1" stroke="#8999a8" stroke-miterlimit="20" stroke-width="0.75"></path></g></g><g opacity="-1"><title>Group 26</title><g><title>Migration</title><g transform="matrix(1,0,0,1,1081,369)"><text dominant-baseline="text-before-edge" style="fill: #8999a8; fill-opacity: 1; font-size: 14px; font-family: 'Averta-Regular'; line-height: 28px; letter-spacing: -0.06px; font-kerning: normal" ><tspan style="fill: #8999a8; fill-opacity: 1; font-size: 14px; font-family: 'Averta-Regular'; line-height: 28px; letter-spacing: -0.06px; font-kerning: normal">Migration</tspan></text></g></g><g><title>Path 2</title><path d="M1146,385v0l2.1875,2.40196v0l-2.1875,2.40196v0" fill-opacity="0" fill="#ffffff" stroke-linejoin="miter" stroke-linecap="butt" stroke-opacity="1" stroke="#8999a8" stroke-miterlimit="20" stroke-width="0.75"></path></g></g><g opacity="-1"><title>noun_service_2613658</title><g><title>Shape</title><path d="M694.49704,307.61032c-5.08337,0 -9.22132,-4.08828 -9.22132,-9.11508c0,-5.02679 4.13593,-9.11507 9.22132,-9.11507c5.08741,0 9.21929,4.08828 9.21929,9.11507c0,5.0268 -4.13188,9.11508 -9.21929,9.11508zM719.49277,305.65123l-4.76957,-2.72352c0.65389,-2.91562 0.65389,-5.94931 0,-8.86493l4.76957,-2.72352c0.41501,-0.23413 0.60531,-0.7264 0.4555,-1.18065c-1.15393,-3.44392 -2.97795,-6.56566 -5.42144,-9.27917c-0.31986,-0.3562 -0.84622,-0.44224 -1.26528,-0.20411l-4.76755,2.72151c-2.22688,-2.01312 -4.88497,-3.52996 -7.76574,-4.43246v-5.43903c0,-0.47627 -0.33808,-0.88249 -0.80775,-0.98055c-3.56099,-0.7264 -7.28393,-0.7264 -10.83885,0c-0.46967,0.09806 -0.80775,0.50428 -0.80775,0.98055v5.44103c-2.8828,0.9025 -5.54088,2.41734 -7.76777,4.43046l-4.76957,-2.71951c-0.41501,-0.23813 -0.94339,-0.15208 -1.26325,0.20411c-2.4435,2.71151 -4.26549,5.83525 -5.42145,9.27917c-0.15183,0.45425 0.03847,0.94653 0.4555,1.18066l4.76958,2.72351c-0.65187,2.91562 -0.65187,5.94931 0,8.86494l-4.76958,2.72351c-0.41703,0.23413 -0.60531,0.73041 -0.4555,1.18066c1.15393,3.44392 2.97795,6.56565 5.42145,9.27916c0.31986,0.3602 0.84824,0.44625 1.26325,0.20412l4.76957,-2.72152c2.22891,2.01713 4.887,3.53597 7.76575,4.43247v5.44703c0,0.47427 0.33808,0.88049 0.80775,0.97855c1.77948,0.3662 3.60552,0.5463 5.42144,0.5463c1.81593,0 3.63994,-0.1861 5.42145,-0.5463c0.46967,-0.09806 0.80775,-0.50428 0.80775,-0.97855v-5.44703c2.87875,-0.8965 5.53481,-2.41534 7.76575,-4.43247l4.76755,2.72152c0.41501,0.24213 0.94541,0.15608 1.26527,-0.20412c2.4435,-2.71151 4.26347,-5.83524 5.42145,-9.27916c0.14778,-0.45025 -0.04252,-0.94853 -0.45753,-1.18266z" fill="#ffffff" fill-opacity="1"></path></g></g><g opacity="-1"><title>Rectangle</title><path d="M1114,305v0h-320v0v-2v0h320v0z" fill="#94a3b0" fill-opacity="1"></path></g><g opacity="0.9"><title>Combined Shape</title><path d="M798,310.76177c0,58.12147 -47.23396,105.23823 -105.5,105.23823c-58.26604,0 -105.5,-47.11676 -105.5,-105.23823c0,-41.69606 24.30923,-77.72848 59.56155,-94.76427c13.88701,6.71094 29.47219,10.47394 45.93845,10.47394c16.46626,0 32.05144,-3.763 45.93845,-10.47395c35.25231,17.0358 59.56155,53.06822 59.56155,94.76428z" fill="#8999a8" fill-opacity="1"></path></g><g opacity="-1"><title>Rectangle</title><path d="M874,326v0h-2v0v-23v0h2v0z" fill="#94a3b0" fill-opacity="1"></path></g><g opacity="-1"><title>Rectangle</title><path d="M999,326v0h-2v0v-23v0h2v0z" fill="#94a3b0" fill-opacity="1"></path></g><g opacity="-1"><title>Rectangle</title><path d="M1116,328v0h-2v0v-23v0h2v0z" fill="#94a3b0" fill-opacity="1"></path></g><g opacity="-1"><title>Group 26</title><g><title>Public Cloud</title><g transform="matrix(1,0,0,1,-1,56)"><text dominant-baseline="text-before-edge" style="fill: #45739e; fill-opacity: 1; font-size: 14px; font-family: 'Averta-Regular'; line-height: 28px; letter-spacing: -0.06px; font-kerning: normal" ><tspan style="fill: #45739e; fill-opacity: 1; font-size: 14px; font-family: 'Averta-Regular'; line-height: 28px; letter-spacing: -0.06px; font-kerning: normal">Public Cloud </tspan></text></g></g><g><title>Path 2</title><path d="M83,72v0l2.1875,2.40196v0l-2.1875,2.40196v0" fill-opacity="0" fill="#ffffff" stroke-linejoin="miter" stroke-linecap="butt" stroke-opacity="1" stroke="#45739e" stroke-miterlimit="20" stroke-width="0.75"></path></g></g><g opacity="-1"><title>Rectangle</title><path d="M42,90v0h2v0v23v0h-2v0z" fill="#45739e" fill-opacity="1"></path></g><g opacity="-1"><title>Group 26</title><g><title>Hybrid Cloud</title><g transform="matrix(1,0,0,1,128,56)"><text dominant-baseline="text-before-edge" style="fill: #45739e; fill-opacity: 1; font-size: 14px; font-family: 'Averta-Regular'; line-height: 28px; letter-spacing: -0.06px; font-kerning: normal" ><tspan style="fill: #45739e; fill-opacity: 1; font-size: 14px; font-family: 'Averta-Regular'; line-height: 28px; letter-spacing: -0.06px; font-kerning: normal">Hybrid Cloud </tspan></text></g></g><g><title>Path 2</title><path d="M217,72v0l2.1875,2.40196v0l-2.1875,2.40196v0" fill-opacity="0" fill="#ffffff" stroke-linejoin="miter" stroke-linecap="butt" stroke-opacity="1" stroke="#45739e" stroke-miterlimit="20" stroke-width="0.75"></path></g></g><g opacity="-1"><title>Rectangle</title><path d="M173,90v0h2v0v23v0h-2v0z" fill="#45739e" fill-opacity="1"></path></g><g opacity="-1"><title>Rectangle</title><path d="M309,90v0h2v0v23v0h-2v0z" fill="#45739e" fill-opacity="1"></path></g><g opacity="-1"><title>Group 26</title><g><title>Object Storage</title><g transform="matrix(1,0,0,1,126,368)"><text dominant-baseline="text-before-edge" style="fill: #0a162f; fill-opacity: 1; font-size: 14px; font-family: 'Averta-Regular'; line-height: 28px; letter-spacing: -0.06px; font-kerning: normal" ><tspan style="fill: #0a162f; fill-opacity: 1; font-size: 14px; font-family: 'Averta-Regular'; line-height: 28px; letter-spacing: -0.06px; font-kerning: normal">Object Storage</tspan></text></g></g><g><title>Path 2</title><path d="M226,384v0l2.1875,2.40196v0l-2.1875,2.40196v0" fill-opacity="0" fill="#ffffff" stroke-linejoin="miter" stroke-linecap="butt" stroke-opacity="1" stroke="#0a162f" stroke-miterlimit="20" stroke-width="0.75"></path></g></g><g opacity="-1"><title>Group 26</title><g><title>Backup Storage</title><g transform="matrix(1,0,0,1,258,368)"><text dominant-baseline="text-before-edge" style="fill: #0a162f; fill-opacity: 1; font-size: 14px; font-family: 'Averta-Regular'; line-height: 28px; letter-spacing: -0.06px; font-kerning: normal" ><tspan style="fill: #0a162f; fill-opacity: 1; font-size: 14px; font-family: 'Averta-Regular'; line-height: 28px; letter-spacing: -0.06px; font-kerning: normal">Backup Storage</tspan></text></g></g><g><title>Path 2</title><path d="M363,384v0l2.1875,2.40196v0l-2.1875,2.40196v0" fill-opacity="0" fill="#ffffff" stroke-linejoin="miter" stroke-linecap="butt" stroke-opacity="1" stroke="#0a162f" stroke-miterlimit="20" stroke-width="0.75"></path></g></g><g opacity="-1"><title>Rectangle</title><path d="M175,326v0h2v0v-23v0h-2v0z" fill="#0a162f" fill-opacity="1"></path></g><g opacity="-1"><title>Rectangle</title><path d="M311,326v0h2v0v-23v0h-2v0z" fill="#0a162f" fill-opacity="1"></path></g><g opacity="-1"><title>Group 20</title><g><title>STORAGE</title><g transform="matrix(1,0,0,1,459,314)"><text dominant-baseline="text-before-edge" style="fill: #ffffff; fill-opacity: 1; font-size: 13px; font-family: 'Averta-Semibold'; line-height: 59px; letter-spacing: 0.61px; font-kerning: normal" ><tspan style="fill: #ffffff; fill-opacity: 1; font-size: 13px; font-family: 'Averta-Semibold'; line-height: 59px; letter-spacing: 0.61px; font-kerning: normal">STORAGE</tspan></text></g></g><g><title>Group 12</title><g><title>Shape</title><path d="M491.55294,285.40381c-1.57236,0 -2.92009,-1.34252 -2.92009,-2.9088c0,-1.56627 1.34773,-2.90879 2.92009,-2.90879c1.57235,0 2.92008,1.34252 2.92008,2.90879c0,1.56628 -1.23542,2.9088 -2.92008,2.9088zM481.47734,285.40381c-1.57236,0 -2.92009,-1.34252 -2.92009,-2.9088c0,-1.56627 1.34773,-2.90879 2.92009,-2.90879c1.57235,0 2.92008,1.34252 2.92008,2.90879c0,1.56628 -1.23542,2.9088 -2.92008,2.9088zM471.40173,285.40381c-1.57236,0 -2.92009,-1.34252 -2.92009,-2.9088c0,-1.56627 1.34773,-2.90879 2.92009,-2.90879c1.57235,0 2.92008,1.34252 2.92008,2.90879c0,1.56628 -1.23542,2.9088 -2.92008,2.9088zM514.52916,276h-47.17063c-1.34773,0 -2.35853,1.00862 -2.35853,2.35345v8.2931c0,1.34483 1.0108,2.35345 2.35853,2.35345h47.28294c1.34773,0 2.35853,-1.00862 2.35853,-2.35345v-8.2931c0,-1.34483 -1.12311,-2.35345 -2.47084,-2.35345z" fill="#ffffff" fill-opacity="1"></path></g><g><title>Shape</title><path d="M491.66525,296.59828c1.57235,0 2.92008,1.34483 2.92008,2.91379c0,1.56897 -1.34773,2.9138 -2.92008,2.9138c-1.57236,0 -2.92009,-1.34483 -2.92009,-2.9138c0.11231,-1.68103 1.34773,-2.91379 2.92009,-2.91379zM481.58965,296.59828c1.57235,0 2.92008,1.34483 2.92008,2.91379c0,1.56897 -1.34773,2.9138 -2.92008,2.9138c-1.57236,0 -2.92009,-1.34483 -2.92009,-2.9138c0.11231,-1.68103 1.34773,-2.91379 2.92009,-2.91379zM471.51404,296.59828c1.57235,0 2.92008,1.34483 2.92008,2.91379c0,1.56897 -1.34773,2.9138 -2.92008,2.9138c-1.57236,0 -2.92009,-1.34483 -2.92009,-2.9138c0.11231,-1.68103 1.34773,-2.91379 2.92009,-2.91379zM465,303.54655c0,1.34483 1.0108,2.35345 2.35853,2.35345h47.28294c1.34773,0 2.35853,-1.00862 2.35853,-2.35345v-8.2931c0,-1.34483 -1.0108,-2.35345 -2.35853,-2.35345h-47.17063c-1.34773,0 -2.35853,1.00862 -2.35853,2.35345v8.2931z" fill="#ffffff" fill-opacity="1"></path></g><g><title>Shape</title><path d="M491.66525,313.38622c1.57235,0 2.92008,1.34252 2.92008,2.90879c0,1.56628 -1.34773,2.9088 -2.92008,2.9088c-1.57236,0 -2.92009,-1.34252 -2.92009,-2.9088c0.11231,-1.56627 1.34773,-2.90879 2.92009,-2.90879zM481.58965,313.38622c1.57235,0 2.92008,1.34252 2.92008,2.90879c0,1.56628 -1.34773,2.9088 -2.92008,2.9088c-1.57236,0 -2.92009,-1.34252 -2.92009,-2.9088c0.11231,-1.56627 1.34773,-2.90879 2.92009,-2.90879zM471.51404,313.38622c1.57235,0 2.92008,1.34252 2.92008,2.90879c0,1.56628 -1.34773,2.9088 -2.92008,2.9088c-1.57236,0 -2.92009,-1.34252 -2.92009,-2.9088c0.11231,-1.56627 1.34773,-2.90879 2.92009,-2.90879zM465,320.44655c0,1.34483 1.0108,2.35345 2.35853,2.35345h47.28294c1.34773,0 2.35853,-1.00862 2.35853,-2.35345v-8.2931c0,-1.34483 -1.0108,-2.35345 -2.35853,-2.35345h-47.17063c-1.34773,0 -2.35853,1.00862 -2.35853,2.35345v8.2931z" fill="#ffffff" fill-opacity="1"></path></g><g><title>Rectangle</title><path d="M498.8,282.5v0h11.7v0v1.3v0h-11.7v0z" fill="#0a162f" fill-opacity="1"></path></g><g><title>Rectangle</title><path d="M498.8,299.4v0h11.7v0v1.3v0h-11.7v0z" fill="#0a162f" fill-opacity="1"></path></g><g><title>Rectangle</title><path d="M500.1,316.3v0h11.7v0v1.3v0h-11.7v0z" fill="#0a162f" fill-opacity="1"></path></g></g></g><g opacity="-1"><title>Group 26</title><g><title>Private Cloud</title><g transform="matrix(1,0,0,1,263,56)"><text dominant-baseline="text-before-edge" style="fill: #45739e; fill-opacity: 1; font-size: 14px; font-family: 'Averta-Regular'; line-height: 28px; letter-spacing: -0.06px; font-kerning: normal" ><tspan style="fill: #45739e; fill-opacity: 1; font-size: 14px; font-family: 'Averta-Regular'; line-height: 28px; letter-spacing: -0.06px; font-kerning: normal">Private Cloud</tspan></text></g></g><g><title>Path 2</title><path d="M353,72v0l2.1875,2.40196v0l-2.1875,2.40196v0" fill-opacity="0" fill="#ffffff" stroke-linejoin="miter" stroke-linecap="butt" stroke-opacity="1" stroke="#45739e" stroke-miterlimit="20" stroke-width="0.75"></path></g></g><g opacity="0.9"><title>Combined Shape</title><path d="M599,105.23572c0,-58.12147 -47.23396,-105.23823 -105.5,-105.23823c-58.26604,0 -105.5,47.11676 -105.5,105.23823c0,41.69606 24.30923,77.72848 59.56155,94.76427c13.88701,-6.71094 29.47219,-10.47394 45.93845,-10.47394c16.46626,0 32.05144,3.763 45.93845,10.47395c35.25231,-17.0358 59.56155,-53.06822 59.56155,-94.76428z" fill="#45739e" fill-opacity="1"></path></g><g opacity="-1"><title>Group 27</title><g><title>noun_Cloud_677946</title><g><title>Group</title><g><title>Path</title><path d="M1115.71951,336.14c4.48675,0 7.77066,3.46515 8.09909,7.25806c2.99382,0.85563 5.1814,3.51993 5.1814,6.6774c0,3.84817 -3.24322,6.96779 -7.2439,6.96779h-18.91464c-4.09232,0 -6.84146,-2.5821 -6.84146,-5.8065c0,-2.69636 1.97429,-5.34569 4.82927,-5.80644c0,-4.64515 4.42683,-6.58064 7.64634,-5.03225c1.20732,-2.32258 3.80401,-4.25806 7.2439,-4.25806z" fill="#94a3b0" fill-opacity="1"></path></g></g></g><g><title>Group 23</title><g><title>Shape</title><path d="M1112.88557,362.53839c0.92839,0 1.72415,0.76958 1.72415,1.66742c0,0.89784 -0.79576,1.66742 -1.72415,1.66742c-0.92838,0 -1.72414,-0.76958 -1.72414,-1.66742c0.06632,-0.89784 0.79576,-1.66742 1.72414,-1.66742zM1106.90203,362.53839c0.92839,0 1.72415,0.76958 1.72415,1.66742c0,0.89784 -0.79576,1.66742 -1.72415,1.66742c-0.92838,0 -1.72414,-0.76958 -1.72414,-1.66742c0.06632,-0.89784 0.79576,-1.66742 1.72414,-1.66742zM1100.92344,362.53839c0.93108,0 1.72914,0.76958 1.72914,1.66742c0,0.89784 -0.79806,1.66742 -1.72914,1.66742c-0.93107,0 -1.72913,-0.76958 -1.72913,-1.66742c0.06651,-0.89784 0.79806,-1.66742 1.72913,-1.66742zM1097.06,366.5826c0,0.77086 0.60008,1.349 1.4002,1.349h28.07057c0.80011,0 1.4002,-0.57814 1.4002,-1.349v-4.7536c0,-0.77086 -0.60009,-1.349 -1.4002,-1.349h-28.0039c-0.80011,0 -1.40019,0.57814 -1.40019,1.349v4.7536z" fill="#94a3b0" fill-opacity="1"></path></g><g><title>Rectangle</title><path d="M1118.35,363.68v0h6.3871v0v1.06452v0h-6.3871v0z" fill="#ffffff" fill-opacity="1"></path></g></g></g><g opacity="-1"><title>noun_Cloud_677946</title><g><title>Group</title><g><title>Path</title><path d="M315.07317,21.22c7.07003,0 12.24467,5.53375 12.7622,11.59091c4.71754,1.3664 8.16463,5.62122 8.16463,10.6636c0,6.14541 -5.11052,11.12734 -11.41463,11.12734h-29.80488c-6.44851,0 -10.78049,-4.12352 -10.78049,-9.27279c0,-4.30601 3.111,-8.53691 7.60976,-9.27272c0,-7.41816 6.97561,-10.50908 12.04878,-8.03634c1.90244,-3.7091 5.9942,-6.8 11.41463,-6.8z" fill="#45739e" fill-opacity="1"></path></g></g></g><g opacity="-1"><title>Rectangle</title><path d="M41,111v0h348v0v2v0h-348v0z" fill="#45739e" fill-opacity="1"></path></g><g opacity="-1"><title>Group 28</title><g><title>CLOUD</title><g transform="matrix(1,0,0,1,469,100)"><text dominant-baseline="text-before-edge" style="fill: #ffffff; fill-opacity: 1; font-size: 13px; font-family: 'Averta-Semibold'; line-height: 59px; letter-spacing: 0.61px; font-kerning: normal" ><tspan style="fill: #ffffff; fill-opacity: 1; font-size: 13px; font-family: 'Averta-Semibold'; line-height: 59px; letter-spacing: 0.61px; font-kerning: normal">CLOUD</tspan></text></g></g><g><title>noun_Cloud_677946</title><g><title>Group</title><g><title>Path</title><path d="M502,55c11.1489,0 19.3089,8.95165 20.125,18.75c7.4392,2.21036 12.875,9.09315 12.875,17.24995c0,9.9411 -8.0589,18.0001 -18,18.0001h-47c-10.1688,0 -17,-6.6704 -17,-15.0001c0,-6.9656 4.9058,-13.8097 12,-14.99999c0,-11.99996 11,-16.99998 19,-12.99996c3,-6.00002 9.4524,-11 18,-11z" fill="#ffffff" fill-opacity="1"></path></g></g></g></g></g></svg>