<?xml version="1.0" encoding="UTF-8"?>
<svg width="68px" height="67px" viewBox="0 0 68 67" version="1.1" xmlns="http://www.w3.org/2000/svg" xmlns:xlink="http://www.w3.org/1999/xlink">
    <!-- Generator: Sketch 64 (93537) - https://sketch.com -->
    <title>Kubernetes_logo_without_workmark</title>
    <desc>Created with Sketch.</desc>
    <g id="Final-Designs" stroke="none" stroke-width="1" fill="none" fill-rule="evenodd">
        <g id="Startseite_v1_final" transform="translate(-792.000000, -1488.000000)" fill="#FFFFFF" fill-rule="nonzero" stroke="#FFFFFF" stroke-width="0.25">
            <g id="Group-18" transform="translate(300.000000, 1136.000000)">
                <g id="Kubernetes_logo_without_workmark" transform="translate(493.000000, 353.000000)">
                    <path d="M32.9980438,0 C31.9634616,0 31.1245967,0.939569606 31.1247197,2.09843251 C31.1247209,2.11621818 31.1283318,2.13321355 31.1287161,2.15089332 C31.1271918,2.30835454 31.1196473,2.49805283 31.1247197,2.63514698 C31.1493925,3.30354616 31.2939145,3.81511043 31.3809007,4.43092096 C31.538488,5.74895094 31.6705352,6.84151758 31.5890479,7.85701558 C31.5097995,8.23995046 31.2300255,8.59016399 30.9806178,8.83359379 L30.9365867,9.63261232 C29.8123591,9.72651491 28.6806113,9.89846629 27.5501931,10.1572204 C22.686005,11.2706397 18.4980247,13.7966217 15.3095413,17.2071466 C15.1026469,17.0648496 14.7406874,16.8030673 14.6330568,16.7228929 C14.2985906,16.7684283 13.9605546,16.8724679 13.5202702,16.6139359 C12.6819292,16.0450179 11.9183867,15.2597134 10.994485,14.313731 C10.5711483,13.8612198 10.2645841,13.4303219 9.76161358,12.9941398 C9.64739269,12.8950847 9.4730794,12.7611105 9.34531934,12.6591977 C8.95209677,12.3431324 8.48830399,12.1782989 8.04039701,12.1628377 C7.46451605,12.1429587 6.91013381,12.3699497 6.5473417,12.8286865 C5.90237895,13.6442187 6.10887242,14.8907095 7.00766706,15.613145 C7.01678711,15.6204669 7.02649893,15.6261591 7.03568687,15.6333222 C7.15919432,15.7342562 7.31043594,15.8635855 7.4239613,15.9480871 C7.95769792,16.3453752 8.44525276,16.5487489 8.97705905,16.8641336 C10.097467,17.5616926 11.0262988,18.1400916 11.7630282,18.8374672 C12.0507221,19.1466367 12.1010053,19.6914221 12.1392942,19.927038 L12.7397185,20.4677879 C9.52548893,25.3443746 8.03791718,31.3679451 8.91702302,37.5054457 L8.13246849,37.7354662 C7.92569193,38.0046609 7.63350333,38.4282382 7.3278934,38.554662 C6.36399547,38.8607374 5.27918263,38.9731333 3.96951967,39.1115537 C3.35464539,39.1630976 2.82411104,39.1323378 2.17224934,39.2568298 C2.02877769,39.2842295 1.82887447,39.3367342 1.67189568,39.3738577 C1.66643902,39.3750199 1.66134102,39.376647 1.65588436,39.3778867 C1.64732792,39.3798883 1.63608669,39.3840723 1.62786456,39.3859576 C0.523706207,39.6549173 -0.185607944,40.6780755 0.0427441778,41.6861625 C0.271150098,42.6944858 1.34966985,43.3076723 2.46045304,43.0662854 C2.46847151,43.0644388 2.48011494,43.0641289 2.48847285,43.0622564 C2.50101291,43.0593638 2.51205303,43.0532299 2.52449831,43.0501565 C2.67934055,43.0158894 2.87338747,42.9777638 3.00884065,42.9411995 C3.64972115,42.7682073 4.11387001,42.5140283 4.69002893,42.2914925 C5.92955336,41.843297 6.95617211,41.4688785 7.95633759,41.3229852 C8.37406389,41.2900017 8.814174,41.582824 9.03309866,41.7063526 L9.84967583,41.565112 C11.728787,47.4385045 15.6667999,52.1857658 20.653312,55.1645688 L20.3130715,55.9878001 C20.4357079,56.3074617 20.5709702,56.7399687 20.4796173,57.055653 C20.1160093,58.0062364 19.493196,59.0095803 18.7839907,60.1281688 C18.4405992,60.644954 18.0891597,61.0460051 17.7792806,61.637426 C17.7051289,61.778943 17.6106904,61.9963316 17.5391108,62.1458924 C17.057639,63.184437 17.4108102,64.3805874 18.3356738,64.8294647 C19.2663476,65.2811611 20.4215603,64.8047562 20.9215015,63.7641067 C20.9222701,63.7626346 20.9247934,63.7615498 20.9254979,63.7600777 C20.9260103,63.7589155 20.9249856,63.7571722 20.9254979,63.7560487 C20.9967073,63.6085063 21.0975914,63.4145698 21.157662,63.2758305 C21.4230823,62.6628274 21.5113981,62.1375038 21.698044,61.5446237 C22.1937057,60.2894201 22.4660326,58.9723935 23.1483593,58.1517347 C23.3352024,57.9270113 23.6398184,57.8405855 23.9556397,57.7553388 L24.3799396,56.980533 C28.7271069,58.6627398 33.593064,59.1141494 38.4538872,58.0015011 C39.5627631,57.7476786 40.6332759,57.4191764 41.6681591,57.0249229 C41.7874088,57.2381662 42.0090247,57.6480863 42.068442,57.7513034 C42.3893844,57.8565711 42.7396928,57.9109315 43.0251182,58.3364432 C43.5356089,59.2157161 43.884721,60.2559162 44.3100264,61.5123401 C44.496703,62.1052099 44.5889589,62.6305567 44.8544112,63.2435469 C44.9149134,63.3832638 45.0152929,63.5799237 45.0865753,63.7278006 C45.5854648,64.7718308 46.7443383,65.2498641 47.6764058,64.7971941 C48.6011554,64.3480779 48.954716,63.1520359 48.4729688,62.1136217 C48.4013803,61.9640661 48.3029542,61.7466685 48.2287962,61.6051554 C47.9188863,61.0137512 47.5675032,60.6166994 47.2240861,60.0999336 C46.5148219,58.9813826 45.9265699,58.0521605 45.5629119,57.1015964 C45.4108544,56.6113289 45.5885659,56.3064209 45.7070138,55.987813 C45.6360798,55.9058424 45.4842887,55.4428546 45.3947931,55.2251135 C50.5770032,52.1403324 54.3993733,47.2160371 56.1944264,41.5288059 C56.4368249,41.567213 56.8581326,41.6423614 56.9949923,41.6700465 C57.2767325,41.4827114 57.5357828,41.2382834 58.0437335,41.2786081 C59.0439054,41.4244486 60.0704947,41.7989845 61.3100422,42.2471155 C61.8862126,42.4696216 62.3503423,42.7278993 62.9912305,42.9008579 C63.1266849,42.9374145 63.320728,42.9715202 63.4755728,43.0057795 C63.4880232,43.0088529 63.4990518,43.0149997 63.5115983,43.0178794 C63.5199626,43.0197648 63.5315996,43.0200618 63.5396181,43.0219084 C64.6504653,43.2629957 65.7291772,42.6501682 65.9573269,41.6417855 C66.1854229,40.6336391 65.4764366,39.6102432 64.3722066,39.3415806 C64.21159,39.3047605 63.983804,39.2422273 63.8278218,39.2124463 C63.1759537,39.0879892 62.6454283,39.1186819 62.0305515,39.0671702 C60.7208821,38.9288183 59.636091,38.8163023 58.6721777,38.5102785 C58.2791626,38.3565725 57.9995705,37.8851083 57.8635998,37.6910827 L57.1070651,37.4691331 C57.4993116,34.6082374 57.393546,31.630798 56.7147878,28.6516811 C56.0297097,25.6448262 54.8190005,22.8947652 53.2043066,20.4718298 C53.3983701,20.2939744 53.7648551,19.9667971 53.8687762,19.8705482 C53.8991542,19.5316778 53.8730544,19.1763828 54.2210252,18.8011547 C54.9577174,18.1037403 55.8866236,17.5254394 57.0069943,16.827821 C57.538784,16.5124079 58.0303788,16.3090911 58.5640949,15.9117745 C58.6847882,15.821928 58.8495959,15.679644 58.9763863,15.5768324 C59.8749901,14.8541542 60.0818819,13.6077382 59.4367117,12.7923739 C58.7915414,11.9770095 57.5413407,11.9002069 56.6427369,12.6228851 C56.5148308,12.725011 56.341272,12.858235 56.2264426,12.9578272 C55.7234952,13.3940377 55.412882,13.8248853 54.9895684,14.2774184 C54.0657167,15.2234499 53.3020947,16.0126956 52.4637832,16.5816587 C52.1005171,16.7948672 51.5684354,16.7210954 51.3269732,16.7067576 L50.6144696,17.2192594 C46.5515915,12.9241787 41.0198916,10.1781518 35.0635036,9.64471866 C35.0468442,9.39307205 35.0250188,8.93820291 35.0194725,8.80131021 C34.7756253,8.5660727 34.4810542,8.36524173 34.4070396,7.85701558 C34.3255523,6.84151758 34.4616024,5.74895094 34.6191896,4.43092096 C34.7061759,3.81511043 34.8506979,3.30354616 34.8753707,2.63514698 C34.880981,2.48320368 34.8719763,2.26272234 34.8713742,2.09843251 C34.8712513,0.939569606 34.0326323,0 32.9980502,0 L32.9980438,0 Z M31.2631579,13.9285714 L30.6926249,23.9094946 L30.6515793,23.9298224 C30.6133131,24.8227275 29.8713909,25.5357143 28.960503,25.5357143 C28.5873747,25.5357143 28.2429691,25.4170276 27.9630963,25.2145359 L27.9466781,25.222667 L19.6842105,19.4211283 C22.223603,16.9478239 25.4716858,15.1200518 29.2149854,14.2782087 C29.8987699,14.1244294 30.5822498,14.0103247 31.2631579,13.9285714 Z M34.7368421,13.9285714 C39.1336667,14.4626029 43.1998812,16.4287212 46.3157895,19.4420283 L38.0569112,25.2246333 L38.0280051,25.2124058 C37.2949537,25.7411352 36.262134,25.6099476 35.6907425,24.9024777 C35.4566767,24.6126513 35.3338639,24.2718701 35.319093,23.9278356 L35.3108341,23.9237641 L34.7368421,13.9285714 Z M16.9623982,24.375 L24.8716865,31.2548286 L24.8630801,31.2966767 C25.5769809,31.9002228 25.6822558,32.9475597 25.0868467,33.6736492 C24.842948,33.9710787 24.5164718,34.170569 24.1659611,34.2637074 L24.1573547,34.2971859 L14.0190069,37.1428571 C13.502997,32.5542732 14.6150592,28.0938048 16.9623982,24.375 Z M48.978855,24.375 C50.1515158,26.232853 51.0395137,28.3078882 51.568153,30.5574634 C52.0904523,32.7800651 52.2215307,34.9986926 52.0061437,37.1428571 L41.8378889,34.2803724 L41.8293008,34.2384005 C40.9187611,33.9951595 40.3591731,33.0898313 40.571151,32.1817766 C40.6579975,31.8097885 40.8600147,31.4950972 41.1336685,31.2625916 L41.1293813,31.2416056 L48.9788619,24.375 L48.978855,24.375 Z M32.0332607,31.3392857 L35.1287449,31.3392857 L37.0526316,33.8234974 L36.3620056,36.9234538 L33.5830582,38.3035714 L30.7958891,36.9192073 L30.1052632,33.8192509 L32.0332607,31.3392857 Z M40.9172232,39.4660898 C41.0437828,39.4595439 41.1697905,39.4712229 41.2929582,39.4944449 L41.3087786,39.4741913 L50.9473684,41.1430917 C49.5367566,45.2019999 46.8375009,48.7183024 43.2309594,51.0714286 L39.4894305,41.8155127 L39.5012895,41.7993098 C39.1575928,40.9813878 39.5015426,40.0222309 40.2923104,39.6321697 C40.4947674,39.5323066 40.7062852,39.4770093 40.9172169,39.4660898 L40.9172232,39.4660898 Z M25.0128231,39.4644328 C25.7534682,39.4750691 26.4177949,40.0015031 26.5898866,40.7735844 C26.6704525,41.1350349 26.6312407,41.4931692 26.4982895,41.8094864 L26.5261668,41.8461916 L22.7985622,51.0714286 C19.3134545,48.7812076 16.5375538,45.3520714 15.0526316,41.1447212 L24.674312,39.472596 L24.6902419,39.4929878 C24.7978658,39.4727056 24.9070165,39.4629189 25.0128231,39.4644393 L25.0128231,39.4644328 Z M32.9203181,42.9475063 C33.1850352,42.9380296 33.4536424,42.9909386 33.7089644,43.1107053 C34.043646,43.2676985 34.3021873,43.5148898 34.4649207,43.8112667 L34.501697,43.8112667 L39.3684211,52.377223 C38.7368123,52.5834721 38.0874842,52.7597398 37.4233659,52.9066246 C33.7013437,53.7298353 29.9911475,53.4804061 26.6315789,52.3652816 L31.4860443,43.8152472 L31.4942168,43.8152472 C31.7855069,43.2848063 32.3379418,42.9683486 32.9203181,42.9475063 Z" id="path3059"></path>
                </g>
            </g>
        </g>
    </g>
</svg>