<?xml version="1.0" encoding="UTF-8"?>
<!-- Generator: Adobe Illustrator 19.1.1, SVG Export Plug-In . SVG Version: 6.00 Build 0)  -->
<svg version="1.1" id="Layer_1" xmlns="http://www.w3.org/2000/svg" xmlns:xlink="http://www.w3.org/1999/xlink" x="0px" y="0px" viewBox="0 0 143 82.5" style="enable-background:new 0 0 143 82.5;" xml:space="preserve">
<style type="text/css">
	.st0{fill:#242F36;stroke:#242F36;stroke-width:0.9111;stroke-miterlimit:10;}
	.st1{clip-path:url(#SVGID_2_);}
	.st2{fill:#0096C8;}
	.st3{fill:#46BEE6;}
	.st4{fill:#28BEA0;}
	.st5{fill:#82C878;}
</style>
<g>
	<path class="st0" d="M6.4,44.3v-1.9h2.4V24.6H3.6l-0.1,2.7H1.6v-4.6h16.7v4.6h-1.9l-0.1-2.7h-5.3v17.7h2.3v1.9H6.4z"/>
	<path class="st0" d="M18.7,44.3v-1.9h2V32.1c0-0.7-0.1-1.3-1-1.3c-0.2,0-0.7,0-1,0.1L18.5,29c0.5-0.1,1.6-0.2,2-0.2   c1.9,0,2.3,0.8,2.3,2.4c0.4-1.8,2.2-2.6,4.1-2.6c0.9,0,1.6,0.2,1.8,0.3l-0.4,2.2c-0.6-0.2-1.3-0.3-2.1-0.3c-1.3,0-2.2,0.5-2.7,1   c-0.2,0.2-0.4,0.5-0.5,0.8c-0.1,0.2-0.2,0.7-0.2,1.1v8.7h2.8v1.9H18.7z"/>
	<path class="st0" d="M37.5,44.6c-2.8,0-3.7-0.8-4.2-2c-0.2-0.7-0.3-2-0.3-3.1V31h-2.1v-1.9h4.3v10.3c0,0.9,0.1,1.8,0.3,2.2   c0.3,0.8,1.2,1.1,2.9,1.1c2,0,3.3-0.8,3.7-1.1c0.2-0.2,0.5-0.5,0.6-0.8c0.1-0.3,0.1-0.6,0.1-1.1V31h-2.1v-1.9h4.3v12   c0,1,0.2,1.5,1.1,1.5c0.3,0,0.9-0.1,1.2-0.1l0.2,1.8c-0.5,0.1-1.4,0.2-2.1,0.2c-2,0-2.4-1.2-2.4-2.3C42.3,44,39.7,44.6,37.5,44.6z"/>
	<path class="st0" d="M53.6,37.3c-2.3-0.4-3.4-1.7-3.4-4.1c0-3.2,2-4.6,6-4.6c2.4,0,4.3,0.5,4.9,2.1c0.3,0.6,0.4,1.5,0.4,2.4l-2,0.1   c0-0.5-0.1-1-0.3-1.6c-0.3-0.7-1.1-1.1-3-1.1c-3.1,0-3.8,1-3.8,2.6c0,1.6,0.6,2,2.8,2.4l2.9,0.5c2.7,0.5,3.8,1.6,3.8,4.1   c0,2.9-1.7,4.5-6.2,4.5c-3.1,0-5-0.7-5.7-2.7c-0.2-0.6-0.3-1.3-0.3-1.9l2-0.1c0,0.5,0.2,1.1,0.4,1.5c0.4,0.8,1.4,1.3,3.7,1.3   c3.2,0,3.9-1.1,3.9-2.6c0-1-0.2-1.7-2.7-2.3L53.6,37.3z"/>
	<path class="st0" d="M70.1,44.6c-1.4,0-2.5-0.5-2.9-1.1c-0.5-0.8-0.7-1.7-0.7-3.3V31h-2.2v-1.9h2.2l0.1-4.2h2v4.2h3.6V31h-3.6v8.8   c0,1.1,0.1,1.9,0.4,2.3c0.2,0.3,0.8,0.6,1.6,0.6c0.8,0,1.6-0.1,2.1-0.3l0.3,1.8C72.4,44.4,71.4,44.6,70.1,44.6z"/>
	<path class="st0" d="M81.9,42.7c2.6,0,4.1-0.6,5-1.2l0.7,1.7c-1.6,1-3.4,1.4-6,1.4c-5.4,0-6.8-2.6-6.8-7.9c0-6,2.2-8,6.9-8   c4.9,0,5.9,2.2,5.9,6.1c0,0.7,0,1.7-0.1,2.4H76.9C77,41.3,78.2,42.7,81.9,42.7z M85.4,35.3c0-0.2,0-0.7,0-0.9c0-2.4-0.6-3.9-4-3.9   c-3.4,0-4.5,1.7-4.6,4.9H85.4z"/>
	<path class="st0" d="M96.9,44.6c-4.3,0-6.4-2-6.4-7.6c0-6.5,2.4-8.3,7.1-8.3c2,0,3.4,0.6,3.9,1.6v-7h-2.1v-1.9h4.3v19.5   c0,1,0.2,1.7,1.1,1.7c0.3,0,0.8,0,1.1-0.1l0.2,1.8c-0.5,0.1-1.2,0.2-1.7,0.2c-2,0-2.5-0.8-2.6-2.1C100.9,44.1,99,44.6,96.9,44.6z    M101.5,34c0-0.4,0-1-0.1-1.4c-0.4-1.3-1.4-2-3.7-2c-3.9,0-5,1.8-5,6.2c0,4.1,1.4,5.9,4.6,5.9c2.7,0,3.8-1.1,4.1-2.3   c0.1-0.5,0.1-1,0.1-1.7V34z"/>
	<path class="st0" d="M37,73.6c-6,0-8.7-2.6-8.7-10.8c0-8,1.9-11.5,9.5-11.5c3.6,0,5.3,0.8,6,2.5c0.3,0.8,0.4,2.1,0.4,2.9H42   c0-0.7-0.1-1.5-0.3-1.9c-0.4-0.7-1.2-1.5-4.4-1.5c-6.1,0-6.7,3.8-6.7,9.1c0,5.3,0.6,9.2,6.6,9.2c3.1,0,4.8-0.6,6.2-1.5l0.9,1.8   C42.4,73.1,40,73.6,37,73.6z"/>
	<path class="st0" d="M47,73.3v-1.9h2V52.3H47v-1.9h4.3v21h2.1v1.9H47z"/>
	<path class="st0" d="M62.4,73.6c-4.6,0-6.8-1.5-6.8-8c0-6.7,3.1-7.9,7-7.9c4.3,0,6.8,1.2,6.8,7.8C69.4,72,67.1,73.6,62.4,73.6z    M62.5,59.6c-3.1,0-4.8,1.2-4.8,6c0,5.1,1.4,6.2,4.7,6.2c3.2,0,4.7-0.9,4.7-6.1C67.2,60.8,65.8,59.6,62.5,59.6z"/>
	<path class="st0" d="M78.4,73.6c-2.8,0-3.7-0.8-4.2-2c-0.2-0.7-0.3-2-0.3-3.1V60h-2.1v-1.9h4.3v10.3c0,0.9,0.1,1.8,0.3,2.2   c0.3,0.8,1.2,1.1,2.9,1.1c2,0,3.3-0.8,3.7-1.1c0.2-0.2,0.5-0.5,0.6-0.8c0.1-0.3,0.1-0.6,0.1-1.1V60h-2.1v-1.9h4.3v12   c0,1,0.2,1.5,1.1,1.5c0.3,0,0.9-0.1,1.2-0.1l0.2,1.8c-0.5,0.1-1.4,0.2-2.1,0.2c-2,0-2.4-1.2-2.4-2.3C83.3,73,80.7,73.6,78.4,73.6z"/>
	<path class="st0" d="M96.9,73.6c-4.3,0-6.4-2-6.4-7.6c0-6.5,2.4-8.3,7.1-8.3c2,0,3.4,0.6,3.9,1.6v-7h-2.1v-1.9h4.3v19.5   c0,1,0.2,1.7,1.1,1.7c0.3,0,0.8,0,1.1-0.1l0.2,1.8c-0.5,0.1-1.2,0.2-1.7,0.2c-2,0-2.5-0.8-2.6-2.1C100.9,73,99,73.6,96.9,73.6z    M101.5,63c0-0.4,0-1-0.1-1.4c-0.4-1.3-1.4-2-3.7-2c-3.9,0-5,1.8-5,6.2c0,4.1,1.4,5.9,4.6,5.9c2.7,0,3.8-1.1,4.1-2.3   c0.1-0.5,0.1-1,0.1-1.7V63z"/>
</g>
<g>
	<defs>
		<path id="SVGID_1_" d="M89.6,2.8c6.1,0,11.8,2.7,15.6,7.5l1.9,2.4c0.5,0.7,1.3,1,2.2,1c0.4,0,0.8-0.1,1.1-0.3l2.7-1.3    c1.1-0.5,2.3-0.8,3.5-0.8c3.6,0,6.9,2.4,8,5.9l0.8,2.7c0.3,1.1,1.4,1.9,2.6,2l2.8,0.1c5.3,0.1,9.6,4.7,9.6,10.2    c0,5.6-4.4,10.2-9.8,10.2H65c-4.3,0-7.8-3.5-7.8-7.8c0-3.9,2.9-7.2,6.8-7.7l3.1-0.4c1.3-0.2,2.3-1.2,2.4-2.5l0.3-3.1    C70.7,10.7,79.3,2.8,89.6,2.8 M89.6,0C77.9,0,68,9,67,20.6l-0.3,3.1l-3.1,0.4c-5.3,0.7-9.2,5.2-9.2,10.5c0,5.8,4.7,10.5,10.6,10.5    h65.4c6.9,0,12.5-5.8,12.5-12.9c0-7-5.5-12.8-12.3-12.9l-2.8-0.1l-0.8-2.7c-1.4-4.6-5.8-7.8-10.6-7.8c-1.6,0-3.1,0.3-4.6,1    l-2.7,1.3l-1.9-2.4C103,3.1,96.5,0,89.6,0L89.6,0z"/>
	</defs>
	<clipPath id="SVGID_2_">
		<use xlink:href="#SVGID_1_" style="overflow:visible;"/>
	</clipPath>
	<g class="st1">
		<rect x="65.2" y="-11" class="st2" width="25" height="31.4"/>
		<rect x="88.2" y="-10.2" class="st3" width="23.4" height="36.5"/>
		
			<rect x="109.1" y="-9.6" transform="matrix(-0.9802 -0.198 0.198 -0.9802 237.1195 45.2452)" class="st4" width="23.4" height="40.7"/>
		<polygon class="st5" points="110.6,47.4 125,53.8 131.7,57.5 163.7,1 144.4,-9.9 120,32.4 110.6,38.8   "/>
	</g>
</g>
</svg>